G04 #@! TF.GenerationSoftware,KiCad,Pcbnew,5.1.5+dfsg1-2build2*
G04 #@! TF.CreationDate,2021-11-18T22:50:20-05:00*
G04 #@! TF.ProjectId,color_computer_dac,636f6c6f-725f-4636-9f6d-70757465725f,1.1.0*
G04 #@! TF.SameCoordinates,Original*
G04 #@! TF.FileFunction,Copper,L2,Bot*
G04 #@! TF.FilePolarity,Positive*
%FSLAX46Y46*%
G04 Gerber Fmt 4.6, Leading zero omitted, Abs format (unit mm)*
G04 Created by KiCad (PCBNEW 5.1.5+dfsg1-2build2) date 2021-11-18 22:50:20*
%MOMM*%
%LPD*%
G04 APERTURE LIST*
%ADD10R,1.600000X1.600000*%
%ADD11O,1.600000X1.600000*%
%ADD12C,0.800000*%
%ADD13C,0.250000*%
%ADD14C,0.500000*%
%ADD15C,0.254000*%
G04 APERTURE END LIST*
D10*
X124375000Y-93825000D03*
D11*
X131995000Y-116685000D03*
X124375000Y-96365000D03*
X131995000Y-114145000D03*
X124375000Y-98905000D03*
X131995000Y-111605000D03*
X124375000Y-101445000D03*
X131995000Y-109065000D03*
X124375000Y-103985000D03*
X131995000Y-106525000D03*
X124375000Y-106525000D03*
X131995000Y-103985000D03*
X124375000Y-109065000D03*
X131995000Y-101445000D03*
X124375000Y-111605000D03*
X131995000Y-98905000D03*
X124375000Y-114145000D03*
X131995000Y-96365000D03*
X124375000Y-116685000D03*
X131995000Y-93825000D03*
D12*
X121551400Y-121591800D03*
X128099900Y-126514700D03*
X127795300Y-109613200D03*
X121424200Y-129958100D03*
X128099900Y-130149100D03*
X127565869Y-112891187D03*
X133339300Y-104584990D03*
X131551900Y-131283900D03*
X130149800Y-121825400D03*
X128391600Y-114825900D03*
X122450011Y-117744956D03*
X115984053Y-107478832D03*
X116990000Y-131010000D03*
X133470000Y-130800000D03*
X121690000Y-104520000D03*
X135970000Y-102230000D03*
X135860000Y-106760000D03*
X130640000Y-115790000D03*
X128150000Y-93120000D03*
X128430000Y-99060000D03*
X129880000Y-101570000D03*
X130460000Y-106210000D03*
X117390868Y-115902100D03*
X117067195Y-116978272D03*
X133812300Y-126312600D03*
X116706900Y-127320100D03*
X120519300Y-129130700D03*
X116960000Y-105860000D03*
X128847500Y-120439200D03*
X127221000Y-118027100D03*
X125865857Y-112804464D03*
X128500000Y-112500000D03*
X118770000Y-107240000D03*
X125156300Y-125856300D03*
X126975500Y-126235200D03*
X127029100Y-116037800D03*
X121200000Y-116700000D03*
X122610000Y-107070000D03*
X122524989Y-109130020D03*
X118920100Y-125254400D03*
X125780200Y-107938800D03*
X125560500Y-119737700D03*
X132040000Y-119240000D03*
X119745000Y-116845000D03*
X121300000Y-112300000D03*
X130780000Y-110490000D03*
X130230000Y-103340000D03*
X124607800Y-121209500D03*
X129907700Y-125434300D03*
X119892600Y-121849400D03*
X123325032Y-115694722D03*
X125840000Y-103880000D03*
X119702700Y-124405200D03*
X117991500Y-122205100D03*
X118290890Y-117852900D03*
X122679900Y-125871900D03*
X124155900Y-125762700D03*
X121156000Y-126414000D03*
X126195000Y-126869500D03*
X135340000Y-109752600D03*
X121450000Y-107090000D03*
D13*
X121551400Y-121591800D02*
X123372400Y-121591800D01*
X123372400Y-121591800D02*
X128099900Y-126319300D01*
X128099900Y-126319300D02*
X128099900Y-126514700D01*
X128099900Y-130149100D02*
X121615200Y-130149100D01*
X121615200Y-130149100D02*
X121424200Y-129958100D01*
X127395301Y-112720619D02*
X127565869Y-112891187D01*
X127395301Y-110013199D02*
X127395301Y-112720619D01*
X127795300Y-109613200D02*
X127395301Y-110013199D01*
X134054700Y-125044200D02*
X134054700Y-120177537D01*
X134125035Y-120107202D02*
X134125035Y-114461435D01*
X128099900Y-130149100D02*
X128949800Y-130149100D01*
X134054700Y-120177537D02*
X134125035Y-120107202D01*
X133604400Y-113940800D02*
X133604400Y-105415775D01*
X134125035Y-114461435D02*
X133604400Y-113940800D01*
X128949800Y-130149100D02*
X134054700Y-125044200D01*
X133604400Y-105415775D02*
X133339300Y-105150675D01*
X133339300Y-105150675D02*
X133339300Y-104584990D01*
X126486100Y-118281100D02*
X126486100Y-119103500D01*
X126486100Y-119103500D02*
X129208000Y-121825400D01*
X129208000Y-121825400D02*
X130149800Y-121825400D01*
X127792100Y-115425400D02*
X127606700Y-115240000D01*
X127606700Y-115240000D02*
X126682600Y-115240000D01*
X126682600Y-115240000D02*
X125500300Y-116422300D01*
X125500300Y-116422300D02*
X125500300Y-116685000D01*
X127792100Y-115425400D02*
X127792100Y-116359000D01*
X127792100Y-116359000D02*
X126486100Y-117665000D01*
X126486100Y-117665000D02*
X126486100Y-118281100D01*
X127792100Y-115425400D02*
X128391600Y-114825900D01*
X124606100Y-116685000D02*
X124375000Y-116685000D01*
X124606100Y-116685000D02*
X125500300Y-116685000D01*
X126486100Y-118281100D02*
X122986155Y-118281100D01*
X122986155Y-118281100D02*
X122450011Y-117744956D01*
X114992160Y-117885474D02*
X114992160Y-108470725D01*
X115014700Y-117908014D02*
X114992160Y-117885474D01*
X114992160Y-108470725D02*
X115984053Y-107478832D01*
X131551900Y-131283900D02*
X131051600Y-131784200D01*
X131051600Y-131784200D02*
X120145300Y-131784200D01*
X115014700Y-126653600D02*
X115014700Y-117908014D01*
X120145300Y-131784200D02*
X115014700Y-126653600D01*
X121690000Y-104520000D02*
X121690000Y-104520000D01*
X130149800Y-121259715D02*
X130230000Y-121179515D01*
X130149800Y-121825400D02*
X130149800Y-121259715D01*
X130230000Y-121179515D02*
X130230000Y-119310000D01*
X117266200Y-117804586D02*
X117816300Y-117254486D01*
X117816300Y-116327532D02*
X117790867Y-116302099D01*
X120513100Y-127955100D02*
X117266200Y-124708200D01*
X132775002Y-118596372D02*
X132775002Y-119548002D01*
X131995000Y-117816370D02*
X132775002Y-118596372D01*
X132775002Y-119548002D02*
X131995000Y-120328004D01*
X117816300Y-117254486D02*
X117816300Y-116327532D01*
X117266200Y-124708200D02*
X117266200Y-117804586D01*
X131995000Y-125040200D02*
X128898100Y-128137100D01*
X131995000Y-116685000D02*
X131995000Y-117816370D01*
X121188400Y-128137100D02*
X121006400Y-127955100D01*
X117790867Y-116302099D02*
X117390868Y-115902100D01*
X131995000Y-120328004D02*
X131995000Y-125040200D01*
X121006400Y-127955100D02*
X120513100Y-127955100D01*
X128898100Y-128137100D02*
X121188400Y-128137100D01*
X120261400Y-128405400D02*
X116815900Y-124959900D01*
X116815900Y-124959900D02*
X116815900Y-117229567D01*
X133225013Y-119734402D02*
X133123200Y-119836215D01*
X133225013Y-115375013D02*
X133225013Y-119734402D01*
X120819800Y-128405400D02*
X120261400Y-128405400D01*
X131995000Y-114145000D02*
X133225013Y-115375013D01*
X133123200Y-119836215D02*
X133123200Y-124581900D01*
X129114100Y-128591000D02*
X121005400Y-128591000D01*
X116815900Y-117229567D02*
X117067195Y-116978272D01*
X121005400Y-128591000D02*
X120819800Y-128405400D01*
X133123200Y-124581900D02*
X129114100Y-128591000D01*
X134505046Y-120363602D02*
X134575046Y-120293602D01*
X134083300Y-104255988D02*
X132397313Y-102570001D01*
X129171371Y-102570001D02*
X125506370Y-98905000D01*
X134505046Y-125619854D02*
X134505046Y-120363602D01*
X134575046Y-120293602D02*
X134575046Y-114274446D01*
X134083300Y-113782700D02*
X134083300Y-104255988D01*
X125506370Y-98905000D02*
X124375000Y-98905000D01*
X132397313Y-102570001D02*
X129171371Y-102570001D01*
X134575046Y-114274446D02*
X134083300Y-113782700D01*
X133812300Y-126312600D02*
X134505046Y-125619854D01*
X115465000Y-126078200D02*
X115465000Y-117721903D01*
X116960000Y-107536847D02*
X116960000Y-105860000D01*
X115442171Y-116257470D02*
X115465000Y-116234641D01*
X115465000Y-109031847D02*
X116960000Y-107536847D01*
X115465000Y-116234641D02*
X115465000Y-109031847D01*
X115442171Y-117699074D02*
X115442171Y-116257470D01*
X115465000Y-117721903D02*
X115442171Y-117699074D01*
X116706900Y-127320100D02*
X115465000Y-126078200D01*
X133675024Y-114873224D02*
X133675024Y-119920802D01*
X129246600Y-129130700D02*
X121084985Y-129130700D01*
X133604400Y-119991426D02*
X133604400Y-124772900D01*
X131995000Y-111605000D02*
X133120300Y-112730300D01*
X133120300Y-112730300D02*
X133120300Y-114318500D01*
X121084985Y-129130700D02*
X120519300Y-129130700D01*
X133604400Y-124772900D02*
X129246600Y-129130700D01*
X133120300Y-114318500D02*
X133675024Y-114873224D01*
X133675024Y-119920802D02*
X133604400Y-119991426D01*
X124375000Y-101445000D02*
X125174999Y-102244999D01*
X125288001Y-102244999D02*
X129587900Y-106544898D01*
X125174999Y-102244999D02*
X125288001Y-102244999D01*
X129587900Y-119698800D02*
X128847500Y-120439200D01*
X129587900Y-106544898D02*
X129587900Y-119698800D01*
X129117300Y-116130800D02*
X129117300Y-113117300D01*
X129117300Y-113117300D02*
X128500000Y-112500000D01*
X127221000Y-118027100D02*
X129117300Y-116130800D01*
X126241482Y-108503318D02*
X126241482Y-112120039D01*
X124375000Y-104870800D02*
X126544500Y-107040300D01*
X125865857Y-112495664D02*
X125865857Y-112804464D01*
X124375000Y-103985000D02*
X124375000Y-104870800D01*
X126544500Y-108200300D02*
X126241482Y-108503318D01*
X126241482Y-112120039D02*
X125865857Y-112495664D01*
X126544500Y-107040300D02*
X126544500Y-108200300D01*
X120220000Y-107240000D02*
X118770000Y-107240000D01*
X123050010Y-104409990D02*
X120220000Y-107240000D01*
X123050010Y-101126590D02*
X123050010Y-104409990D01*
X123907600Y-100269000D02*
X123050010Y-101126590D01*
X125909000Y-100269000D02*
X123907600Y-100269000D01*
X131995000Y-106355000D02*
X125909000Y-100269000D01*
X131995000Y-106525000D02*
X131995000Y-106355000D01*
X122494982Y-108405018D02*
X122176987Y-108405018D01*
X121799987Y-108782018D02*
X121799987Y-108846424D01*
X118549989Y-112096421D02*
X118549989Y-116749989D01*
X122176987Y-108405018D02*
X121799987Y-108782018D01*
X119200000Y-120189500D02*
X118716900Y-120672600D01*
X119200000Y-117400000D02*
X119200000Y-120189500D01*
X125156300Y-125290615D02*
X125156300Y-125856300D01*
X118716900Y-122391900D02*
X120136000Y-123811000D01*
X120136000Y-123811000D02*
X123676685Y-123811000D01*
X124375000Y-106525000D02*
X122494982Y-108405018D01*
X118549989Y-116749989D02*
X119200000Y-117400000D01*
X121799987Y-108846424D02*
X118549989Y-112096421D01*
X123676685Y-123811000D02*
X125156300Y-125290615D01*
X118716900Y-120672600D02*
X118716900Y-122391900D01*
X122150011Y-116922993D02*
X121725007Y-117347997D01*
X121725007Y-117347997D02*
X121725007Y-118526693D01*
X119167200Y-121084500D02*
X119167200Y-122205300D01*
X121725007Y-118526693D02*
X119167200Y-121084500D01*
X122475013Y-113034402D02*
X122150011Y-113359404D01*
X124375000Y-109065000D02*
X122475013Y-110964987D01*
X122475013Y-110964987D02*
X122475013Y-113034402D01*
X119872200Y-122910300D02*
X123650600Y-122910300D01*
X123650600Y-122910300D02*
X126975500Y-126235200D01*
X119167200Y-122205300D02*
X119872200Y-122910300D01*
X122150011Y-113359404D02*
X122150011Y-116922993D01*
X122600022Y-116521722D02*
X122600022Y-113545804D01*
X123896600Y-117818300D02*
X122600022Y-116521722D01*
X127029100Y-116037800D02*
X125248600Y-117818300D01*
X122600022Y-113545804D02*
X123575001Y-112570825D01*
X125248600Y-117818300D02*
X123896600Y-117818300D01*
X123575001Y-112404999D02*
X124375000Y-111605000D01*
X123575001Y-112570825D02*
X123575001Y-112404999D01*
X121200000Y-113473004D02*
X122025002Y-112648002D01*
X122025002Y-109630007D02*
X122524989Y-109130020D01*
X121200000Y-116700000D02*
X121200000Y-113473004D01*
X122025002Y-112648002D02*
X122025002Y-109630007D01*
X117882500Y-126833100D02*
X116365600Y-125316200D01*
X133120300Y-101371100D02*
X134533700Y-102784500D01*
X121241900Y-130879000D02*
X117882500Y-127519600D01*
X130271700Y-130879000D02*
X121241900Y-130879000D01*
X134955300Y-126195400D02*
X130271700Y-130879000D01*
X133120300Y-100030300D02*
X133120300Y-101371100D01*
X116365600Y-116606863D02*
X116365600Y-113314400D01*
X135025057Y-114087557D02*
X135025057Y-120480002D01*
X134533700Y-113596200D02*
X135025057Y-114087557D01*
X117882500Y-127519600D02*
X117882500Y-126833100D01*
X134533700Y-102784500D02*
X134533700Y-113596200D01*
X134955300Y-120549759D02*
X134955300Y-126195400D01*
X116342193Y-117326274D02*
X116342193Y-116630270D01*
X135025057Y-120480002D02*
X134955300Y-120549759D01*
X131995000Y-98905000D02*
X133120300Y-100030300D01*
X116365600Y-125316200D02*
X116365600Y-117349681D01*
X116365600Y-117349681D02*
X116342193Y-117326274D01*
X116342193Y-116630270D02*
X116365600Y-116606863D01*
X116365600Y-113314400D02*
X122210001Y-107469999D01*
X122210001Y-107469999D02*
X122610000Y-107070000D01*
X130463700Y-122556400D02*
X130638800Y-122731500D01*
X130638800Y-122731500D02*
X130638800Y-125745000D01*
X130638800Y-125745000D02*
X128753700Y-127630100D01*
X128753700Y-127630100D02*
X121318300Y-127630100D01*
X121318300Y-127630100D02*
X118942600Y-125254400D01*
X118942600Y-125254400D02*
X118920100Y-125254400D01*
X130463700Y-122556400D02*
X128379200Y-122556400D01*
X128379200Y-122556400D02*
X125560500Y-119737700D01*
X125780200Y-111798280D02*
X125780200Y-107938800D01*
X124375000Y-114145000D02*
X124375000Y-113203480D01*
X124375000Y-113203480D02*
X125780200Y-111798280D01*
X131540001Y-121480099D02*
X131540001Y-119739999D01*
X131640001Y-119639999D02*
X132040000Y-119240000D01*
X131540001Y-119739999D02*
X131640001Y-119639999D01*
X130463700Y-122556400D02*
X131540001Y-121480099D01*
X119745000Y-116845000D02*
X119745000Y-113855000D01*
X119745000Y-113855000D02*
X121300000Y-112300000D01*
X130780000Y-110490000D02*
X131345685Y-110490000D01*
X130230000Y-103905685D02*
X130230000Y-103340000D01*
X131434316Y-105110001D02*
X130230000Y-103905685D01*
X133120001Y-110099999D02*
X133120001Y-105984999D01*
X133029999Y-110190001D02*
X133120001Y-110099999D01*
X131645684Y-110190001D02*
X133029999Y-110190001D01*
X131345685Y-110490000D02*
X131645684Y-110190001D01*
X132245003Y-105110001D02*
X131434316Y-105110001D01*
X133120001Y-105984999D02*
X132245003Y-105110001D01*
D14*
X124607800Y-121209500D02*
X124139800Y-120741500D01*
X124139800Y-120741500D02*
X121000500Y-120741500D01*
X121000500Y-120741500D02*
X119892600Y-121849400D01*
X124607800Y-121209500D02*
X125682900Y-121209500D01*
X125682900Y-121209500D02*
X129907700Y-125434300D01*
X123325032Y-115694722D02*
X123594954Y-115424800D01*
X127143800Y-105183800D02*
X125840000Y-103880000D01*
X126715859Y-112448556D02*
X126816492Y-112347923D01*
X126816492Y-112347923D02*
X126816493Y-108742007D01*
X126816493Y-108742007D02*
X127143800Y-108414700D01*
X127143800Y-108414700D02*
X127143800Y-105183800D01*
X124870300Y-115424800D02*
X126715859Y-113579241D01*
X126715859Y-113579241D02*
X126715859Y-112448556D01*
X123594954Y-115424800D02*
X124870300Y-115424800D01*
D13*
X117991500Y-122205100D02*
X117991500Y-122694000D01*
X117991500Y-122694000D02*
X119702700Y-124405200D01*
X117991500Y-122205100D02*
X117991500Y-118152290D01*
X117991500Y-118152290D02*
X118290890Y-117852900D01*
X122679900Y-125871900D02*
X124046700Y-125871900D01*
X124046700Y-125871900D02*
X124155900Y-125762700D01*
X121156000Y-126414000D02*
X121611500Y-126869500D01*
X121611500Y-126869500D02*
X126195000Y-126869500D01*
X135739999Y-110152599D02*
X135739999Y-126047601D01*
X115915300Y-117535792D02*
X115892182Y-117512674D01*
X130453700Y-131333900D02*
X121059900Y-131333900D01*
X121059900Y-131333900D02*
X117432200Y-127706200D01*
X117432200Y-127019600D02*
X115915300Y-125502700D01*
X115892182Y-116443870D02*
X115915300Y-116420752D01*
X135739999Y-126047601D02*
X130453700Y-131333900D01*
X115915300Y-125502700D02*
X115915300Y-117535792D01*
X115915300Y-116420752D02*
X115915300Y-112624700D01*
X115915300Y-112624700D02*
X121450000Y-107090000D01*
X115892182Y-117512674D02*
X115892182Y-116443870D01*
X117432200Y-127706200D02*
X117432200Y-127019600D01*
X135340000Y-109752600D02*
X135739999Y-110152599D01*
D15*
G36*
X136440001Y-132426618D02*
G01*
X136326620Y-132540000D01*
X115373381Y-132540000D01*
X115260000Y-132426620D01*
X115260000Y-126948001D01*
X115671900Y-127359902D01*
X115671900Y-127422039D01*
X115711674Y-127621998D01*
X115789695Y-127810356D01*
X115902963Y-127979874D01*
X116047126Y-128124037D01*
X116216644Y-128237305D01*
X116405002Y-128315326D01*
X116604961Y-128355100D01*
X116808839Y-128355100D01*
X116973538Y-128322340D01*
X120496101Y-131844903D01*
X120519899Y-131873901D01*
X120548897Y-131897699D01*
X120635624Y-131968874D01*
X120767653Y-132039446D01*
X120910914Y-132082903D01*
X121059900Y-132097577D01*
X121097233Y-132093900D01*
X130416378Y-132093900D01*
X130453700Y-132097576D01*
X130491022Y-132093900D01*
X130491033Y-132093900D01*
X130602686Y-132082903D01*
X130745947Y-132039446D01*
X130877976Y-131968874D01*
X130993701Y-131873901D01*
X131017504Y-131844897D01*
X136251002Y-126611400D01*
X136280000Y-126587602D01*
X136374973Y-126471877D01*
X136440000Y-126350221D01*
X136440001Y-132426618D01*
G37*
X136440001Y-132426618D02*
X136326620Y-132540000D01*
X115373381Y-132540000D01*
X115260000Y-132426620D01*
X115260000Y-126948001D01*
X115671900Y-127359902D01*
X115671900Y-127422039D01*
X115711674Y-127621998D01*
X115789695Y-127810356D01*
X115902963Y-127979874D01*
X116047126Y-128124037D01*
X116216644Y-128237305D01*
X116405002Y-128315326D01*
X116604961Y-128355100D01*
X116808839Y-128355100D01*
X116973538Y-128322340D01*
X120496101Y-131844903D01*
X120519899Y-131873901D01*
X120548897Y-131897699D01*
X120635624Y-131968874D01*
X120767653Y-132039446D01*
X120910914Y-132082903D01*
X121059900Y-132097577D01*
X121097233Y-132093900D01*
X130416378Y-132093900D01*
X130453700Y-132097576D01*
X130491022Y-132093900D01*
X130491033Y-132093900D01*
X130602686Y-132082903D01*
X130745947Y-132039446D01*
X130877976Y-131968874D01*
X130993701Y-131873901D01*
X131017504Y-131844897D01*
X136251002Y-126611400D01*
X136280000Y-126587602D01*
X136374973Y-126471877D01*
X136440000Y-126350221D01*
X136440001Y-132426618D01*
G36*
X130478102Y-111485226D02*
G01*
X130560000Y-111501516D01*
X130560000Y-111746335D01*
X130615147Y-112023574D01*
X130723320Y-112284727D01*
X130880363Y-112519759D01*
X131080241Y-112719637D01*
X131312759Y-112875000D01*
X131080241Y-113030363D01*
X130880363Y-113230241D01*
X130723320Y-113465273D01*
X130615147Y-113726426D01*
X130560000Y-114003665D01*
X130560000Y-114286335D01*
X130615147Y-114563574D01*
X130723320Y-114824727D01*
X130880363Y-115059759D01*
X131080241Y-115259637D01*
X131312759Y-115415000D01*
X131080241Y-115570363D01*
X130880363Y-115770241D01*
X130723320Y-116005273D01*
X130615147Y-116266426D01*
X130560000Y-116543665D01*
X130560000Y-116826335D01*
X130615147Y-117103574D01*
X130723320Y-117364727D01*
X130880363Y-117599759D01*
X131080241Y-117799637D01*
X131240203Y-117906520D01*
X131245998Y-117965356D01*
X131253874Y-117991320D01*
X131289454Y-118108616D01*
X131360026Y-118240646D01*
X131424614Y-118319346D01*
X131455000Y-118356371D01*
X131474968Y-118372758D01*
X131380226Y-118436063D01*
X131236063Y-118580226D01*
X131122795Y-118749744D01*
X131044774Y-118938102D01*
X131005000Y-119138061D01*
X131005000Y-119195895D01*
X131000001Y-119199998D01*
X130976203Y-119228996D01*
X130976202Y-119228997D01*
X130905027Y-119315723D01*
X130834455Y-119447753D01*
X130811935Y-119521995D01*
X130790999Y-119591013D01*
X130787301Y-119628556D01*
X130776325Y-119739999D01*
X130780002Y-119777331D01*
X130780001Y-121165296D01*
X130148899Y-121796400D01*
X128694002Y-121796400D01*
X126595500Y-119697899D01*
X126595500Y-119635761D01*
X126555726Y-119435802D01*
X126477705Y-119247444D01*
X126364437Y-119077926D01*
X126220274Y-118933763D01*
X126050756Y-118820495D01*
X125862398Y-118742474D01*
X125662439Y-118702700D01*
X125458561Y-118702700D01*
X125258602Y-118742474D01*
X125070244Y-118820495D01*
X124900726Y-118933763D01*
X124756563Y-119077926D01*
X124643295Y-119247444D01*
X124565274Y-119435802D01*
X124525500Y-119635761D01*
X124525500Y-119839639D01*
X124548766Y-119956606D01*
X124480113Y-119919911D01*
X124313290Y-119869305D01*
X124183277Y-119856500D01*
X124183269Y-119856500D01*
X124139800Y-119852219D01*
X124096331Y-119856500D01*
X121470002Y-119856500D01*
X122236010Y-119090492D01*
X122265008Y-119066694D01*
X122359981Y-118950969D01*
X122430553Y-118818940D01*
X122474010Y-118675679D01*
X122485007Y-118564026D01*
X122485007Y-118564017D01*
X122488683Y-118526694D01*
X122485007Y-118489371D01*
X122485007Y-117662799D01*
X122575652Y-117572154D01*
X123332801Y-118329303D01*
X123356599Y-118358301D01*
X123472324Y-118453274D01*
X123604353Y-118523846D01*
X123747614Y-118567303D01*
X123859267Y-118578300D01*
X123859276Y-118578300D01*
X123896599Y-118581976D01*
X123933922Y-118578300D01*
X125211278Y-118578300D01*
X125248600Y-118581976D01*
X125285922Y-118578300D01*
X125285933Y-118578300D01*
X125397586Y-118567303D01*
X125540847Y-118523846D01*
X125672876Y-118453274D01*
X125788601Y-118358301D01*
X125812404Y-118329297D01*
X126186000Y-117955701D01*
X126186000Y-118129039D01*
X126225774Y-118328998D01*
X126303795Y-118517356D01*
X126417063Y-118686874D01*
X126561226Y-118831037D01*
X126730744Y-118944305D01*
X126919102Y-119022326D01*
X127119061Y-119062100D01*
X127322939Y-119062100D01*
X127522898Y-119022326D01*
X127711256Y-118944305D01*
X127880774Y-118831037D01*
X128024937Y-118686874D01*
X128138205Y-118517356D01*
X128216226Y-118328998D01*
X128256000Y-118129039D01*
X128256000Y-118066901D01*
X128827901Y-117495001D01*
X128827901Y-119383997D01*
X128807698Y-119404200D01*
X128745561Y-119404200D01*
X128545602Y-119443974D01*
X128357244Y-119521995D01*
X128187726Y-119635263D01*
X128043563Y-119779426D01*
X127930295Y-119948944D01*
X127852274Y-120137302D01*
X127812500Y-120337261D01*
X127812500Y-120541139D01*
X127852274Y-120741098D01*
X127930295Y-120929456D01*
X128043563Y-121098974D01*
X128187726Y-121243137D01*
X128357244Y-121356405D01*
X128545602Y-121434426D01*
X128745561Y-121474200D01*
X128949439Y-121474200D01*
X129149398Y-121434426D01*
X129337756Y-121356405D01*
X129507274Y-121243137D01*
X129651437Y-121098974D01*
X129764705Y-120929456D01*
X129842726Y-120741098D01*
X129882500Y-120541139D01*
X129882500Y-120479002D01*
X130098902Y-120262599D01*
X130127901Y-120238801D01*
X130222874Y-120123076D01*
X130293446Y-119991047D01*
X130336903Y-119847786D01*
X130347900Y-119736133D01*
X130347900Y-119736125D01*
X130351576Y-119698800D01*
X130347900Y-119661475D01*
X130347900Y-111431294D01*
X130478102Y-111485226D01*
G37*
X130478102Y-111485226D02*
X130560000Y-111501516D01*
X130560000Y-111746335D01*
X130615147Y-112023574D01*
X130723320Y-112284727D01*
X130880363Y-112519759D01*
X131080241Y-112719637D01*
X131312759Y-112875000D01*
X131080241Y-113030363D01*
X130880363Y-113230241D01*
X130723320Y-113465273D01*
X130615147Y-113726426D01*
X130560000Y-114003665D01*
X130560000Y-114286335D01*
X130615147Y-114563574D01*
X130723320Y-114824727D01*
X130880363Y-115059759D01*
X131080241Y-115259637D01*
X131312759Y-115415000D01*
X131080241Y-115570363D01*
X130880363Y-115770241D01*
X130723320Y-116005273D01*
X130615147Y-116266426D01*
X130560000Y-116543665D01*
X130560000Y-116826335D01*
X130615147Y-117103574D01*
X130723320Y-117364727D01*
X130880363Y-117599759D01*
X131080241Y-117799637D01*
X131240203Y-117906520D01*
X131245998Y-117965356D01*
X131253874Y-117991320D01*
X131289454Y-118108616D01*
X131360026Y-118240646D01*
X131424614Y-118319346D01*
X131455000Y-118356371D01*
X131474968Y-118372758D01*
X131380226Y-118436063D01*
X131236063Y-118580226D01*
X131122795Y-118749744D01*
X131044774Y-118938102D01*
X131005000Y-119138061D01*
X131005000Y-119195895D01*
X131000001Y-119199998D01*
X130976203Y-119228996D01*
X130976202Y-119228997D01*
X130905027Y-119315723D01*
X130834455Y-119447753D01*
X130811935Y-119521995D01*
X130790999Y-119591013D01*
X130787301Y-119628556D01*
X130776325Y-119739999D01*
X130780002Y-119777331D01*
X130780001Y-121165296D01*
X130148899Y-121796400D01*
X128694002Y-121796400D01*
X126595500Y-119697899D01*
X126595500Y-119635761D01*
X126555726Y-119435802D01*
X126477705Y-119247444D01*
X126364437Y-119077926D01*
X126220274Y-118933763D01*
X126050756Y-118820495D01*
X125862398Y-118742474D01*
X125662439Y-118702700D01*
X125458561Y-118702700D01*
X125258602Y-118742474D01*
X125070244Y-118820495D01*
X124900726Y-118933763D01*
X124756563Y-119077926D01*
X124643295Y-119247444D01*
X124565274Y-119435802D01*
X124525500Y-119635761D01*
X124525500Y-119839639D01*
X124548766Y-119956606D01*
X124480113Y-119919911D01*
X124313290Y-119869305D01*
X124183277Y-119856500D01*
X124183269Y-119856500D01*
X124139800Y-119852219D01*
X124096331Y-119856500D01*
X121470002Y-119856500D01*
X122236010Y-119090492D01*
X122265008Y-119066694D01*
X122359981Y-118950969D01*
X122430553Y-118818940D01*
X122474010Y-118675679D01*
X122485007Y-118564026D01*
X122485007Y-118564017D01*
X122488683Y-118526694D01*
X122485007Y-118489371D01*
X122485007Y-117662799D01*
X122575652Y-117572154D01*
X123332801Y-118329303D01*
X123356599Y-118358301D01*
X123472324Y-118453274D01*
X123604353Y-118523846D01*
X123747614Y-118567303D01*
X123859267Y-118578300D01*
X123859276Y-118578300D01*
X123896599Y-118581976D01*
X123933922Y-118578300D01*
X125211278Y-118578300D01*
X125248600Y-118581976D01*
X125285922Y-118578300D01*
X125285933Y-118578300D01*
X125397586Y-118567303D01*
X125540847Y-118523846D01*
X125672876Y-118453274D01*
X125788601Y-118358301D01*
X125812404Y-118329297D01*
X126186000Y-117955701D01*
X126186000Y-118129039D01*
X126225774Y-118328998D01*
X126303795Y-118517356D01*
X126417063Y-118686874D01*
X126561226Y-118831037D01*
X126730744Y-118944305D01*
X126919102Y-119022326D01*
X127119061Y-119062100D01*
X127322939Y-119062100D01*
X127522898Y-119022326D01*
X127711256Y-118944305D01*
X127880774Y-118831037D01*
X128024937Y-118686874D01*
X128138205Y-118517356D01*
X128216226Y-118328998D01*
X128256000Y-118129039D01*
X128256000Y-118066901D01*
X128827901Y-117495001D01*
X128827901Y-119383997D01*
X128807698Y-119404200D01*
X128745561Y-119404200D01*
X128545602Y-119443974D01*
X128357244Y-119521995D01*
X128187726Y-119635263D01*
X128043563Y-119779426D01*
X127930295Y-119948944D01*
X127852274Y-120137302D01*
X127812500Y-120337261D01*
X127812500Y-120541139D01*
X127852274Y-120741098D01*
X127930295Y-120929456D01*
X128043563Y-121098974D01*
X128187726Y-121243137D01*
X128357244Y-121356405D01*
X128545602Y-121434426D01*
X128745561Y-121474200D01*
X128949439Y-121474200D01*
X129149398Y-121434426D01*
X129337756Y-121356405D01*
X129507274Y-121243137D01*
X129651437Y-121098974D01*
X129764705Y-120929456D01*
X129842726Y-120741098D01*
X129882500Y-120541139D01*
X129882500Y-120479002D01*
X130098902Y-120262599D01*
X130127901Y-120238801D01*
X130222874Y-120123076D01*
X130293446Y-119991047D01*
X130336903Y-119847786D01*
X130347900Y-119736133D01*
X130347900Y-119736125D01*
X130351576Y-119698800D01*
X130347900Y-119661475D01*
X130347900Y-111431294D01*
X130478102Y-111485226D01*
G36*
X124502000Y-116558000D02*
G01*
X124522000Y-116558000D01*
X124522000Y-116812000D01*
X124502000Y-116812000D01*
X124502000Y-116832000D01*
X124248000Y-116832000D01*
X124248000Y-116812000D01*
X124228000Y-116812000D01*
X124228000Y-116558000D01*
X124248000Y-116558000D01*
X124248000Y-116538000D01*
X124502000Y-116538000D01*
X124502000Y-116558000D01*
G37*
X124502000Y-116558000D02*
X124522000Y-116558000D01*
X124522000Y-116812000D01*
X124502000Y-116812000D01*
X124502000Y-116832000D01*
X124248000Y-116832000D01*
X124248000Y-116812000D01*
X124228000Y-116812000D01*
X124228000Y-116558000D01*
X124248000Y-116558000D01*
X124248000Y-116538000D01*
X124502000Y-116538000D01*
X124502000Y-116558000D01*
G36*
X128357300Y-115815998D02*
G01*
X128064100Y-116109198D01*
X128064100Y-115935861D01*
X128024326Y-115735902D01*
X127946305Y-115547544D01*
X127833037Y-115378026D01*
X127688874Y-115233863D01*
X127519356Y-115120595D01*
X127330998Y-115042574D01*
X127131039Y-115002800D01*
X126927161Y-115002800D01*
X126727202Y-115042574D01*
X126538844Y-115120595D01*
X126369326Y-115233863D01*
X126225163Y-115378026D01*
X126111895Y-115547544D01*
X126033874Y-115735902D01*
X125994100Y-115935861D01*
X125994100Y-115997998D01*
X125741126Y-116250972D01*
X125726246Y-116201913D01*
X125606037Y-115947580D01*
X125603083Y-115943595D01*
X127310909Y-114235770D01*
X127344676Y-114208058D01*
X127377816Y-114167678D01*
X127455270Y-114073300D01*
X127533903Y-113926187D01*
X127667808Y-113926187D01*
X127867767Y-113886413D01*
X128056125Y-113808392D01*
X128225643Y-113695124D01*
X128357301Y-113563466D01*
X128357300Y-115815998D01*
G37*
X128357300Y-115815998D02*
X128064100Y-116109198D01*
X128064100Y-115935861D01*
X128024326Y-115735902D01*
X127946305Y-115547544D01*
X127833037Y-115378026D01*
X127688874Y-115233863D01*
X127519356Y-115120595D01*
X127330998Y-115042574D01*
X127131039Y-115002800D01*
X126927161Y-115002800D01*
X126727202Y-115042574D01*
X126538844Y-115120595D01*
X126369326Y-115233863D01*
X126225163Y-115378026D01*
X126111895Y-115547544D01*
X126033874Y-115735902D01*
X125994100Y-115935861D01*
X125994100Y-115997998D01*
X125741126Y-116250972D01*
X125726246Y-116201913D01*
X125606037Y-115947580D01*
X125603083Y-115943595D01*
X127310909Y-114235770D01*
X127344676Y-114208058D01*
X127377816Y-114167678D01*
X127455270Y-114073300D01*
X127533903Y-113926187D01*
X127667808Y-113926187D01*
X127867767Y-113886413D01*
X128056125Y-113808392D01*
X128225643Y-113695124D01*
X128357301Y-113563466D01*
X128357300Y-115815998D01*
G36*
X122290011Y-104095187D02*
G01*
X119905199Y-106480000D01*
X119473711Y-106480000D01*
X119429774Y-106436063D01*
X119260256Y-106322795D01*
X119071898Y-106244774D01*
X118871939Y-106205000D01*
X118668061Y-106205000D01*
X118468102Y-106244774D01*
X118279744Y-106322795D01*
X118110226Y-106436063D01*
X117966063Y-106580226D01*
X117852795Y-106749744D01*
X117774774Y-106938102D01*
X117735000Y-107138061D01*
X117735000Y-107341939D01*
X117774774Y-107541898D01*
X117852795Y-107730256D01*
X117966063Y-107899774D01*
X118110226Y-108043937D01*
X118279744Y-108157205D01*
X118468102Y-108235226D01*
X118668061Y-108275000D01*
X118871939Y-108275000D01*
X119071898Y-108235226D01*
X119260256Y-108157205D01*
X119404120Y-108061079D01*
X116225000Y-111240199D01*
X116225000Y-109346648D01*
X117471004Y-108100645D01*
X117500001Y-108076848D01*
X117594974Y-107961123D01*
X117665546Y-107829094D01*
X117709003Y-107685833D01*
X117720000Y-107574180D01*
X117720000Y-107574171D01*
X117723676Y-107536848D01*
X117720000Y-107499525D01*
X117720000Y-106563711D01*
X117763937Y-106519774D01*
X117877205Y-106350256D01*
X117955226Y-106161898D01*
X117995000Y-105961939D01*
X117995000Y-105758061D01*
X117955226Y-105558102D01*
X117877205Y-105369744D01*
X117763937Y-105200226D01*
X117619774Y-105056063D01*
X117450256Y-104942795D01*
X117261898Y-104864774D01*
X117061939Y-104825000D01*
X116858061Y-104825000D01*
X116658102Y-104864774D01*
X116469744Y-104942795D01*
X116300226Y-105056063D01*
X116156063Y-105200226D01*
X116042795Y-105369744D01*
X115964774Y-105558102D01*
X115925000Y-105758061D01*
X115925000Y-105961939D01*
X115964774Y-106161898D01*
X116042795Y-106350256D01*
X116156063Y-106519774D01*
X116200001Y-106563712D01*
X116200000Y-107222045D01*
X115260000Y-108162046D01*
X115260000Y-105965830D01*
X117380991Y-103760000D01*
X122290011Y-103760000D01*
X122290011Y-104095187D01*
G37*
X122290011Y-104095187D02*
X119905199Y-106480000D01*
X119473711Y-106480000D01*
X119429774Y-106436063D01*
X119260256Y-106322795D01*
X119071898Y-106244774D01*
X118871939Y-106205000D01*
X118668061Y-106205000D01*
X118468102Y-106244774D01*
X118279744Y-106322795D01*
X118110226Y-106436063D01*
X117966063Y-106580226D01*
X117852795Y-106749744D01*
X117774774Y-106938102D01*
X117735000Y-107138061D01*
X117735000Y-107341939D01*
X117774774Y-107541898D01*
X117852795Y-107730256D01*
X117966063Y-107899774D01*
X118110226Y-108043937D01*
X118279744Y-108157205D01*
X118468102Y-108235226D01*
X118668061Y-108275000D01*
X118871939Y-108275000D01*
X119071898Y-108235226D01*
X119260256Y-108157205D01*
X119404120Y-108061079D01*
X116225000Y-111240199D01*
X116225000Y-109346648D01*
X117471004Y-108100645D01*
X117500001Y-108076848D01*
X117594974Y-107961123D01*
X117665546Y-107829094D01*
X117709003Y-107685833D01*
X117720000Y-107574180D01*
X117720000Y-107574171D01*
X117723676Y-107536848D01*
X117720000Y-107499525D01*
X117720000Y-106563711D01*
X117763937Y-106519774D01*
X117877205Y-106350256D01*
X117955226Y-106161898D01*
X117995000Y-105961939D01*
X117995000Y-105758061D01*
X117955226Y-105558102D01*
X117877205Y-105369744D01*
X117763937Y-105200226D01*
X117619774Y-105056063D01*
X117450256Y-104942795D01*
X117261898Y-104864774D01*
X117061939Y-104825000D01*
X116858061Y-104825000D01*
X116658102Y-104864774D01*
X116469744Y-104942795D01*
X116300226Y-105056063D01*
X116156063Y-105200226D01*
X116042795Y-105369744D01*
X115964774Y-105558102D01*
X115925000Y-105758061D01*
X115925000Y-105961939D01*
X115964774Y-106161898D01*
X116042795Y-106350256D01*
X116156063Y-106519774D01*
X116200001Y-106563712D01*
X116200000Y-107222045D01*
X115260000Y-108162046D01*
X115260000Y-105965830D01*
X117380991Y-103760000D01*
X122290011Y-103760000D01*
X122290011Y-104095187D01*
G36*
X136440001Y-101938953D02*
G01*
X136440000Y-109849979D01*
X136375000Y-109728374D01*
X136375000Y-109650661D01*
X136335226Y-109450702D01*
X136257205Y-109262344D01*
X136143937Y-109092826D01*
X135999774Y-108948663D01*
X135830256Y-108835395D01*
X135641898Y-108757374D01*
X135441939Y-108717600D01*
X135293700Y-108717600D01*
X135293700Y-102821822D01*
X135297376Y-102784499D01*
X135293700Y-102747176D01*
X135293700Y-102747167D01*
X135282703Y-102635514D01*
X135239246Y-102492253D01*
X135168674Y-102360224D01*
X135155511Y-102344185D01*
X135097499Y-102273496D01*
X135097495Y-102273492D01*
X135073701Y-102244499D01*
X135044709Y-102220706D01*
X134584002Y-101760000D01*
X136290873Y-101760000D01*
X136440001Y-101938953D01*
G37*
X136440001Y-101938953D02*
X136440000Y-109849979D01*
X136375000Y-109728374D01*
X136375000Y-109650661D01*
X136335226Y-109450702D01*
X136257205Y-109262344D01*
X136143937Y-109092826D01*
X135999774Y-108948663D01*
X135830256Y-108835395D01*
X135641898Y-108757374D01*
X135441939Y-108717600D01*
X135293700Y-108717600D01*
X135293700Y-102821822D01*
X135297376Y-102784499D01*
X135293700Y-102747176D01*
X135293700Y-102747167D01*
X135282703Y-102635514D01*
X135239246Y-102492253D01*
X135168674Y-102360224D01*
X135155511Y-102344185D01*
X135097499Y-102273496D01*
X135097495Y-102273492D01*
X135073701Y-102244499D01*
X135044709Y-102220706D01*
X134584002Y-101760000D01*
X136290873Y-101760000D01*
X136440001Y-101938953D01*
G36*
X130631689Y-106066491D02*
G01*
X130615147Y-106106426D01*
X130560000Y-106383665D01*
X130560000Y-106666335D01*
X130615147Y-106943574D01*
X130723320Y-107204727D01*
X130880363Y-107439759D01*
X131080241Y-107639637D01*
X131312759Y-107795000D01*
X131080241Y-107950363D01*
X130880363Y-108150241D01*
X130723320Y-108385273D01*
X130615147Y-108646426D01*
X130560000Y-108923665D01*
X130560000Y-109206335D01*
X130612074Y-109468126D01*
X130478102Y-109494774D01*
X130347900Y-109548706D01*
X130347900Y-106582220D01*
X130351576Y-106544897D01*
X130347900Y-106507574D01*
X130347900Y-106507565D01*
X130336903Y-106395912D01*
X130293446Y-106252651D01*
X130222874Y-106120622D01*
X130175383Y-106062754D01*
X130151699Y-106033894D01*
X130151695Y-106033890D01*
X130127901Y-106004897D01*
X130098909Y-105981104D01*
X125851805Y-101734002D01*
X125828002Y-101704998D01*
X125792235Y-101675645D01*
X125810000Y-101586335D01*
X125810000Y-101303665D01*
X125795384Y-101230185D01*
X130631689Y-106066491D01*
G37*
X130631689Y-106066491D02*
X130615147Y-106106426D01*
X130560000Y-106383665D01*
X130560000Y-106666335D01*
X130615147Y-106943574D01*
X130723320Y-107204727D01*
X130880363Y-107439759D01*
X131080241Y-107639637D01*
X131312759Y-107795000D01*
X131080241Y-107950363D01*
X130880363Y-108150241D01*
X130723320Y-108385273D01*
X130615147Y-108646426D01*
X130560000Y-108923665D01*
X130560000Y-109206335D01*
X130612074Y-109468126D01*
X130478102Y-109494774D01*
X130347900Y-109548706D01*
X130347900Y-106582220D01*
X130351576Y-106544897D01*
X130347900Y-106507574D01*
X130347900Y-106507565D01*
X130336903Y-106395912D01*
X130293446Y-106252651D01*
X130222874Y-106120622D01*
X130175383Y-106062754D01*
X130151699Y-106033894D01*
X130151695Y-106033890D01*
X130127901Y-106004897D01*
X130098909Y-105981104D01*
X125851805Y-101734002D01*
X125828002Y-101704998D01*
X125792235Y-101675645D01*
X125810000Y-101586335D01*
X125810000Y-101303665D01*
X125795384Y-101230185D01*
X130631689Y-106066491D01*
G36*
X130880363Y-92910241D02*
G01*
X130723320Y-93145273D01*
X130615147Y-93406426D01*
X130560000Y-93683665D01*
X130560000Y-93966335D01*
X130615147Y-94243574D01*
X130723320Y-94504727D01*
X130880363Y-94739759D01*
X131080241Y-94939637D01*
X131312759Y-95095000D01*
X131080241Y-95250363D01*
X130880363Y-95450241D01*
X130723320Y-95685273D01*
X130615147Y-95946426D01*
X130560000Y-96223665D01*
X130560000Y-96506335D01*
X130615147Y-96783574D01*
X130723320Y-97044727D01*
X130880363Y-97279759D01*
X131080241Y-97479637D01*
X131312759Y-97635000D01*
X131080241Y-97790363D01*
X130880363Y-97990241D01*
X130723320Y-98225273D01*
X130615147Y-98486426D01*
X130560000Y-98763665D01*
X130560000Y-99046335D01*
X130615147Y-99323574D01*
X130723320Y-99584727D01*
X130880363Y-99819759D01*
X131080241Y-100019637D01*
X131312759Y-100175000D01*
X131080241Y-100330363D01*
X130880363Y-100530241D01*
X130723320Y-100765273D01*
X130615147Y-101026426D01*
X130560000Y-101303665D01*
X130560000Y-101586335D01*
X130604491Y-101810001D01*
X129486173Y-101810001D01*
X126070174Y-98394003D01*
X126046371Y-98364999D01*
X125930646Y-98270026D01*
X125798617Y-98199454D01*
X125655356Y-98155997D01*
X125596519Y-98150202D01*
X125489637Y-97990241D01*
X125289759Y-97790363D01*
X125057241Y-97635000D01*
X125289759Y-97479637D01*
X125489637Y-97279759D01*
X125646680Y-97044727D01*
X125754853Y-96783574D01*
X125810000Y-96506335D01*
X125810000Y-96223665D01*
X125754853Y-95946426D01*
X125646680Y-95685273D01*
X125489637Y-95450241D01*
X125291039Y-95251643D01*
X125299482Y-95250812D01*
X125419180Y-95214502D01*
X125529494Y-95155537D01*
X125626185Y-95076185D01*
X125705537Y-94979494D01*
X125764502Y-94869180D01*
X125800812Y-94749482D01*
X125813072Y-94625000D01*
X125813072Y-93025000D01*
X125800812Y-92900518D01*
X125764502Y-92780820D01*
X125753373Y-92760000D01*
X131030604Y-92760000D01*
X130880363Y-92910241D01*
G37*
X130880363Y-92910241D02*
X130723320Y-93145273D01*
X130615147Y-93406426D01*
X130560000Y-93683665D01*
X130560000Y-93966335D01*
X130615147Y-94243574D01*
X130723320Y-94504727D01*
X130880363Y-94739759D01*
X131080241Y-94939637D01*
X131312759Y-95095000D01*
X131080241Y-95250363D01*
X130880363Y-95450241D01*
X130723320Y-95685273D01*
X130615147Y-95946426D01*
X130560000Y-96223665D01*
X130560000Y-96506335D01*
X130615147Y-96783574D01*
X130723320Y-97044727D01*
X130880363Y-97279759D01*
X131080241Y-97479637D01*
X131312759Y-97635000D01*
X131080241Y-97790363D01*
X130880363Y-97990241D01*
X130723320Y-98225273D01*
X130615147Y-98486426D01*
X130560000Y-98763665D01*
X130560000Y-99046335D01*
X130615147Y-99323574D01*
X130723320Y-99584727D01*
X130880363Y-99819759D01*
X131080241Y-100019637D01*
X131312759Y-100175000D01*
X131080241Y-100330363D01*
X130880363Y-100530241D01*
X130723320Y-100765273D01*
X130615147Y-101026426D01*
X130560000Y-101303665D01*
X130560000Y-101586335D01*
X130604491Y-101810001D01*
X129486173Y-101810001D01*
X126070174Y-98394003D01*
X126046371Y-98364999D01*
X125930646Y-98270026D01*
X125798617Y-98199454D01*
X125655356Y-98155997D01*
X125596519Y-98150202D01*
X125489637Y-97990241D01*
X125289759Y-97790363D01*
X125057241Y-97635000D01*
X125289759Y-97479637D01*
X125489637Y-97279759D01*
X125646680Y-97044727D01*
X125754853Y-96783574D01*
X125810000Y-96506335D01*
X125810000Y-96223665D01*
X125754853Y-95946426D01*
X125646680Y-95685273D01*
X125489637Y-95450241D01*
X125291039Y-95251643D01*
X125299482Y-95250812D01*
X125419180Y-95214502D01*
X125529494Y-95155537D01*
X125626185Y-95076185D01*
X125705537Y-94979494D01*
X125764502Y-94869180D01*
X125800812Y-94749482D01*
X125813072Y-94625000D01*
X125813072Y-93025000D01*
X125800812Y-92900518D01*
X125764502Y-92780820D01*
X125753373Y-92760000D01*
X131030604Y-92760000D01*
X130880363Y-92910241D01*
M02*
