M48
; DRILL file {KiCad 5.1.5+dfsg1-2build2} date Thu 18 Nov 2021 10:50:27 PM EST
; FORMAT={-:-/ absolute / inch / decimal}
; #@! TF.CreationDate,2021-11-18T22:50:27-05:00
; #@! TF.GenerationSoftware,Kicad,Pcbnew,5.1.5+dfsg1-2build2
FMAT,2
INCH
T1C0.0157
T2C0.0315
%
G90
G05
T1
X4.5663Y-4.2315
X4.5948Y-5.0126
X4.6047Y-4.1677
X4.6059Y-5.1579
X4.6089Y-4.6054
X4.6217Y-4.5631
X4.6453Y-4.8112
X4.6571Y-4.6399
X4.676Y-4.222
X4.6819Y-4.9313
X4.7127Y-4.8978
X4.7144Y-4.6002
X4.7202Y-4.7972
X4.7449Y-5.0839
X4.7699Y-4.9769
X4.7717Y-4.5945
X4.7756Y-4.4213
X4.7805Y-5.1165
X4.7815Y-4.2161
X4.7855Y-4.7871
X4.7909Y-4.115
X4.8209Y-4.6356
X4.8238Y-4.2965
X4.8272Y-4.2154
X4.8299Y-4.9556
X4.8553Y-4.5549
X4.888Y-4.9513
X4.9058Y-4.772
X4.9274Y-4.955
X4.9433Y-4.7141
X4.952Y-4.2496
X4.9543Y-4.0898
X4.9553Y-4.4411
X4.9683Y-4.9949
X4.999Y-4.9699
X5.0011Y-4.5684
X5.0087Y-4.6467
X5.0223Y-4.4445
X5.0313Y-4.3155
X5.0433Y-4.9809
X5.0433Y-5.124
X5.0453Y-3.6661
X5.0548Y-4.5207
X5.0563Y-3.9
X5.0591Y-4.4291
X5.0727Y-4.7417
X5.1134Y-3.9988
X5.1145Y-4.9384
X5.124Y-4.7963
X5.1272Y-4.0685
X5.1362Y-4.1815
X5.1433Y-4.5587
X5.1488Y-4.35
X5.1792Y-5.1687
X5.1984Y-4.6945
X5.2496Y-4.1175
X5.2547Y-5.1496
X5.2682Y-4.9729
X5.3283Y-4.321
X5.3488Y-4.2031
X5.3531Y-4.0248
T2
X4.8967Y-3.6939
X4.8967Y-3.7939
X4.8967Y-3.8939
X4.8967Y-3.9939
X4.8967Y-4.0939
X4.8967Y-4.1939
X4.8967Y-4.2939
X4.8967Y-4.3939
X4.8967Y-4.4939
X4.8967Y-4.5939
X5.1967Y-3.6939
X5.1967Y-3.7939
X5.1967Y-3.8939
X5.1967Y-3.9939
X5.1967Y-4.0939
X5.1967Y-4.1939
X5.1967Y-4.2939
X5.1967Y-4.3939
X5.1967Y-4.4939
X5.1967Y-4.5939
T0
M30
