G04 #@! TF.GenerationSoftware,KiCad,Pcbnew,5.1.5+dfsg1-2build2*
G04 #@! TF.CreationDate,2021-11-18T22:50:20-05:00*
G04 #@! TF.ProjectId,color_computer_dac,636f6c6f-725f-4636-9f6d-70757465725f,1.1.0*
G04 #@! TF.SameCoordinates,Original*
G04 #@! TF.FileFunction,Legend,Top*
G04 #@! TF.FilePolarity,Positive*
%FSLAX46Y46*%
G04 Gerber Fmt 4.6, Leading zero omitted, Abs format (unit mm)*
G04 Created by KiCad (PCBNEW 5.1.5+dfsg1-2build2) date 2021-11-18 22:50:20*
%MOMM*%
%LPD*%
G04 APERTURE LIST*
%ADD10C,0.150000*%
%ADD11C,0.100000*%
%ADD12C,0.120000*%
%ADD13C,0.130000*%
G04 APERTURE END LIST*
D10*
X114962857Y-125968571D02*
X115391428Y-125668571D01*
X114962857Y-125454285D02*
X115862857Y-125454285D01*
X115862857Y-125797142D01*
X115820000Y-125882857D01*
X115777142Y-125925714D01*
X115691428Y-125968571D01*
X115562857Y-125968571D01*
X115477142Y-125925714D01*
X115434285Y-125882857D01*
X115391428Y-125797142D01*
X115391428Y-125454285D01*
X114962857Y-126482857D02*
X115005714Y-126397142D01*
X115048571Y-126354285D01*
X115134285Y-126311428D01*
X115391428Y-126311428D01*
X115477142Y-126354285D01*
X115520000Y-126397142D01*
X115562857Y-126482857D01*
X115562857Y-126611428D01*
X115520000Y-126697142D01*
X115477142Y-126740000D01*
X115391428Y-126782857D01*
X115134285Y-126782857D01*
X115048571Y-126740000D01*
X115005714Y-126697142D01*
X114962857Y-126611428D01*
X114962857Y-126482857D01*
X115005714Y-127554285D02*
X114962857Y-127468571D01*
X114962857Y-127297142D01*
X115005714Y-127211428D01*
X115048571Y-127168571D01*
X115134285Y-127125714D01*
X115391428Y-127125714D01*
X115477142Y-127168571D01*
X115520000Y-127211428D01*
X115562857Y-127297142D01*
X115562857Y-127468571D01*
X115520000Y-127554285D01*
X114962857Y-127940000D02*
X115862857Y-127940000D01*
X115305714Y-128025714D02*
X114962857Y-128282857D01*
X115562857Y-128282857D02*
X115220000Y-127940000D01*
X115562857Y-128582857D02*
X114962857Y-128797142D01*
X115562857Y-129011428D02*
X114962857Y-128797142D01*
X114748571Y-128711428D01*
X114705714Y-128668571D01*
X114662857Y-128582857D01*
X114962857Y-130040000D02*
X115862857Y-130040000D01*
X115434285Y-130040000D02*
X115434285Y-130554285D01*
X114962857Y-130554285D02*
X115862857Y-130554285D01*
X114962857Y-130982857D02*
X115562857Y-130982857D01*
X115862857Y-130982857D02*
X115820000Y-130940000D01*
X115777142Y-130982857D01*
X115820000Y-131025714D01*
X115862857Y-130982857D01*
X115777142Y-130982857D01*
X114962857Y-131540000D02*
X115005714Y-131454285D01*
X115091428Y-131411428D01*
X115862857Y-131411428D01*
X114962857Y-132011428D02*
X115005714Y-131925714D01*
X115091428Y-131882857D01*
X115862857Y-131882857D01*
X114847619Y-110767619D02*
X115847619Y-110767619D01*
X115847619Y-111005714D01*
X115800000Y-111148571D01*
X115704761Y-111243809D01*
X115609523Y-111291428D01*
X115419047Y-111339047D01*
X115276190Y-111339047D01*
X115085714Y-111291428D01*
X114990476Y-111243809D01*
X114895238Y-111148571D01*
X114847619Y-111005714D01*
X114847619Y-110767619D01*
X115133333Y-111720000D02*
X115133333Y-112196190D01*
X114847619Y-111624761D02*
X115847619Y-111958095D01*
X114847619Y-112291428D01*
X114847619Y-112624761D02*
X115847619Y-112624761D01*
X114752380Y-113767619D02*
X114800000Y-113672380D01*
X114895238Y-113577142D01*
X115038095Y-113434285D01*
X115085714Y-113339047D01*
X115085714Y-113243809D01*
X114847619Y-113291428D02*
X114895238Y-113196190D01*
X114990476Y-113100952D01*
X115180952Y-113053333D01*
X115514285Y-113053333D01*
X115704761Y-113100952D01*
X115800000Y-113196190D01*
X115847619Y-113291428D01*
X115847619Y-113481904D01*
X115800000Y-113577142D01*
X115704761Y-113672380D01*
X115514285Y-113720000D01*
X115180952Y-113720000D01*
X114990476Y-113672380D01*
X114895238Y-113577142D01*
X114847619Y-113481904D01*
X114847619Y-113291428D01*
X115847619Y-114148571D02*
X115038095Y-114148571D01*
X114942857Y-114196190D01*
X114895238Y-114243809D01*
X114847619Y-114339047D01*
X114847619Y-114529523D01*
X114895238Y-114624761D01*
X114942857Y-114672380D01*
X115038095Y-114720000D01*
X115847619Y-114720000D01*
X114847619Y-115196190D02*
X115847619Y-115196190D01*
X114847619Y-116243809D02*
X115323809Y-115910476D01*
X114847619Y-115672380D02*
X115847619Y-115672380D01*
X115847619Y-116053333D01*
X115800000Y-116148571D01*
X115752380Y-116196190D01*
X115657142Y-116243809D01*
X115514285Y-116243809D01*
X115419047Y-116196190D01*
X115371428Y-116148571D01*
X115323809Y-116053333D01*
X115323809Y-115672380D01*
X114847619Y-116672380D02*
X115847619Y-116672380D01*
X116228571Y-116767619D02*
X116085714Y-116624761D01*
D11*
X127370000Y-114435000D02*
X127370000Y-113185000D01*
X127370000Y-113185000D02*
X129370000Y-113185000D01*
X129370000Y-113185000D02*
X129370000Y-114435000D01*
X129370000Y-114435000D02*
X127370000Y-114435000D01*
D12*
X128108748Y-113075000D02*
X128631252Y-113075000D01*
X128108748Y-114545000D02*
X128631252Y-114545000D01*
X129185000Y-92495000D02*
G75*
G02X127185000Y-92495000I-1000000J0D01*
G01*
D11*
X126010000Y-92555000D02*
X131360000Y-92555000D01*
X131360000Y-92555000D02*
X131360000Y-117955000D01*
X131360000Y-117955000D02*
X125010000Y-117955000D01*
X125010000Y-117955000D02*
X125010000Y-93555000D01*
X125010000Y-93555000D02*
X126010000Y-92555000D01*
X123105000Y-92495000D02*
X123105000Y-118015000D01*
X123105000Y-118015000D02*
X133265000Y-118015000D01*
X133265000Y-118015000D02*
X133265000Y-92495000D01*
X133265000Y-92495000D02*
X123105000Y-92495000D01*
D12*
X127185000Y-92495000D02*
X125535000Y-92495000D01*
X125535000Y-92495000D02*
X125535000Y-118015000D01*
X125535000Y-118015000D02*
X130835000Y-118015000D01*
X130835000Y-118015000D02*
X130835000Y-92495000D01*
X130835000Y-92495000D02*
X129185000Y-92495000D01*
X123045000Y-92435000D02*
X123045000Y-118075000D01*
X123045000Y-118075000D02*
X133325000Y-118075000D01*
X133325000Y-118075000D02*
X133325000Y-92435000D01*
X133325000Y-92435000D02*
X123045000Y-92435000D01*
D11*
X120972500Y-120700000D02*
X120147500Y-120700000D01*
X120147500Y-120700000D02*
X120147500Y-119100000D01*
X120147500Y-119100000D02*
X120972500Y-119100000D01*
X120972500Y-119100000D02*
X120972500Y-120700000D01*
D12*
X120037500Y-120154724D02*
X120037500Y-119645276D01*
X121082500Y-120154724D02*
X121082500Y-119645276D01*
X134447064Y-120655000D02*
X133992936Y-120655000D01*
X134447064Y-122125000D02*
X133992936Y-122125000D01*
D11*
X133220000Y-120765000D02*
X135220000Y-120765000D01*
X133220000Y-122015000D02*
X133220000Y-120765000D01*
X135220000Y-122015000D02*
X133220000Y-122015000D01*
X135220000Y-120765000D02*
X135220000Y-122015000D01*
D12*
X127982500Y-120684724D02*
X127982500Y-120175276D01*
X126937500Y-120684724D02*
X126937500Y-120175276D01*
D11*
X127872500Y-119630000D02*
X127872500Y-121230000D01*
X127047500Y-119630000D02*
X127872500Y-119630000D01*
X127047500Y-121230000D02*
X127047500Y-119630000D01*
X127872500Y-121230000D02*
X127047500Y-121230000D01*
X120465000Y-122940000D02*
X121715000Y-122940000D01*
X121715000Y-122940000D02*
X121715000Y-124940000D01*
X121715000Y-124940000D02*
X120465000Y-124940000D01*
X120465000Y-124940000D02*
X120465000Y-122940000D01*
D12*
X121825000Y-123712936D02*
X121825000Y-124167064D01*
X120355000Y-123712936D02*
X120355000Y-124167064D01*
X128307064Y-131115000D02*
X127852936Y-131115000D01*
X128307064Y-132585000D02*
X127852936Y-132585000D01*
D11*
X127080000Y-131225000D02*
X129080000Y-131225000D01*
X127080000Y-132475000D02*
X127080000Y-131225000D01*
X129080000Y-132475000D02*
X127080000Y-132475000D01*
X129080000Y-131225000D02*
X129080000Y-132475000D01*
X121170000Y-132152500D02*
X121170000Y-131327500D01*
X121170000Y-131327500D02*
X122770000Y-131327500D01*
X122770000Y-131327500D02*
X122770000Y-132152500D01*
X122770000Y-132152500D02*
X121170000Y-132152500D01*
D12*
X121715276Y-131217500D02*
X122224724Y-131217500D01*
X121715276Y-132262500D02*
X122224724Y-132262500D01*
X116822936Y-120075000D02*
X117277064Y-120075000D01*
X116822936Y-118605000D02*
X117277064Y-118605000D01*
D11*
X118050000Y-119965000D02*
X116050000Y-119965000D01*
X118050000Y-118715000D02*
X118050000Y-119965000D01*
X116050000Y-118715000D02*
X118050000Y-118715000D01*
X116050000Y-119965000D02*
X116050000Y-118715000D01*
D12*
X117695000Y-127912936D02*
X117695000Y-128367064D01*
X119165000Y-127912936D02*
X119165000Y-128367064D01*
D11*
X117805000Y-129140000D02*
X117805000Y-127140000D01*
X119055000Y-129140000D02*
X117805000Y-129140000D01*
X119055000Y-127140000D02*
X119055000Y-129140000D01*
X117805000Y-127140000D02*
X119055000Y-127140000D01*
X134995000Y-129800000D02*
X136245000Y-129800000D01*
X136245000Y-129800000D02*
X136245000Y-131800000D01*
X136245000Y-131800000D02*
X134995000Y-131800000D01*
X134995000Y-131800000D02*
X134995000Y-129800000D01*
D12*
X136355000Y-130572936D02*
X136355000Y-131027064D01*
X134885000Y-130572936D02*
X134885000Y-131027064D01*
D11*
X120190000Y-104695000D02*
X120190000Y-105945000D01*
X120190000Y-105945000D02*
X118190000Y-105945000D01*
X118190000Y-105945000D02*
X118190000Y-104695000D01*
X118190000Y-104695000D02*
X120190000Y-104695000D01*
D12*
X119417064Y-106055000D02*
X118962936Y-106055000D01*
X119417064Y-104585000D02*
X118962936Y-104585000D01*
D11*
X135965000Y-112970000D02*
X134715000Y-112970000D01*
X134715000Y-112970000D02*
X134715000Y-110970000D01*
X134715000Y-110970000D02*
X135965000Y-110970000D01*
X135965000Y-110970000D02*
X135965000Y-112970000D01*
D12*
X134605000Y-112197064D02*
X134605000Y-111742936D01*
X136075000Y-112197064D02*
X136075000Y-111742936D01*
D11*
X115970000Y-124805000D02*
X115970000Y-123555000D01*
X115970000Y-123555000D02*
X117970000Y-123555000D01*
X117970000Y-123555000D02*
X117970000Y-124805000D01*
X117970000Y-124805000D02*
X115970000Y-124805000D01*
D12*
X116742936Y-123445000D02*
X117197064Y-123445000D01*
X116742936Y-124915000D02*
X117197064Y-124915000D01*
X116035000Y-111640000D02*
X116035000Y-113840000D01*
X116035000Y-111640000D02*
X116035000Y-109440000D01*
X121505000Y-111640000D02*
X121505000Y-113840000D01*
X121505000Y-111640000D02*
X121505000Y-107990000D01*
D11*
X121270000Y-110440000D02*
X121270000Y-113840000D01*
X121270000Y-113840000D02*
X116270000Y-113840000D01*
X116270000Y-113840000D02*
X116270000Y-109440000D01*
X116270000Y-109440000D02*
X120270000Y-109440000D01*
X120270000Y-109440000D02*
X121270000Y-110440000D01*
D12*
X123040000Y-126200000D02*
X123040000Y-128150000D01*
X123040000Y-126200000D02*
X123040000Y-124250000D01*
X133160000Y-126200000D02*
X133160000Y-128150000D01*
X133160000Y-126200000D02*
X133160000Y-122750000D01*
D11*
X133050000Y-125225000D02*
X133050000Y-128150000D01*
X133050000Y-128150000D02*
X123150000Y-128150000D01*
X123150000Y-128150000D02*
X123150000Y-124250000D01*
X123150000Y-124250000D02*
X132075000Y-124250000D01*
X132075000Y-124250000D02*
X133050000Y-125225000D01*
D12*
X129690000Y-104390000D02*
X129690000Y-102190000D01*
X129690000Y-104390000D02*
X129690000Y-106590000D01*
X126470000Y-104390000D02*
X126470000Y-102190000D01*
X126470000Y-104390000D02*
X126470000Y-107990000D01*
D11*
X126580000Y-105840000D02*
X126580000Y-102190000D01*
X126580000Y-102190000D02*
X129580000Y-102190000D01*
X129580000Y-102190000D02*
X129580000Y-106590000D01*
X129580000Y-106590000D02*
X127330000Y-106590000D01*
X127330000Y-106590000D02*
X126580000Y-105840000D01*
D12*
X127230000Y-96980000D02*
X129030000Y-96980000D01*
X129030000Y-93760000D02*
X126580000Y-93760000D01*
D10*
X127983333Y-115917142D02*
X127935714Y-115964761D01*
X127792857Y-116012380D01*
X127697619Y-116012380D01*
X127554761Y-115964761D01*
X127459523Y-115869523D01*
X127411904Y-115774285D01*
X127364285Y-115583809D01*
X127364285Y-115440952D01*
X127411904Y-115250476D01*
X127459523Y-115155238D01*
X127554761Y-115060000D01*
X127697619Y-115012380D01*
X127792857Y-115012380D01*
X127935714Y-115060000D01*
X127983333Y-115107619D01*
X128935714Y-116012380D02*
X128364285Y-116012380D01*
X128650000Y-116012380D02*
X128650000Y-115012380D01*
X128554761Y-115155238D01*
X128459523Y-115250476D01*
X128364285Y-115298095D01*
X126667142Y-116537619D02*
X126714761Y-116490000D01*
X126810000Y-116442380D01*
X127048095Y-116442380D01*
X127143333Y-116490000D01*
X127190952Y-116537619D01*
X127238571Y-116632857D01*
X127238571Y-116728095D01*
X127190952Y-116870952D01*
X126619523Y-117442380D01*
X127238571Y-117442380D01*
X127857619Y-116442380D02*
X127952857Y-116442380D01*
X128048095Y-116490000D01*
X128095714Y-116537619D01*
X128143333Y-116632857D01*
X128190952Y-116823333D01*
X128190952Y-117061428D01*
X128143333Y-117251904D01*
X128095714Y-117347142D01*
X128048095Y-117394761D01*
X127952857Y-117442380D01*
X127857619Y-117442380D01*
X127762380Y-117394761D01*
X127714761Y-117347142D01*
X127667142Y-117251904D01*
X127619523Y-117061428D01*
X127619523Y-116823333D01*
X127667142Y-116632857D01*
X127714761Y-116537619D01*
X127762380Y-116490000D01*
X127857619Y-116442380D01*
X128619523Y-116775714D02*
X128619523Y-117775714D01*
X128619523Y-116823333D02*
X128714761Y-116775714D01*
X128905238Y-116775714D01*
X129000476Y-116823333D01*
X129048095Y-116870952D01*
X129095714Y-116966190D01*
X129095714Y-117251904D01*
X129048095Y-117347142D01*
X129000476Y-117394761D01*
X128905238Y-117442380D01*
X128714761Y-117442380D01*
X128619523Y-117394761D01*
X129857619Y-116918571D02*
X129524285Y-116918571D01*
X129524285Y-117442380D02*
X129524285Y-116442380D01*
X130000476Y-116442380D01*
X121072380Y-117406666D02*
X120596190Y-117740000D01*
X121072380Y-117978095D02*
X120072380Y-117978095D01*
X120072380Y-117597142D01*
X120120000Y-117501904D01*
X120167619Y-117454285D01*
X120262857Y-117406666D01*
X120405714Y-117406666D01*
X120500952Y-117454285D01*
X120548571Y-117501904D01*
X120596190Y-117597142D01*
X120596190Y-117978095D01*
X121072380Y-116454285D02*
X121072380Y-117025714D01*
X121072380Y-116740000D02*
X120072380Y-116740000D01*
X120215238Y-116835238D01*
X120310476Y-116930476D01*
X120358095Y-117025714D01*
X122582380Y-119986666D02*
X122582380Y-120558095D01*
X122582380Y-120272380D02*
X121582380Y-120272380D01*
X121725238Y-120367619D01*
X121820476Y-120462857D01*
X121868095Y-120558095D01*
X121582380Y-119367619D02*
X121582380Y-119272380D01*
X121630000Y-119177142D01*
X121677619Y-119129523D01*
X121772857Y-119081904D01*
X121963333Y-119034285D01*
X122201428Y-119034285D01*
X122391904Y-119081904D01*
X122487142Y-119129523D01*
X122534761Y-119177142D01*
X122582380Y-119272380D01*
X122582380Y-119367619D01*
X122534761Y-119462857D01*
X122487142Y-119510476D01*
X122391904Y-119558095D01*
X122201428Y-119605714D01*
X121963333Y-119605714D01*
X121772857Y-119558095D01*
X121677619Y-119510476D01*
X121630000Y-119462857D01*
X121582380Y-119367619D01*
X121582380Y-118415238D02*
X121582380Y-118320000D01*
X121630000Y-118224761D01*
X121677619Y-118177142D01*
X121772857Y-118129523D01*
X121963333Y-118081904D01*
X122201428Y-118081904D01*
X122391904Y-118129523D01*
X122487142Y-118177142D01*
X122534761Y-118224761D01*
X122582380Y-118320000D01*
X122582380Y-118415238D01*
X122534761Y-118510476D01*
X122487142Y-118558095D01*
X122391904Y-118605714D01*
X122201428Y-118653333D01*
X121963333Y-118653333D01*
X121772857Y-118605714D01*
X121677619Y-118558095D01*
X121630000Y-118510476D01*
X121582380Y-118415238D01*
X122582380Y-117653333D02*
X121582380Y-117653333D01*
X122582380Y-117081904D02*
X122010952Y-117510476D01*
X121582380Y-117081904D02*
X122153809Y-117653333D01*
X135173333Y-123652380D02*
X134840000Y-123176190D01*
X134601904Y-123652380D02*
X134601904Y-122652380D01*
X134982857Y-122652380D01*
X135078095Y-122700000D01*
X135125714Y-122747619D01*
X135173333Y-122842857D01*
X135173333Y-122985714D01*
X135125714Y-123080952D01*
X135078095Y-123128571D01*
X134982857Y-123176190D01*
X134601904Y-123176190D01*
X135554285Y-122747619D02*
X135601904Y-122700000D01*
X135697142Y-122652380D01*
X135935238Y-122652380D01*
X136030476Y-122700000D01*
X136078095Y-122747619D01*
X136125714Y-122842857D01*
X136125714Y-122938095D01*
X136078095Y-123080952D01*
X135506666Y-123652380D01*
X136125714Y-123652380D01*
X131724285Y-119102380D02*
X132343333Y-119102380D01*
X132010000Y-119483333D01*
X132152857Y-119483333D01*
X132248095Y-119530952D01*
X132295714Y-119578571D01*
X132343333Y-119673809D01*
X132343333Y-119911904D01*
X132295714Y-120007142D01*
X132248095Y-120054761D01*
X132152857Y-120102380D01*
X131867142Y-120102380D01*
X131771904Y-120054761D01*
X131724285Y-120007142D01*
X132676666Y-119102380D02*
X133295714Y-119102380D01*
X132962380Y-119483333D01*
X133105238Y-119483333D01*
X133200476Y-119530952D01*
X133248095Y-119578571D01*
X133295714Y-119673809D01*
X133295714Y-119911904D01*
X133248095Y-120007142D01*
X133200476Y-120054761D01*
X133105238Y-120102380D01*
X132819523Y-120102380D01*
X132724285Y-120054761D01*
X132676666Y-120007142D01*
X133914761Y-119102380D02*
X134010000Y-119102380D01*
X134105238Y-119150000D01*
X134152857Y-119197619D01*
X134200476Y-119292857D01*
X134248095Y-119483333D01*
X134248095Y-119721428D01*
X134200476Y-119911904D01*
X134152857Y-120007142D01*
X134105238Y-120054761D01*
X134010000Y-120102380D01*
X133914761Y-120102380D01*
X133819523Y-120054761D01*
X133771904Y-120007142D01*
X133724285Y-119911904D01*
X133676666Y-119721428D01*
X133676666Y-119483333D01*
X133724285Y-119292857D01*
X133771904Y-119197619D01*
X133819523Y-119150000D01*
X133914761Y-119102380D01*
X134676666Y-120102380D02*
X134676666Y-119102380D01*
X135248095Y-120102380D02*
X134819523Y-119530952D01*
X135248095Y-119102380D02*
X134676666Y-119673809D01*
X126482380Y-120596666D02*
X126006190Y-120930000D01*
X126482380Y-121168095D02*
X125482380Y-121168095D01*
X125482380Y-120787142D01*
X125530000Y-120691904D01*
X125577619Y-120644285D01*
X125672857Y-120596666D01*
X125815714Y-120596666D01*
X125910952Y-120644285D01*
X125958571Y-120691904D01*
X126006190Y-120787142D01*
X126006190Y-121168095D01*
X125482380Y-120263333D02*
X125482380Y-119644285D01*
X125863333Y-119977619D01*
X125863333Y-119834761D01*
X125910952Y-119739523D01*
X125958571Y-119691904D01*
X126053809Y-119644285D01*
X126291904Y-119644285D01*
X126387142Y-119691904D01*
X126434761Y-119739523D01*
X126482380Y-119834761D01*
X126482380Y-120120476D01*
X126434761Y-120215714D01*
X126387142Y-120263333D01*
X129342380Y-121596666D02*
X129342380Y-122168095D01*
X129342380Y-121882380D02*
X128342380Y-121882380D01*
X128485238Y-121977619D01*
X128580476Y-122072857D01*
X128628095Y-122168095D01*
X128342380Y-120739523D02*
X128342380Y-120930000D01*
X128390000Y-121025238D01*
X128437619Y-121072857D01*
X128580476Y-121168095D01*
X128770952Y-121215714D01*
X129151904Y-121215714D01*
X129247142Y-121168095D01*
X129294761Y-121120476D01*
X129342380Y-121025238D01*
X129342380Y-120834761D01*
X129294761Y-120739523D01*
X129247142Y-120691904D01*
X129151904Y-120644285D01*
X128913809Y-120644285D01*
X128818571Y-120691904D01*
X128770952Y-120739523D01*
X128723333Y-120834761D01*
X128723333Y-121025238D01*
X128770952Y-121120476D01*
X128818571Y-121168095D01*
X128913809Y-121215714D01*
X128342380Y-120025238D02*
X128342380Y-119930000D01*
X128390000Y-119834761D01*
X128437619Y-119787142D01*
X128532857Y-119739523D01*
X128723333Y-119691904D01*
X128961428Y-119691904D01*
X129151904Y-119739523D01*
X129247142Y-119787142D01*
X129294761Y-119834761D01*
X129342380Y-119930000D01*
X129342380Y-120025238D01*
X129294761Y-120120476D01*
X129247142Y-120168095D01*
X129151904Y-120215714D01*
X128961428Y-120263333D01*
X128723333Y-120263333D01*
X128532857Y-120215714D01*
X128437619Y-120168095D01*
X128390000Y-120120476D01*
X128342380Y-120025238D01*
X129342380Y-119263333D02*
X128342380Y-119263333D01*
X129342380Y-118691904D02*
X128770952Y-119120476D01*
X128342380Y-118691904D02*
X128913809Y-119263333D01*
X122332380Y-126966666D02*
X121856190Y-127300000D01*
X122332380Y-127538095D02*
X121332380Y-127538095D01*
X121332380Y-127157142D01*
X121380000Y-127061904D01*
X121427619Y-127014285D01*
X121522857Y-126966666D01*
X121665714Y-126966666D01*
X121760952Y-127014285D01*
X121808571Y-127061904D01*
X121856190Y-127157142D01*
X121856190Y-127538095D01*
X121665714Y-126109523D02*
X122332380Y-126109523D01*
X121284761Y-126347619D02*
X121999047Y-126585714D01*
X121999047Y-125966666D01*
X119410952Y-124971428D02*
X119363333Y-125066666D01*
X119315714Y-125114285D01*
X119220476Y-125161904D01*
X119172857Y-125161904D01*
X119077619Y-125114285D01*
X119030000Y-125066666D01*
X118982380Y-124971428D01*
X118982380Y-124780952D01*
X119030000Y-124685714D01*
X119077619Y-124638095D01*
X119172857Y-124590476D01*
X119220476Y-124590476D01*
X119315714Y-124638095D01*
X119363333Y-124685714D01*
X119410952Y-124780952D01*
X119410952Y-124971428D01*
X119458571Y-125066666D01*
X119506190Y-125114285D01*
X119601428Y-125161904D01*
X119791904Y-125161904D01*
X119887142Y-125114285D01*
X119934761Y-125066666D01*
X119982380Y-124971428D01*
X119982380Y-124780952D01*
X119934761Y-124685714D01*
X119887142Y-124638095D01*
X119791904Y-124590476D01*
X119601428Y-124590476D01*
X119506190Y-124638095D01*
X119458571Y-124685714D01*
X119410952Y-124780952D01*
X119077619Y-124209523D02*
X119030000Y-124161904D01*
X118982380Y-124066666D01*
X118982380Y-123828571D01*
X119030000Y-123733333D01*
X119077619Y-123685714D01*
X119172857Y-123638095D01*
X119268095Y-123638095D01*
X119410952Y-123685714D01*
X119982380Y-124257142D01*
X119982380Y-123638095D01*
X119982380Y-123209523D02*
X118982380Y-123209523D01*
X119982380Y-122638095D02*
X119410952Y-123066666D01*
X118982380Y-122638095D02*
X119553809Y-123209523D01*
X124923333Y-132382380D02*
X124590000Y-131906190D01*
X124351904Y-132382380D02*
X124351904Y-131382380D01*
X124732857Y-131382380D01*
X124828095Y-131430000D01*
X124875714Y-131477619D01*
X124923333Y-131572857D01*
X124923333Y-131715714D01*
X124875714Y-131810952D01*
X124828095Y-131858571D01*
X124732857Y-131906190D01*
X124351904Y-131906190D01*
X125828095Y-131382380D02*
X125351904Y-131382380D01*
X125304285Y-131858571D01*
X125351904Y-131810952D01*
X125447142Y-131763333D01*
X125685238Y-131763333D01*
X125780476Y-131810952D01*
X125828095Y-131858571D01*
X125875714Y-131953809D01*
X125875714Y-132191904D01*
X125828095Y-132287142D01*
X125780476Y-132334761D01*
X125685238Y-132382380D01*
X125447142Y-132382380D01*
X125351904Y-132334761D01*
X125304285Y-132287142D01*
X130448571Y-132100952D02*
X130353333Y-132053333D01*
X130305714Y-132005714D01*
X130258095Y-131910476D01*
X130258095Y-131862857D01*
X130305714Y-131767619D01*
X130353333Y-131720000D01*
X130448571Y-131672380D01*
X130639047Y-131672380D01*
X130734285Y-131720000D01*
X130781904Y-131767619D01*
X130829523Y-131862857D01*
X130829523Y-131910476D01*
X130781904Y-132005714D01*
X130734285Y-132053333D01*
X130639047Y-132100952D01*
X130448571Y-132100952D01*
X130353333Y-132148571D01*
X130305714Y-132196190D01*
X130258095Y-132291428D01*
X130258095Y-132481904D01*
X130305714Y-132577142D01*
X130353333Y-132624761D01*
X130448571Y-132672380D01*
X130639047Y-132672380D01*
X130734285Y-132624761D01*
X130781904Y-132577142D01*
X130829523Y-132481904D01*
X130829523Y-132291428D01*
X130781904Y-132196190D01*
X130734285Y-132148571D01*
X130639047Y-132100952D01*
X131210476Y-131767619D02*
X131258095Y-131720000D01*
X131353333Y-131672380D01*
X131591428Y-131672380D01*
X131686666Y-131720000D01*
X131734285Y-131767619D01*
X131781904Y-131862857D01*
X131781904Y-131958095D01*
X131734285Y-132100952D01*
X131162857Y-132672380D01*
X131781904Y-132672380D01*
X132210476Y-132672380D02*
X132210476Y-131672380D01*
X132781904Y-132672380D02*
X132353333Y-132100952D01*
X132781904Y-131672380D02*
X132210476Y-132243809D01*
X120323333Y-130802380D02*
X119990000Y-130326190D01*
X119751904Y-130802380D02*
X119751904Y-129802380D01*
X120132857Y-129802380D01*
X120228095Y-129850000D01*
X120275714Y-129897619D01*
X120323333Y-129992857D01*
X120323333Y-130135714D01*
X120275714Y-130230952D01*
X120228095Y-130278571D01*
X120132857Y-130326190D01*
X119751904Y-130326190D01*
X121180476Y-129802380D02*
X120990000Y-129802380D01*
X120894761Y-129850000D01*
X120847142Y-129897619D01*
X120751904Y-130040476D01*
X120704285Y-130230952D01*
X120704285Y-130611904D01*
X120751904Y-130707142D01*
X120799523Y-130754761D01*
X120894761Y-130802380D01*
X121085238Y-130802380D01*
X121180476Y-130754761D01*
X121228095Y-130707142D01*
X121275714Y-130611904D01*
X121275714Y-130373809D01*
X121228095Y-130278571D01*
X121180476Y-130230952D01*
X121085238Y-130183333D01*
X120894761Y-130183333D01*
X120799523Y-130230952D01*
X120751904Y-130278571D01*
X120704285Y-130373809D01*
X116530000Y-131775714D02*
X116530000Y-132442380D01*
X116291904Y-131394761D02*
X116053809Y-132109047D01*
X116672857Y-132109047D01*
X117244285Y-131442380D02*
X117339523Y-131442380D01*
X117434761Y-131490000D01*
X117482380Y-131537619D01*
X117530000Y-131632857D01*
X117577619Y-131823333D01*
X117577619Y-132061428D01*
X117530000Y-132251904D01*
X117482380Y-132347142D01*
X117434761Y-132394761D01*
X117339523Y-132442380D01*
X117244285Y-132442380D01*
X117149047Y-132394761D01*
X117101428Y-132347142D01*
X117053809Y-132251904D01*
X117006190Y-132061428D01*
X117006190Y-131823333D01*
X117053809Y-131632857D01*
X117101428Y-131537619D01*
X117149047Y-131490000D01*
X117244285Y-131442380D01*
X118006190Y-132347142D02*
X118053809Y-132394761D01*
X118006190Y-132442380D01*
X117958571Y-132394761D01*
X118006190Y-132347142D01*
X118006190Y-132442380D01*
X118434761Y-131537619D02*
X118482380Y-131490000D01*
X118577619Y-131442380D01*
X118815714Y-131442380D01*
X118910952Y-131490000D01*
X118958571Y-131537619D01*
X119006190Y-131632857D01*
X119006190Y-131728095D01*
X118958571Y-131870952D01*
X118387142Y-132442380D01*
X119006190Y-132442380D01*
X119434761Y-132442380D02*
X119434761Y-131442380D01*
X120006190Y-132442380D02*
X119577619Y-131870952D01*
X120006190Y-131442380D02*
X119434761Y-132013809D01*
X116883333Y-118142380D02*
X116550000Y-117666190D01*
X116311904Y-118142380D02*
X116311904Y-117142380D01*
X116692857Y-117142380D01*
X116788095Y-117190000D01*
X116835714Y-117237619D01*
X116883333Y-117332857D01*
X116883333Y-117475714D01*
X116835714Y-117570952D01*
X116788095Y-117618571D01*
X116692857Y-117666190D01*
X116311904Y-117666190D01*
X117216666Y-117142380D02*
X117883333Y-117142380D01*
X117454761Y-118142380D01*
X115264285Y-120442380D02*
X115883333Y-120442380D01*
X115550000Y-120823333D01*
X115692857Y-120823333D01*
X115788095Y-120870952D01*
X115835714Y-120918571D01*
X115883333Y-121013809D01*
X115883333Y-121251904D01*
X115835714Y-121347142D01*
X115788095Y-121394761D01*
X115692857Y-121442380D01*
X115407142Y-121442380D01*
X115311904Y-121394761D01*
X115264285Y-121347142D01*
X116502380Y-120442380D02*
X116597619Y-120442380D01*
X116692857Y-120490000D01*
X116740476Y-120537619D01*
X116788095Y-120632857D01*
X116835714Y-120823333D01*
X116835714Y-121061428D01*
X116788095Y-121251904D01*
X116740476Y-121347142D01*
X116692857Y-121394761D01*
X116597619Y-121442380D01*
X116502380Y-121442380D01*
X116407142Y-121394761D01*
X116359523Y-121347142D01*
X116311904Y-121251904D01*
X116264285Y-121061428D01*
X116264285Y-120823333D01*
X116311904Y-120632857D01*
X116359523Y-120537619D01*
X116407142Y-120490000D01*
X116502380Y-120442380D01*
X117454761Y-120442380D02*
X117550000Y-120442380D01*
X117645238Y-120490000D01*
X117692857Y-120537619D01*
X117740476Y-120632857D01*
X117788095Y-120823333D01*
X117788095Y-121061428D01*
X117740476Y-121251904D01*
X117692857Y-121347142D01*
X117645238Y-121394761D01*
X117550000Y-121442380D01*
X117454761Y-121442380D01*
X117359523Y-121394761D01*
X117311904Y-121347142D01*
X117264285Y-121251904D01*
X117216666Y-121061428D01*
X117216666Y-120823333D01*
X117264285Y-120632857D01*
X117311904Y-120537619D01*
X117359523Y-120490000D01*
X117454761Y-120442380D01*
X118216666Y-121442380D02*
X118216666Y-120442380D01*
X118788095Y-121442380D02*
X118359523Y-120870952D01*
X118788095Y-120442380D02*
X118216666Y-121013809D01*
X120532380Y-128306666D02*
X120056190Y-128640000D01*
X120532380Y-128878095D02*
X119532380Y-128878095D01*
X119532380Y-128497142D01*
X119580000Y-128401904D01*
X119627619Y-128354285D01*
X119722857Y-128306666D01*
X119865714Y-128306666D01*
X119960952Y-128354285D01*
X120008571Y-128401904D01*
X120056190Y-128497142D01*
X120056190Y-128878095D01*
X119960952Y-127735238D02*
X119913333Y-127830476D01*
X119865714Y-127878095D01*
X119770476Y-127925714D01*
X119722857Y-127925714D01*
X119627619Y-127878095D01*
X119580000Y-127830476D01*
X119532380Y-127735238D01*
X119532380Y-127544761D01*
X119580000Y-127449523D01*
X119627619Y-127401904D01*
X119722857Y-127354285D01*
X119770476Y-127354285D01*
X119865714Y-127401904D01*
X119913333Y-127449523D01*
X119960952Y-127544761D01*
X119960952Y-127735238D01*
X120008571Y-127830476D01*
X120056190Y-127878095D01*
X120151428Y-127925714D01*
X120341904Y-127925714D01*
X120437142Y-127878095D01*
X120484761Y-127830476D01*
X120532380Y-127735238D01*
X120532380Y-127544761D01*
X120484761Y-127449523D01*
X120437142Y-127401904D01*
X120341904Y-127354285D01*
X120151428Y-127354285D01*
X120056190Y-127401904D01*
X120008571Y-127449523D01*
X119960952Y-127544761D01*
X116367619Y-130241904D02*
X116320000Y-130194285D01*
X116272380Y-130099047D01*
X116272380Y-129860952D01*
X116320000Y-129765714D01*
X116367619Y-129718095D01*
X116462857Y-129670476D01*
X116558095Y-129670476D01*
X116700952Y-129718095D01*
X117272380Y-130289523D01*
X117272380Y-129670476D01*
X116272380Y-129051428D02*
X116272380Y-128956190D01*
X116320000Y-128860952D01*
X116367619Y-128813333D01*
X116462857Y-128765714D01*
X116653333Y-128718095D01*
X116891428Y-128718095D01*
X117081904Y-128765714D01*
X117177142Y-128813333D01*
X117224761Y-128860952D01*
X117272380Y-128956190D01*
X117272380Y-129051428D01*
X117224761Y-129146666D01*
X117177142Y-129194285D01*
X117081904Y-129241904D01*
X116891428Y-129289523D01*
X116653333Y-129289523D01*
X116462857Y-129241904D01*
X116367619Y-129194285D01*
X116320000Y-129146666D01*
X116272380Y-129051428D01*
X117272380Y-128289523D02*
X116272380Y-128289523D01*
X117272380Y-127718095D02*
X116700952Y-128146666D01*
X116272380Y-127718095D02*
X116843809Y-128289523D01*
X136502380Y-127956666D02*
X136026190Y-128290000D01*
X136502380Y-128528095D02*
X135502380Y-128528095D01*
X135502380Y-128147142D01*
X135550000Y-128051904D01*
X135597619Y-128004285D01*
X135692857Y-127956666D01*
X135835714Y-127956666D01*
X135930952Y-128004285D01*
X135978571Y-128051904D01*
X136026190Y-128147142D01*
X136026190Y-128528095D01*
X136502380Y-127480476D02*
X136502380Y-127290000D01*
X136454761Y-127194761D01*
X136407142Y-127147142D01*
X136264285Y-127051904D01*
X136073809Y-127004285D01*
X135692857Y-127004285D01*
X135597619Y-127051904D01*
X135550000Y-127099523D01*
X135502380Y-127194761D01*
X135502380Y-127385238D01*
X135550000Y-127480476D01*
X135597619Y-127528095D01*
X135692857Y-127575714D01*
X135930952Y-127575714D01*
X136026190Y-127528095D01*
X136073809Y-127480476D01*
X136121428Y-127385238D01*
X136121428Y-127194761D01*
X136073809Y-127099523D01*
X136026190Y-127051904D01*
X135930952Y-127004285D01*
X134422380Y-131490476D02*
X134422380Y-132061904D01*
X134422380Y-131776190D02*
X133422380Y-131776190D01*
X133565238Y-131871428D01*
X133660476Y-131966666D01*
X133708095Y-132061904D01*
X133422380Y-130871428D02*
X133422380Y-130776190D01*
X133470000Y-130680952D01*
X133517619Y-130633333D01*
X133612857Y-130585714D01*
X133803333Y-130538095D01*
X134041428Y-130538095D01*
X134231904Y-130585714D01*
X134327142Y-130633333D01*
X134374761Y-130680952D01*
X134422380Y-130776190D01*
X134422380Y-130871428D01*
X134374761Y-130966666D01*
X134327142Y-131014285D01*
X134231904Y-131061904D01*
X134041428Y-131109523D01*
X133803333Y-131109523D01*
X133612857Y-131061904D01*
X133517619Y-131014285D01*
X133470000Y-130966666D01*
X133422380Y-130871428D01*
X134422380Y-130109523D02*
X133422380Y-130109523D01*
X134422380Y-129538095D02*
X133850952Y-129966666D01*
X133422380Y-129538095D02*
X133993809Y-130109523D01*
X119087142Y-104192380D02*
X118753809Y-103716190D01*
X118515714Y-104192380D02*
X118515714Y-103192380D01*
X118896666Y-103192380D01*
X118991904Y-103240000D01*
X119039523Y-103287619D01*
X119087142Y-103382857D01*
X119087142Y-103525714D01*
X119039523Y-103620952D01*
X118991904Y-103668571D01*
X118896666Y-103716190D01*
X118515714Y-103716190D01*
X120039523Y-104192380D02*
X119468095Y-104192380D01*
X119753809Y-104192380D02*
X119753809Y-103192380D01*
X119658571Y-103335238D01*
X119563333Y-103430476D01*
X119468095Y-103478095D01*
X120658571Y-103192380D02*
X120753809Y-103192380D01*
X120849047Y-103240000D01*
X120896666Y-103287619D01*
X120944285Y-103382857D01*
X120991904Y-103573333D01*
X120991904Y-103811428D01*
X120944285Y-104001904D01*
X120896666Y-104097142D01*
X120849047Y-104144761D01*
X120753809Y-104192380D01*
X120658571Y-104192380D01*
X120563333Y-104144761D01*
X120515714Y-104097142D01*
X120468095Y-104001904D01*
X120420476Y-103811428D01*
X120420476Y-103573333D01*
X120468095Y-103382857D01*
X120515714Y-103287619D01*
X120563333Y-103240000D01*
X120658571Y-103192380D01*
X122422380Y-106180476D02*
X122422380Y-106751904D01*
X122422380Y-106466190D02*
X121422380Y-106466190D01*
X121565238Y-106561428D01*
X121660476Y-106656666D01*
X121708095Y-106751904D01*
X121422380Y-105561428D02*
X121422380Y-105466190D01*
X121470000Y-105370952D01*
X121517619Y-105323333D01*
X121612857Y-105275714D01*
X121803333Y-105228095D01*
X122041428Y-105228095D01*
X122231904Y-105275714D01*
X122327142Y-105323333D01*
X122374761Y-105370952D01*
X122422380Y-105466190D01*
X122422380Y-105561428D01*
X122374761Y-105656666D01*
X122327142Y-105704285D01*
X122231904Y-105751904D01*
X122041428Y-105799523D01*
X121803333Y-105799523D01*
X121612857Y-105751904D01*
X121517619Y-105704285D01*
X121470000Y-105656666D01*
X121422380Y-105561428D01*
X122422380Y-104799523D02*
X121422380Y-104799523D01*
X122422380Y-104228095D02*
X121850952Y-104656666D01*
X121422380Y-104228095D02*
X121993809Y-104799523D01*
X136812380Y-109232857D02*
X136336190Y-109566190D01*
X136812380Y-109804285D02*
X135812380Y-109804285D01*
X135812380Y-109423333D01*
X135860000Y-109328095D01*
X135907619Y-109280476D01*
X136002857Y-109232857D01*
X136145714Y-109232857D01*
X136240952Y-109280476D01*
X136288571Y-109328095D01*
X136336190Y-109423333D01*
X136336190Y-109804285D01*
X136812380Y-108280476D02*
X136812380Y-108851904D01*
X136812380Y-108566190D02*
X135812380Y-108566190D01*
X135955238Y-108661428D01*
X136050476Y-108756666D01*
X136098095Y-108851904D01*
X136812380Y-107328095D02*
X136812380Y-107899523D01*
X136812380Y-107613809D02*
X135812380Y-107613809D01*
X135955238Y-107709047D01*
X136050476Y-107804285D01*
X136098095Y-107899523D01*
X135062380Y-116451904D02*
X135062380Y-117023333D01*
X135062380Y-116737619D02*
X134062380Y-116737619D01*
X134205238Y-116832857D01*
X134300476Y-116928095D01*
X134348095Y-117023333D01*
X134062380Y-115832857D02*
X134062380Y-115737619D01*
X134110000Y-115642380D01*
X134157619Y-115594761D01*
X134252857Y-115547142D01*
X134443333Y-115499523D01*
X134681428Y-115499523D01*
X134871904Y-115547142D01*
X134967142Y-115594761D01*
X135014761Y-115642380D01*
X135062380Y-115737619D01*
X135062380Y-115832857D01*
X135014761Y-115928095D01*
X134967142Y-115975714D01*
X134871904Y-116023333D01*
X134681428Y-116070952D01*
X134443333Y-116070952D01*
X134252857Y-116023333D01*
X134157619Y-115975714D01*
X134110000Y-115928095D01*
X134062380Y-115832857D01*
X135062380Y-115070952D02*
X134062380Y-115070952D01*
X134776666Y-114737619D01*
X134062380Y-114404285D01*
X135062380Y-114404285D01*
X116327142Y-122982380D02*
X115993809Y-122506190D01*
X115755714Y-122982380D02*
X115755714Y-121982380D01*
X116136666Y-121982380D01*
X116231904Y-122030000D01*
X116279523Y-122077619D01*
X116327142Y-122172857D01*
X116327142Y-122315714D01*
X116279523Y-122410952D01*
X116231904Y-122458571D01*
X116136666Y-122506190D01*
X115755714Y-122506190D01*
X117279523Y-122982380D02*
X116708095Y-122982380D01*
X116993809Y-122982380D02*
X116993809Y-121982380D01*
X116898571Y-122125238D01*
X116803333Y-122220476D01*
X116708095Y-122268095D01*
X117660476Y-122077619D02*
X117708095Y-122030000D01*
X117803333Y-121982380D01*
X118041428Y-121982380D01*
X118136666Y-122030000D01*
X118184285Y-122077619D01*
X118231904Y-122172857D01*
X118231904Y-122268095D01*
X118184285Y-122410952D01*
X117612857Y-122982380D01*
X118231904Y-122982380D01*
X116875714Y-126262380D02*
X116304285Y-126262380D01*
X116590000Y-126262380D02*
X116590000Y-125262380D01*
X116494761Y-125405238D01*
X116399523Y-125500476D01*
X116304285Y-125548095D01*
X117304285Y-126262380D02*
X117304285Y-125262380D01*
X117875714Y-126262380D02*
X117447142Y-125690952D01*
X117875714Y-125262380D02*
X117304285Y-125833809D01*
X118258095Y-106692380D02*
X118258095Y-107501904D01*
X118305714Y-107597142D01*
X118353333Y-107644761D01*
X118448571Y-107692380D01*
X118639047Y-107692380D01*
X118734285Y-107644761D01*
X118781904Y-107597142D01*
X118829523Y-107501904D01*
X118829523Y-106692380D01*
X119829523Y-107692380D02*
X119258095Y-107692380D01*
X119543809Y-107692380D02*
X119543809Y-106692380D01*
X119448571Y-106835238D01*
X119353333Y-106930476D01*
X119258095Y-106978095D01*
X122537142Y-115565238D02*
X122584761Y-115612857D01*
X122632380Y-115755714D01*
X122632380Y-115850952D01*
X122584761Y-115993809D01*
X122489523Y-116089047D01*
X122394285Y-116136666D01*
X122203809Y-116184285D01*
X122060952Y-116184285D01*
X121870476Y-116136666D01*
X121775238Y-116089047D01*
X121680000Y-115993809D01*
X121632380Y-115850952D01*
X121632380Y-115755714D01*
X121680000Y-115612857D01*
X121727619Y-115565238D01*
X122632380Y-115136666D02*
X121632380Y-115136666D01*
X121632380Y-114898571D01*
X121680000Y-114755714D01*
X121775238Y-114660476D01*
X121870476Y-114612857D01*
X122060952Y-114565238D01*
X122203809Y-114565238D01*
X122394285Y-114612857D01*
X122489523Y-114660476D01*
X122584761Y-114755714D01*
X122632380Y-114898571D01*
X122632380Y-115136666D01*
X121965714Y-113708095D02*
X122632380Y-113708095D01*
X121584761Y-113946190D02*
X122299047Y-114184285D01*
X122299047Y-113565238D01*
X121632380Y-112993809D02*
X121632380Y-112898571D01*
X121680000Y-112803333D01*
X121727619Y-112755714D01*
X121822857Y-112708095D01*
X122013333Y-112660476D01*
X122251428Y-112660476D01*
X122441904Y-112708095D01*
X122537142Y-112755714D01*
X122584761Y-112803333D01*
X122632380Y-112898571D01*
X122632380Y-112993809D01*
X122584761Y-113089047D01*
X122537142Y-113136666D01*
X122441904Y-113184285D01*
X122251428Y-113231904D01*
X122013333Y-113231904D01*
X121822857Y-113184285D01*
X121727619Y-113136666D01*
X121680000Y-113089047D01*
X121632380Y-112993809D01*
X121632380Y-111755714D02*
X121632380Y-112231904D01*
X122108571Y-112279523D01*
X122060952Y-112231904D01*
X122013333Y-112136666D01*
X122013333Y-111898571D01*
X122060952Y-111803333D01*
X122108571Y-111755714D01*
X122203809Y-111708095D01*
X122441904Y-111708095D01*
X122537142Y-111755714D01*
X122584761Y-111803333D01*
X122632380Y-111898571D01*
X122632380Y-112136666D01*
X122584761Y-112231904D01*
X122537142Y-112279523D01*
X121727619Y-111327142D02*
X121680000Y-111279523D01*
X121632380Y-111184285D01*
X121632380Y-110946190D01*
X121680000Y-110850952D01*
X121727619Y-110803333D01*
X121822857Y-110755714D01*
X121918095Y-110755714D01*
X122060952Y-110803333D01*
X122632380Y-111374761D01*
X122632380Y-110755714D01*
X122108571Y-109993809D02*
X122156190Y-109850952D01*
X122203809Y-109803333D01*
X122299047Y-109755714D01*
X122441904Y-109755714D01*
X122537142Y-109803333D01*
X122584761Y-109850952D01*
X122632380Y-109946190D01*
X122632380Y-110327142D01*
X121632380Y-110327142D01*
X121632380Y-109993809D01*
X121680000Y-109898571D01*
X121727619Y-109850952D01*
X121822857Y-109803333D01*
X121918095Y-109803333D01*
X122013333Y-109850952D01*
X122060952Y-109898571D01*
X122108571Y-109993809D01*
X122108571Y-110327142D01*
X133452380Y-126961904D02*
X134261904Y-126961904D01*
X134357142Y-126914285D01*
X134404761Y-126866666D01*
X134452380Y-126771428D01*
X134452380Y-126580952D01*
X134404761Y-126485714D01*
X134357142Y-126438095D01*
X134261904Y-126390476D01*
X133452380Y-126390476D01*
X133547619Y-125961904D02*
X133500000Y-125914285D01*
X133452380Y-125819047D01*
X133452380Y-125580952D01*
X133500000Y-125485714D01*
X133547619Y-125438095D01*
X133642857Y-125390476D01*
X133738095Y-125390476D01*
X133880952Y-125438095D01*
X134452380Y-126009523D01*
X134452380Y-125390476D01*
X127718809Y-130034523D02*
X128285476Y-130034523D01*
X127921190Y-130884523D01*
X128973571Y-130317857D02*
X128973571Y-130884523D01*
X128771190Y-129994047D02*
X128568809Y-130601190D01*
X129095000Y-130601190D01*
X129823571Y-130884523D02*
X129418809Y-130884523D01*
X129418809Y-130034523D01*
X130066428Y-130844047D02*
X130187857Y-130884523D01*
X130390238Y-130884523D01*
X130471190Y-130844047D01*
X130511666Y-130803571D01*
X130552142Y-130722619D01*
X130552142Y-130641666D01*
X130511666Y-130560714D01*
X130471190Y-130520238D01*
X130390238Y-130479761D01*
X130228333Y-130439285D01*
X130147380Y-130398809D01*
X130106904Y-130358333D01*
X130066428Y-130277380D01*
X130066428Y-130196428D01*
X130106904Y-130115476D01*
X130147380Y-130075000D01*
X130228333Y-130034523D01*
X130430714Y-130034523D01*
X130552142Y-130075000D01*
X130835476Y-130034523D02*
X131361666Y-130034523D01*
X131078333Y-130358333D01*
X131199761Y-130358333D01*
X131280714Y-130398809D01*
X131321190Y-130439285D01*
X131361666Y-130520238D01*
X131361666Y-130722619D01*
X131321190Y-130803571D01*
X131280714Y-130844047D01*
X131199761Y-130884523D01*
X130956904Y-130884523D01*
X130875952Y-130844047D01*
X130835476Y-130803571D01*
X132090238Y-130034523D02*
X131928333Y-130034523D01*
X131847380Y-130075000D01*
X131806904Y-130115476D01*
X131725952Y-130236904D01*
X131685476Y-130398809D01*
X131685476Y-130722619D01*
X131725952Y-130803571D01*
X131766428Y-130844047D01*
X131847380Y-130884523D01*
X132009285Y-130884523D01*
X132090238Y-130844047D01*
X132130714Y-130803571D01*
X132171190Y-130722619D01*
X132171190Y-130520238D01*
X132130714Y-130439285D01*
X132090238Y-130398809D01*
X132009285Y-130358333D01*
X131847380Y-130358333D01*
X131766428Y-130398809D01*
X131725952Y-130439285D01*
X131685476Y-130520238D01*
X132454523Y-130034523D02*
X133021190Y-130034523D01*
X132656904Y-130884523D01*
X130603333Y-126523333D02*
X130603333Y-127316666D01*
X130650000Y-127410000D01*
X130696666Y-127456666D01*
X130790000Y-127503333D01*
X130976666Y-127503333D01*
X131070000Y-127456666D01*
X131116666Y-127410000D01*
X131163333Y-127316666D01*
X131163333Y-126523333D01*
X131583333Y-126616666D02*
X131630000Y-126570000D01*
X131723333Y-126523333D01*
X131956666Y-126523333D01*
X132050000Y-126570000D01*
X132096666Y-126616666D01*
X132143333Y-126710000D01*
X132143333Y-126803333D01*
X132096666Y-126943333D01*
X131536666Y-127503333D01*
X132143333Y-127503333D01*
X127228095Y-108542380D02*
X127228095Y-109351904D01*
X127275714Y-109447142D01*
X127323333Y-109494761D01*
X127418571Y-109542380D01*
X127609047Y-109542380D01*
X127704285Y-109494761D01*
X127751904Y-109447142D01*
X127799523Y-109351904D01*
X127799523Y-108542380D01*
X128180476Y-108542380D02*
X128799523Y-108542380D01*
X128466190Y-108923333D01*
X128609047Y-108923333D01*
X128704285Y-108970952D01*
X128751904Y-109018571D01*
X128799523Y-109113809D01*
X128799523Y-109351904D01*
X128751904Y-109447142D01*
X128704285Y-109494761D01*
X128609047Y-109542380D01*
X128323333Y-109542380D01*
X128228095Y-109494761D01*
X128180476Y-109447142D01*
X126299523Y-111182380D02*
X125823333Y-111182380D01*
X125823333Y-110182380D01*
X126632857Y-111182380D02*
X126632857Y-110182380D01*
X126966190Y-110896666D01*
X127299523Y-110182380D01*
X127299523Y-111182380D01*
X127680476Y-110182380D02*
X128299523Y-110182380D01*
X127966190Y-110563333D01*
X128109047Y-110563333D01*
X128204285Y-110610952D01*
X128251904Y-110658571D01*
X128299523Y-110753809D01*
X128299523Y-110991904D01*
X128251904Y-111087142D01*
X128204285Y-111134761D01*
X128109047Y-111182380D01*
X127823333Y-111182380D01*
X127728095Y-111134761D01*
X127680476Y-111087142D01*
X128775714Y-111182380D02*
X128966190Y-111182380D01*
X129061428Y-111134761D01*
X129109047Y-111087142D01*
X129204285Y-110944285D01*
X129251904Y-110753809D01*
X129251904Y-110372857D01*
X129204285Y-110277619D01*
X129156666Y-110230000D01*
X129061428Y-110182380D01*
X128870952Y-110182380D01*
X128775714Y-110230000D01*
X128728095Y-110277619D01*
X128680476Y-110372857D01*
X128680476Y-110610952D01*
X128728095Y-110706190D01*
X128775714Y-110753809D01*
X128870952Y-110801428D01*
X129061428Y-110801428D01*
X129156666Y-110753809D01*
X129204285Y-110706190D01*
X129251904Y-110610952D01*
X129585238Y-110182380D02*
X130204285Y-110182380D01*
X129870952Y-110563333D01*
X130013809Y-110563333D01*
X130109047Y-110610952D01*
X130156666Y-110658571D01*
X130204285Y-110753809D01*
X130204285Y-110991904D01*
X130156666Y-111087142D01*
X130109047Y-111134761D01*
X130013809Y-111182380D01*
X129728095Y-111182380D01*
X129632857Y-111134761D01*
X129585238Y-111087142D01*
X127502380Y-105341904D02*
X128311904Y-105341904D01*
X128407142Y-105294285D01*
X128454761Y-105246666D01*
X128502380Y-105151428D01*
X128502380Y-104960952D01*
X128454761Y-104865714D01*
X128407142Y-104818095D01*
X128311904Y-104770476D01*
X127502380Y-104770476D01*
X127502380Y-104389523D02*
X127502380Y-103770476D01*
X127883333Y-104103809D01*
X127883333Y-103960952D01*
X127930952Y-103865714D01*
X127978571Y-103818095D01*
X128073809Y-103770476D01*
X128311904Y-103770476D01*
X128407142Y-103818095D01*
X128454761Y-103865714D01*
X128502380Y-103960952D01*
X128502380Y-104246666D01*
X128454761Y-104341904D01*
X128407142Y-104389523D01*
X127158095Y-97302380D02*
X127158095Y-98111904D01*
X127205714Y-98207142D01*
X127253333Y-98254761D01*
X127348571Y-98302380D01*
X127539047Y-98302380D01*
X127634285Y-98254761D01*
X127681904Y-98207142D01*
X127729523Y-98111904D01*
X127729523Y-97302380D01*
X128634285Y-97635714D02*
X128634285Y-98302380D01*
X128396190Y-97254761D02*
X128158095Y-97969047D01*
X128777142Y-97969047D01*
D13*
X130159285Y-100905000D02*
X130159285Y-100476428D01*
X130909285Y-100690714D02*
X130159285Y-100690714D01*
X130873571Y-100262142D02*
X130909285Y-100155000D01*
X130909285Y-99976428D01*
X130873571Y-99905000D01*
X130837857Y-99869285D01*
X130766428Y-99833571D01*
X130695000Y-99833571D01*
X130623571Y-99869285D01*
X130587857Y-99905000D01*
X130552142Y-99976428D01*
X130516428Y-100119285D01*
X130480714Y-100190714D01*
X130445000Y-100226428D01*
X130373571Y-100262142D01*
X130302142Y-100262142D01*
X130230714Y-100226428D01*
X130195000Y-100190714D01*
X130159285Y-100119285D01*
X130159285Y-99940714D01*
X130195000Y-99833571D01*
X130159285Y-99155000D02*
X130159285Y-99512142D01*
X130516428Y-99547857D01*
X130480714Y-99512142D01*
X130445000Y-99440714D01*
X130445000Y-99262142D01*
X130480714Y-99190714D01*
X130516428Y-99155000D01*
X130587857Y-99119285D01*
X130766428Y-99119285D01*
X130837857Y-99155000D01*
X130873571Y-99190714D01*
X130909285Y-99262142D01*
X130909285Y-99440714D01*
X130873571Y-99512142D01*
X130837857Y-99547857D01*
X130695000Y-98833571D02*
X130695000Y-98476428D01*
X130909285Y-98905000D02*
X130159285Y-98655000D01*
X130909285Y-98405000D01*
X130159285Y-98226428D02*
X130159285Y-97762142D01*
X130445000Y-98012142D01*
X130445000Y-97905000D01*
X130480714Y-97833571D01*
X130516428Y-97797857D01*
X130587857Y-97762142D01*
X130766428Y-97762142D01*
X130837857Y-97797857D01*
X130873571Y-97833571D01*
X130909285Y-97905000D01*
X130909285Y-98119285D01*
X130873571Y-98190714D01*
X130837857Y-98226428D01*
X130909285Y-97047857D02*
X130909285Y-97476428D01*
X130909285Y-97262142D02*
X130159285Y-97262142D01*
X130266428Y-97333571D01*
X130337857Y-97405000D01*
X130373571Y-97476428D01*
X130159285Y-96405000D02*
X130159285Y-96547857D01*
X130195000Y-96619285D01*
X130230714Y-96655000D01*
X130337857Y-96726428D01*
X130480714Y-96762142D01*
X130766428Y-96762142D01*
X130837857Y-96726428D01*
X130873571Y-96690714D01*
X130909285Y-96619285D01*
X130909285Y-96476428D01*
X130873571Y-96405000D01*
X130837857Y-96369285D01*
X130766428Y-96333571D01*
X130587857Y-96333571D01*
X130516428Y-96369285D01*
X130480714Y-96405000D01*
X130445000Y-96476428D01*
X130445000Y-96619285D01*
X130480714Y-96690714D01*
X130516428Y-96726428D01*
X130587857Y-96762142D01*
X130159285Y-95690714D02*
X130159285Y-95833571D01*
X130195000Y-95905000D01*
X130230714Y-95940714D01*
X130337857Y-96012142D01*
X130480714Y-96047857D01*
X130766428Y-96047857D01*
X130837857Y-96012142D01*
X130873571Y-95976428D01*
X130909285Y-95905000D01*
X130909285Y-95762142D01*
X130873571Y-95690714D01*
X130837857Y-95655000D01*
X130766428Y-95619285D01*
X130587857Y-95619285D01*
X130516428Y-95655000D01*
X130480714Y-95690714D01*
X130445000Y-95762142D01*
X130445000Y-95905000D01*
X130480714Y-95976428D01*
X130516428Y-96012142D01*
X130587857Y-96047857D01*
X130909285Y-95297857D02*
X130159285Y-95297857D01*
X130159285Y-95119285D01*
X130195000Y-95012142D01*
X130266428Y-94940714D01*
X130337857Y-94905000D01*
X130480714Y-94869285D01*
X130587857Y-94869285D01*
X130730714Y-94905000D01*
X130802142Y-94940714D01*
X130873571Y-95012142D01*
X130909285Y-95119285D01*
X130909285Y-95297857D01*
X130516428Y-94297857D02*
X130552142Y-94190714D01*
X130587857Y-94155000D01*
X130659285Y-94119285D01*
X130766428Y-94119285D01*
X130837857Y-94155000D01*
X130873571Y-94190714D01*
X130909285Y-94262142D01*
X130909285Y-94547857D01*
X130159285Y-94547857D01*
X130159285Y-94297857D01*
X130195000Y-94226428D01*
X130230714Y-94190714D01*
X130302142Y-94155000D01*
X130373571Y-94155000D01*
X130445000Y-94190714D01*
X130480714Y-94226428D01*
X130516428Y-94297857D01*
X130516428Y-94547857D01*
X130159285Y-93905000D02*
X130909285Y-93655000D01*
X130159285Y-93405000D01*
X130909285Y-92726428D02*
X130552142Y-92976428D01*
X130909285Y-93155000D02*
X130159285Y-93155000D01*
X130159285Y-92869285D01*
X130195000Y-92797857D01*
X130230714Y-92762142D01*
X130302142Y-92726428D01*
X130409285Y-92726428D01*
X130480714Y-92762142D01*
X130516428Y-92797857D01*
X130552142Y-92869285D01*
X130552142Y-93155000D01*
M02*
