G04 #@! TF.GenerationSoftware,KiCad,Pcbnew,5.1.5+dfsg1-2build2*
G04 #@! TF.CreationDate,2021-11-18T22:50:20-05:00*
G04 #@! TF.ProjectId,color_computer_dac,636f6c6f-725f-4636-9f6d-70757465725f,1.1.0*
G04 #@! TF.SameCoordinates,Original*
G04 #@! TF.FileFunction,Paste,Top*
G04 #@! TF.FilePolarity,Positive*
%FSLAX46Y46*%
G04 Gerber Fmt 4.6, Leading zero omitted, Abs format (unit mm)*
G04 Created by KiCad (PCBNEW 5.1.5+dfsg1-2build2) date 2021-11-18 22:50:20*
%MOMM*%
%LPD*%
G04 APERTURE LIST*
%ADD10C,0.100000*%
%ADD11R,1.060000X0.650000*%
G04 APERTURE END LIST*
D10*
G36*
X127694504Y-113086204D02*
G01*
X127718773Y-113089804D01*
X127742571Y-113095765D01*
X127765671Y-113104030D01*
X127787849Y-113114520D01*
X127808893Y-113127133D01*
X127828598Y-113141747D01*
X127846777Y-113158223D01*
X127863253Y-113176402D01*
X127877867Y-113196107D01*
X127890480Y-113217151D01*
X127900970Y-113239329D01*
X127909235Y-113262429D01*
X127915196Y-113286227D01*
X127918796Y-113310496D01*
X127920000Y-113335000D01*
X127920000Y-114285000D01*
X127918796Y-114309504D01*
X127915196Y-114333773D01*
X127909235Y-114357571D01*
X127900970Y-114380671D01*
X127890480Y-114402849D01*
X127877867Y-114423893D01*
X127863253Y-114443598D01*
X127846777Y-114461777D01*
X127828598Y-114478253D01*
X127808893Y-114492867D01*
X127787849Y-114505480D01*
X127765671Y-114515970D01*
X127742571Y-114524235D01*
X127718773Y-114530196D01*
X127694504Y-114533796D01*
X127670000Y-114535000D01*
X126995000Y-114535000D01*
X126970496Y-114533796D01*
X126946227Y-114530196D01*
X126922429Y-114524235D01*
X126899329Y-114515970D01*
X126877151Y-114505480D01*
X126856107Y-114492867D01*
X126836402Y-114478253D01*
X126818223Y-114461777D01*
X126801747Y-114443598D01*
X126787133Y-114423893D01*
X126774520Y-114402849D01*
X126764030Y-114380671D01*
X126755765Y-114357571D01*
X126749804Y-114333773D01*
X126746204Y-114309504D01*
X126745000Y-114285000D01*
X126745000Y-113335000D01*
X126746204Y-113310496D01*
X126749804Y-113286227D01*
X126755765Y-113262429D01*
X126764030Y-113239329D01*
X126774520Y-113217151D01*
X126787133Y-113196107D01*
X126801747Y-113176402D01*
X126818223Y-113158223D01*
X126836402Y-113141747D01*
X126856107Y-113127133D01*
X126877151Y-113114520D01*
X126899329Y-113104030D01*
X126922429Y-113095765D01*
X126946227Y-113089804D01*
X126970496Y-113086204D01*
X126995000Y-113085000D01*
X127670000Y-113085000D01*
X127694504Y-113086204D01*
G37*
G36*
X129769504Y-113086204D02*
G01*
X129793773Y-113089804D01*
X129817571Y-113095765D01*
X129840671Y-113104030D01*
X129862849Y-113114520D01*
X129883893Y-113127133D01*
X129903598Y-113141747D01*
X129921777Y-113158223D01*
X129938253Y-113176402D01*
X129952867Y-113196107D01*
X129965480Y-113217151D01*
X129975970Y-113239329D01*
X129984235Y-113262429D01*
X129990196Y-113286227D01*
X129993796Y-113310496D01*
X129995000Y-113335000D01*
X129995000Y-114285000D01*
X129993796Y-114309504D01*
X129990196Y-114333773D01*
X129984235Y-114357571D01*
X129975970Y-114380671D01*
X129965480Y-114402849D01*
X129952867Y-114423893D01*
X129938253Y-114443598D01*
X129921777Y-114461777D01*
X129903598Y-114478253D01*
X129883893Y-114492867D01*
X129862849Y-114505480D01*
X129840671Y-114515970D01*
X129817571Y-114524235D01*
X129793773Y-114530196D01*
X129769504Y-114533796D01*
X129745000Y-114535000D01*
X129070000Y-114535000D01*
X129045496Y-114533796D01*
X129021227Y-114530196D01*
X128997429Y-114524235D01*
X128974329Y-114515970D01*
X128952151Y-114505480D01*
X128931107Y-114492867D01*
X128911402Y-114478253D01*
X128893223Y-114461777D01*
X128876747Y-114443598D01*
X128862133Y-114423893D01*
X128849520Y-114402849D01*
X128839030Y-114380671D01*
X128830765Y-114357571D01*
X128824804Y-114333773D01*
X128821204Y-114309504D01*
X128820000Y-114285000D01*
X128820000Y-113335000D01*
X128821204Y-113310496D01*
X128824804Y-113286227D01*
X128830765Y-113262429D01*
X128839030Y-113239329D01*
X128849520Y-113217151D01*
X128862133Y-113196107D01*
X128876747Y-113176402D01*
X128893223Y-113158223D01*
X128911402Y-113141747D01*
X128931107Y-113127133D01*
X128952151Y-113114520D01*
X128974329Y-113104030D01*
X128997429Y-113095765D01*
X129021227Y-113089804D01*
X129045496Y-113086204D01*
X129070000Y-113085000D01*
X129745000Y-113085000D01*
X129769504Y-113086204D01*
G37*
G36*
X120820779Y-120326144D02*
G01*
X120843834Y-120329563D01*
X120866443Y-120335227D01*
X120888387Y-120343079D01*
X120909457Y-120353044D01*
X120929448Y-120365026D01*
X120948168Y-120378910D01*
X120965438Y-120394562D01*
X120981090Y-120411832D01*
X120994974Y-120430552D01*
X121006956Y-120450543D01*
X121016921Y-120471613D01*
X121024773Y-120493557D01*
X121030437Y-120516166D01*
X121033856Y-120539221D01*
X121035000Y-120562500D01*
X121035000Y-121062500D01*
X121033856Y-121085779D01*
X121030437Y-121108834D01*
X121024773Y-121131443D01*
X121016921Y-121153387D01*
X121006956Y-121174457D01*
X120994974Y-121194448D01*
X120981090Y-121213168D01*
X120965438Y-121230438D01*
X120948168Y-121246090D01*
X120929448Y-121259974D01*
X120909457Y-121271956D01*
X120888387Y-121281921D01*
X120866443Y-121289773D01*
X120843834Y-121295437D01*
X120820779Y-121298856D01*
X120797500Y-121300000D01*
X120322500Y-121300000D01*
X120299221Y-121298856D01*
X120276166Y-121295437D01*
X120253557Y-121289773D01*
X120231613Y-121281921D01*
X120210543Y-121271956D01*
X120190552Y-121259974D01*
X120171832Y-121246090D01*
X120154562Y-121230438D01*
X120138910Y-121213168D01*
X120125026Y-121194448D01*
X120113044Y-121174457D01*
X120103079Y-121153387D01*
X120095227Y-121131443D01*
X120089563Y-121108834D01*
X120086144Y-121085779D01*
X120085000Y-121062500D01*
X120085000Y-120562500D01*
X120086144Y-120539221D01*
X120089563Y-120516166D01*
X120095227Y-120493557D01*
X120103079Y-120471613D01*
X120113044Y-120450543D01*
X120125026Y-120430552D01*
X120138910Y-120411832D01*
X120154562Y-120394562D01*
X120171832Y-120378910D01*
X120190552Y-120365026D01*
X120210543Y-120353044D01*
X120231613Y-120343079D01*
X120253557Y-120335227D01*
X120276166Y-120329563D01*
X120299221Y-120326144D01*
X120322500Y-120325000D01*
X120797500Y-120325000D01*
X120820779Y-120326144D01*
G37*
G36*
X120820779Y-118501144D02*
G01*
X120843834Y-118504563D01*
X120866443Y-118510227D01*
X120888387Y-118518079D01*
X120909457Y-118528044D01*
X120929448Y-118540026D01*
X120948168Y-118553910D01*
X120965438Y-118569562D01*
X120981090Y-118586832D01*
X120994974Y-118605552D01*
X121006956Y-118625543D01*
X121016921Y-118646613D01*
X121024773Y-118668557D01*
X121030437Y-118691166D01*
X121033856Y-118714221D01*
X121035000Y-118737500D01*
X121035000Y-119237500D01*
X121033856Y-119260779D01*
X121030437Y-119283834D01*
X121024773Y-119306443D01*
X121016921Y-119328387D01*
X121006956Y-119349457D01*
X120994974Y-119369448D01*
X120981090Y-119388168D01*
X120965438Y-119405438D01*
X120948168Y-119421090D01*
X120929448Y-119434974D01*
X120909457Y-119446956D01*
X120888387Y-119456921D01*
X120866443Y-119464773D01*
X120843834Y-119470437D01*
X120820779Y-119473856D01*
X120797500Y-119475000D01*
X120322500Y-119475000D01*
X120299221Y-119473856D01*
X120276166Y-119470437D01*
X120253557Y-119464773D01*
X120231613Y-119456921D01*
X120210543Y-119446956D01*
X120190552Y-119434974D01*
X120171832Y-119421090D01*
X120154562Y-119405438D01*
X120138910Y-119388168D01*
X120125026Y-119369448D01*
X120113044Y-119349457D01*
X120103079Y-119328387D01*
X120095227Y-119306443D01*
X120089563Y-119283834D01*
X120086144Y-119260779D01*
X120085000Y-119237500D01*
X120085000Y-118737500D01*
X120086144Y-118714221D01*
X120089563Y-118691166D01*
X120095227Y-118668557D01*
X120103079Y-118646613D01*
X120113044Y-118625543D01*
X120125026Y-118605552D01*
X120138910Y-118586832D01*
X120154562Y-118569562D01*
X120171832Y-118553910D01*
X120190552Y-118540026D01*
X120210543Y-118528044D01*
X120231613Y-118518079D01*
X120253557Y-118510227D01*
X120276166Y-118504563D01*
X120299221Y-118501144D01*
X120322500Y-118500000D01*
X120797500Y-118500000D01*
X120820779Y-118501144D01*
G37*
G36*
X133594505Y-120691204D02*
G01*
X133618773Y-120694804D01*
X133642572Y-120700765D01*
X133665671Y-120709030D01*
X133687850Y-120719520D01*
X133708893Y-120732132D01*
X133728599Y-120746747D01*
X133746777Y-120763223D01*
X133763253Y-120781401D01*
X133777868Y-120801107D01*
X133790480Y-120822150D01*
X133800970Y-120844329D01*
X133809235Y-120867428D01*
X133815196Y-120891227D01*
X133818796Y-120915495D01*
X133820000Y-120939999D01*
X133820000Y-121840001D01*
X133818796Y-121864505D01*
X133815196Y-121888773D01*
X133809235Y-121912572D01*
X133800970Y-121935671D01*
X133790480Y-121957850D01*
X133777868Y-121978893D01*
X133763253Y-121998599D01*
X133746777Y-122016777D01*
X133728599Y-122033253D01*
X133708893Y-122047868D01*
X133687850Y-122060480D01*
X133665671Y-122070970D01*
X133642572Y-122079235D01*
X133618773Y-122085196D01*
X133594505Y-122088796D01*
X133570001Y-122090000D01*
X132869999Y-122090000D01*
X132845495Y-122088796D01*
X132821227Y-122085196D01*
X132797428Y-122079235D01*
X132774329Y-122070970D01*
X132752150Y-122060480D01*
X132731107Y-122047868D01*
X132711401Y-122033253D01*
X132693223Y-122016777D01*
X132676747Y-121998599D01*
X132662132Y-121978893D01*
X132649520Y-121957850D01*
X132639030Y-121935671D01*
X132630765Y-121912572D01*
X132624804Y-121888773D01*
X132621204Y-121864505D01*
X132620000Y-121840001D01*
X132620000Y-120939999D01*
X132621204Y-120915495D01*
X132624804Y-120891227D01*
X132630765Y-120867428D01*
X132639030Y-120844329D01*
X132649520Y-120822150D01*
X132662132Y-120801107D01*
X132676747Y-120781401D01*
X132693223Y-120763223D01*
X132711401Y-120746747D01*
X132731107Y-120732132D01*
X132752150Y-120719520D01*
X132774329Y-120709030D01*
X132797428Y-120700765D01*
X132821227Y-120694804D01*
X132845495Y-120691204D01*
X132869999Y-120690000D01*
X133570001Y-120690000D01*
X133594505Y-120691204D01*
G37*
G36*
X135594505Y-120691204D02*
G01*
X135618773Y-120694804D01*
X135642572Y-120700765D01*
X135665671Y-120709030D01*
X135687850Y-120719520D01*
X135708893Y-120732132D01*
X135728599Y-120746747D01*
X135746777Y-120763223D01*
X135763253Y-120781401D01*
X135777868Y-120801107D01*
X135790480Y-120822150D01*
X135800970Y-120844329D01*
X135809235Y-120867428D01*
X135815196Y-120891227D01*
X135818796Y-120915495D01*
X135820000Y-120939999D01*
X135820000Y-121840001D01*
X135818796Y-121864505D01*
X135815196Y-121888773D01*
X135809235Y-121912572D01*
X135800970Y-121935671D01*
X135790480Y-121957850D01*
X135777868Y-121978893D01*
X135763253Y-121998599D01*
X135746777Y-122016777D01*
X135728599Y-122033253D01*
X135708893Y-122047868D01*
X135687850Y-122060480D01*
X135665671Y-122070970D01*
X135642572Y-122079235D01*
X135618773Y-122085196D01*
X135594505Y-122088796D01*
X135570001Y-122090000D01*
X134869999Y-122090000D01*
X134845495Y-122088796D01*
X134821227Y-122085196D01*
X134797428Y-122079235D01*
X134774329Y-122070970D01*
X134752150Y-122060480D01*
X134731107Y-122047868D01*
X134711401Y-122033253D01*
X134693223Y-122016777D01*
X134676747Y-121998599D01*
X134662132Y-121978893D01*
X134649520Y-121957850D01*
X134639030Y-121935671D01*
X134630765Y-121912572D01*
X134624804Y-121888773D01*
X134621204Y-121864505D01*
X134620000Y-121840001D01*
X134620000Y-120939999D01*
X134621204Y-120915495D01*
X134624804Y-120891227D01*
X134630765Y-120867428D01*
X134639030Y-120844329D01*
X134649520Y-120822150D01*
X134662132Y-120801107D01*
X134676747Y-120781401D01*
X134693223Y-120763223D01*
X134711401Y-120746747D01*
X134731107Y-120732132D01*
X134752150Y-120719520D01*
X134774329Y-120709030D01*
X134797428Y-120700765D01*
X134821227Y-120694804D01*
X134845495Y-120691204D01*
X134869999Y-120690000D01*
X135570001Y-120690000D01*
X135594505Y-120691204D01*
G37*
G36*
X127720779Y-119031144D02*
G01*
X127743834Y-119034563D01*
X127766443Y-119040227D01*
X127788387Y-119048079D01*
X127809457Y-119058044D01*
X127829448Y-119070026D01*
X127848168Y-119083910D01*
X127865438Y-119099562D01*
X127881090Y-119116832D01*
X127894974Y-119135552D01*
X127906956Y-119155543D01*
X127916921Y-119176613D01*
X127924773Y-119198557D01*
X127930437Y-119221166D01*
X127933856Y-119244221D01*
X127935000Y-119267500D01*
X127935000Y-119767500D01*
X127933856Y-119790779D01*
X127930437Y-119813834D01*
X127924773Y-119836443D01*
X127916921Y-119858387D01*
X127906956Y-119879457D01*
X127894974Y-119899448D01*
X127881090Y-119918168D01*
X127865438Y-119935438D01*
X127848168Y-119951090D01*
X127829448Y-119964974D01*
X127809457Y-119976956D01*
X127788387Y-119986921D01*
X127766443Y-119994773D01*
X127743834Y-120000437D01*
X127720779Y-120003856D01*
X127697500Y-120005000D01*
X127222500Y-120005000D01*
X127199221Y-120003856D01*
X127176166Y-120000437D01*
X127153557Y-119994773D01*
X127131613Y-119986921D01*
X127110543Y-119976956D01*
X127090552Y-119964974D01*
X127071832Y-119951090D01*
X127054562Y-119935438D01*
X127038910Y-119918168D01*
X127025026Y-119899448D01*
X127013044Y-119879457D01*
X127003079Y-119858387D01*
X126995227Y-119836443D01*
X126989563Y-119813834D01*
X126986144Y-119790779D01*
X126985000Y-119767500D01*
X126985000Y-119267500D01*
X126986144Y-119244221D01*
X126989563Y-119221166D01*
X126995227Y-119198557D01*
X127003079Y-119176613D01*
X127013044Y-119155543D01*
X127025026Y-119135552D01*
X127038910Y-119116832D01*
X127054562Y-119099562D01*
X127071832Y-119083910D01*
X127090552Y-119070026D01*
X127110543Y-119058044D01*
X127131613Y-119048079D01*
X127153557Y-119040227D01*
X127176166Y-119034563D01*
X127199221Y-119031144D01*
X127222500Y-119030000D01*
X127697500Y-119030000D01*
X127720779Y-119031144D01*
G37*
G36*
X127720779Y-120856144D02*
G01*
X127743834Y-120859563D01*
X127766443Y-120865227D01*
X127788387Y-120873079D01*
X127809457Y-120883044D01*
X127829448Y-120895026D01*
X127848168Y-120908910D01*
X127865438Y-120924562D01*
X127881090Y-120941832D01*
X127894974Y-120960552D01*
X127906956Y-120980543D01*
X127916921Y-121001613D01*
X127924773Y-121023557D01*
X127930437Y-121046166D01*
X127933856Y-121069221D01*
X127935000Y-121092500D01*
X127935000Y-121592500D01*
X127933856Y-121615779D01*
X127930437Y-121638834D01*
X127924773Y-121661443D01*
X127916921Y-121683387D01*
X127906956Y-121704457D01*
X127894974Y-121724448D01*
X127881090Y-121743168D01*
X127865438Y-121760438D01*
X127848168Y-121776090D01*
X127829448Y-121789974D01*
X127809457Y-121801956D01*
X127788387Y-121811921D01*
X127766443Y-121819773D01*
X127743834Y-121825437D01*
X127720779Y-121828856D01*
X127697500Y-121830000D01*
X127222500Y-121830000D01*
X127199221Y-121828856D01*
X127176166Y-121825437D01*
X127153557Y-121819773D01*
X127131613Y-121811921D01*
X127110543Y-121801956D01*
X127090552Y-121789974D01*
X127071832Y-121776090D01*
X127054562Y-121760438D01*
X127038910Y-121743168D01*
X127025026Y-121724448D01*
X127013044Y-121704457D01*
X127003079Y-121683387D01*
X126995227Y-121661443D01*
X126989563Y-121638834D01*
X126986144Y-121615779D01*
X126985000Y-121592500D01*
X126985000Y-121092500D01*
X126986144Y-121069221D01*
X126989563Y-121046166D01*
X126995227Y-121023557D01*
X127003079Y-121001613D01*
X127013044Y-120980543D01*
X127025026Y-120960552D01*
X127038910Y-120941832D01*
X127054562Y-120924562D01*
X127071832Y-120908910D01*
X127090552Y-120895026D01*
X127110543Y-120883044D01*
X127131613Y-120873079D01*
X127153557Y-120865227D01*
X127176166Y-120859563D01*
X127199221Y-120856144D01*
X127222500Y-120855000D01*
X127697500Y-120855000D01*
X127720779Y-120856144D01*
G37*
G36*
X121564505Y-122341204D02*
G01*
X121588773Y-122344804D01*
X121612572Y-122350765D01*
X121635671Y-122359030D01*
X121657850Y-122369520D01*
X121678893Y-122382132D01*
X121698599Y-122396747D01*
X121716777Y-122413223D01*
X121733253Y-122431401D01*
X121747868Y-122451107D01*
X121760480Y-122472150D01*
X121770970Y-122494329D01*
X121779235Y-122517428D01*
X121785196Y-122541227D01*
X121788796Y-122565495D01*
X121790000Y-122589999D01*
X121790000Y-123290001D01*
X121788796Y-123314505D01*
X121785196Y-123338773D01*
X121779235Y-123362572D01*
X121770970Y-123385671D01*
X121760480Y-123407850D01*
X121747868Y-123428893D01*
X121733253Y-123448599D01*
X121716777Y-123466777D01*
X121698599Y-123483253D01*
X121678893Y-123497868D01*
X121657850Y-123510480D01*
X121635671Y-123520970D01*
X121612572Y-123529235D01*
X121588773Y-123535196D01*
X121564505Y-123538796D01*
X121540001Y-123540000D01*
X120639999Y-123540000D01*
X120615495Y-123538796D01*
X120591227Y-123535196D01*
X120567428Y-123529235D01*
X120544329Y-123520970D01*
X120522150Y-123510480D01*
X120501107Y-123497868D01*
X120481401Y-123483253D01*
X120463223Y-123466777D01*
X120446747Y-123448599D01*
X120432132Y-123428893D01*
X120419520Y-123407850D01*
X120409030Y-123385671D01*
X120400765Y-123362572D01*
X120394804Y-123338773D01*
X120391204Y-123314505D01*
X120390000Y-123290001D01*
X120390000Y-122589999D01*
X120391204Y-122565495D01*
X120394804Y-122541227D01*
X120400765Y-122517428D01*
X120409030Y-122494329D01*
X120419520Y-122472150D01*
X120432132Y-122451107D01*
X120446747Y-122431401D01*
X120463223Y-122413223D01*
X120481401Y-122396747D01*
X120501107Y-122382132D01*
X120522150Y-122369520D01*
X120544329Y-122359030D01*
X120567428Y-122350765D01*
X120591227Y-122344804D01*
X120615495Y-122341204D01*
X120639999Y-122340000D01*
X121540001Y-122340000D01*
X121564505Y-122341204D01*
G37*
G36*
X121564505Y-124341204D02*
G01*
X121588773Y-124344804D01*
X121612572Y-124350765D01*
X121635671Y-124359030D01*
X121657850Y-124369520D01*
X121678893Y-124382132D01*
X121698599Y-124396747D01*
X121716777Y-124413223D01*
X121733253Y-124431401D01*
X121747868Y-124451107D01*
X121760480Y-124472150D01*
X121770970Y-124494329D01*
X121779235Y-124517428D01*
X121785196Y-124541227D01*
X121788796Y-124565495D01*
X121790000Y-124589999D01*
X121790000Y-125290001D01*
X121788796Y-125314505D01*
X121785196Y-125338773D01*
X121779235Y-125362572D01*
X121770970Y-125385671D01*
X121760480Y-125407850D01*
X121747868Y-125428893D01*
X121733253Y-125448599D01*
X121716777Y-125466777D01*
X121698599Y-125483253D01*
X121678893Y-125497868D01*
X121657850Y-125510480D01*
X121635671Y-125520970D01*
X121612572Y-125529235D01*
X121588773Y-125535196D01*
X121564505Y-125538796D01*
X121540001Y-125540000D01*
X120639999Y-125540000D01*
X120615495Y-125538796D01*
X120591227Y-125535196D01*
X120567428Y-125529235D01*
X120544329Y-125520970D01*
X120522150Y-125510480D01*
X120501107Y-125497868D01*
X120481401Y-125483253D01*
X120463223Y-125466777D01*
X120446747Y-125448599D01*
X120432132Y-125428893D01*
X120419520Y-125407850D01*
X120409030Y-125385671D01*
X120400765Y-125362572D01*
X120394804Y-125338773D01*
X120391204Y-125314505D01*
X120390000Y-125290001D01*
X120390000Y-124589999D01*
X120391204Y-124565495D01*
X120394804Y-124541227D01*
X120400765Y-124517428D01*
X120409030Y-124494329D01*
X120419520Y-124472150D01*
X120432132Y-124451107D01*
X120446747Y-124431401D01*
X120463223Y-124413223D01*
X120481401Y-124396747D01*
X120501107Y-124382132D01*
X120522150Y-124369520D01*
X120544329Y-124359030D01*
X120567428Y-124350765D01*
X120591227Y-124344804D01*
X120615495Y-124341204D01*
X120639999Y-124340000D01*
X121540001Y-124340000D01*
X121564505Y-124341204D01*
G37*
G36*
X127454505Y-131151204D02*
G01*
X127478773Y-131154804D01*
X127502572Y-131160765D01*
X127525671Y-131169030D01*
X127547850Y-131179520D01*
X127568893Y-131192132D01*
X127588599Y-131206747D01*
X127606777Y-131223223D01*
X127623253Y-131241401D01*
X127637868Y-131261107D01*
X127650480Y-131282150D01*
X127660970Y-131304329D01*
X127669235Y-131327428D01*
X127675196Y-131351227D01*
X127678796Y-131375495D01*
X127680000Y-131399999D01*
X127680000Y-132300001D01*
X127678796Y-132324505D01*
X127675196Y-132348773D01*
X127669235Y-132372572D01*
X127660970Y-132395671D01*
X127650480Y-132417850D01*
X127637868Y-132438893D01*
X127623253Y-132458599D01*
X127606777Y-132476777D01*
X127588599Y-132493253D01*
X127568893Y-132507868D01*
X127547850Y-132520480D01*
X127525671Y-132530970D01*
X127502572Y-132539235D01*
X127478773Y-132545196D01*
X127454505Y-132548796D01*
X127430001Y-132550000D01*
X126729999Y-132550000D01*
X126705495Y-132548796D01*
X126681227Y-132545196D01*
X126657428Y-132539235D01*
X126634329Y-132530970D01*
X126612150Y-132520480D01*
X126591107Y-132507868D01*
X126571401Y-132493253D01*
X126553223Y-132476777D01*
X126536747Y-132458599D01*
X126522132Y-132438893D01*
X126509520Y-132417850D01*
X126499030Y-132395671D01*
X126490765Y-132372572D01*
X126484804Y-132348773D01*
X126481204Y-132324505D01*
X126480000Y-132300001D01*
X126480000Y-131399999D01*
X126481204Y-131375495D01*
X126484804Y-131351227D01*
X126490765Y-131327428D01*
X126499030Y-131304329D01*
X126509520Y-131282150D01*
X126522132Y-131261107D01*
X126536747Y-131241401D01*
X126553223Y-131223223D01*
X126571401Y-131206747D01*
X126591107Y-131192132D01*
X126612150Y-131179520D01*
X126634329Y-131169030D01*
X126657428Y-131160765D01*
X126681227Y-131154804D01*
X126705495Y-131151204D01*
X126729999Y-131150000D01*
X127430001Y-131150000D01*
X127454505Y-131151204D01*
G37*
G36*
X129454505Y-131151204D02*
G01*
X129478773Y-131154804D01*
X129502572Y-131160765D01*
X129525671Y-131169030D01*
X129547850Y-131179520D01*
X129568893Y-131192132D01*
X129588599Y-131206747D01*
X129606777Y-131223223D01*
X129623253Y-131241401D01*
X129637868Y-131261107D01*
X129650480Y-131282150D01*
X129660970Y-131304329D01*
X129669235Y-131327428D01*
X129675196Y-131351227D01*
X129678796Y-131375495D01*
X129680000Y-131399999D01*
X129680000Y-132300001D01*
X129678796Y-132324505D01*
X129675196Y-132348773D01*
X129669235Y-132372572D01*
X129660970Y-132395671D01*
X129650480Y-132417850D01*
X129637868Y-132438893D01*
X129623253Y-132458599D01*
X129606777Y-132476777D01*
X129588599Y-132493253D01*
X129568893Y-132507868D01*
X129547850Y-132520480D01*
X129525671Y-132530970D01*
X129502572Y-132539235D01*
X129478773Y-132545196D01*
X129454505Y-132548796D01*
X129430001Y-132550000D01*
X128729999Y-132550000D01*
X128705495Y-132548796D01*
X128681227Y-132545196D01*
X128657428Y-132539235D01*
X128634329Y-132530970D01*
X128612150Y-132520480D01*
X128591107Y-132507868D01*
X128571401Y-132493253D01*
X128553223Y-132476777D01*
X128536747Y-132458599D01*
X128522132Y-132438893D01*
X128509520Y-132417850D01*
X128499030Y-132395671D01*
X128490765Y-132372572D01*
X128484804Y-132348773D01*
X128481204Y-132324505D01*
X128480000Y-132300001D01*
X128480000Y-131399999D01*
X128481204Y-131375495D01*
X128484804Y-131351227D01*
X128490765Y-131327428D01*
X128499030Y-131304329D01*
X128509520Y-131282150D01*
X128522132Y-131261107D01*
X128536747Y-131241401D01*
X128553223Y-131223223D01*
X128571401Y-131206747D01*
X128591107Y-131192132D01*
X128612150Y-131179520D01*
X128634329Y-131169030D01*
X128657428Y-131160765D01*
X128681227Y-131154804D01*
X128705495Y-131151204D01*
X128729999Y-131150000D01*
X129430001Y-131150000D01*
X129454505Y-131151204D01*
G37*
G36*
X121330779Y-131266144D02*
G01*
X121353834Y-131269563D01*
X121376443Y-131275227D01*
X121398387Y-131283079D01*
X121419457Y-131293044D01*
X121439448Y-131305026D01*
X121458168Y-131318910D01*
X121475438Y-131334562D01*
X121491090Y-131351832D01*
X121504974Y-131370552D01*
X121516956Y-131390543D01*
X121526921Y-131411613D01*
X121534773Y-131433557D01*
X121540437Y-131456166D01*
X121543856Y-131479221D01*
X121545000Y-131502500D01*
X121545000Y-131977500D01*
X121543856Y-132000779D01*
X121540437Y-132023834D01*
X121534773Y-132046443D01*
X121526921Y-132068387D01*
X121516956Y-132089457D01*
X121504974Y-132109448D01*
X121491090Y-132128168D01*
X121475438Y-132145438D01*
X121458168Y-132161090D01*
X121439448Y-132174974D01*
X121419457Y-132186956D01*
X121398387Y-132196921D01*
X121376443Y-132204773D01*
X121353834Y-132210437D01*
X121330779Y-132213856D01*
X121307500Y-132215000D01*
X120807500Y-132215000D01*
X120784221Y-132213856D01*
X120761166Y-132210437D01*
X120738557Y-132204773D01*
X120716613Y-132196921D01*
X120695543Y-132186956D01*
X120675552Y-132174974D01*
X120656832Y-132161090D01*
X120639562Y-132145438D01*
X120623910Y-132128168D01*
X120610026Y-132109448D01*
X120598044Y-132089457D01*
X120588079Y-132068387D01*
X120580227Y-132046443D01*
X120574563Y-132023834D01*
X120571144Y-132000779D01*
X120570000Y-131977500D01*
X120570000Y-131502500D01*
X120571144Y-131479221D01*
X120574563Y-131456166D01*
X120580227Y-131433557D01*
X120588079Y-131411613D01*
X120598044Y-131390543D01*
X120610026Y-131370552D01*
X120623910Y-131351832D01*
X120639562Y-131334562D01*
X120656832Y-131318910D01*
X120675552Y-131305026D01*
X120695543Y-131293044D01*
X120716613Y-131283079D01*
X120738557Y-131275227D01*
X120761166Y-131269563D01*
X120784221Y-131266144D01*
X120807500Y-131265000D01*
X121307500Y-131265000D01*
X121330779Y-131266144D01*
G37*
G36*
X123155779Y-131266144D02*
G01*
X123178834Y-131269563D01*
X123201443Y-131275227D01*
X123223387Y-131283079D01*
X123244457Y-131293044D01*
X123264448Y-131305026D01*
X123283168Y-131318910D01*
X123300438Y-131334562D01*
X123316090Y-131351832D01*
X123329974Y-131370552D01*
X123341956Y-131390543D01*
X123351921Y-131411613D01*
X123359773Y-131433557D01*
X123365437Y-131456166D01*
X123368856Y-131479221D01*
X123370000Y-131502500D01*
X123370000Y-131977500D01*
X123368856Y-132000779D01*
X123365437Y-132023834D01*
X123359773Y-132046443D01*
X123351921Y-132068387D01*
X123341956Y-132089457D01*
X123329974Y-132109448D01*
X123316090Y-132128168D01*
X123300438Y-132145438D01*
X123283168Y-132161090D01*
X123264448Y-132174974D01*
X123244457Y-132186956D01*
X123223387Y-132196921D01*
X123201443Y-132204773D01*
X123178834Y-132210437D01*
X123155779Y-132213856D01*
X123132500Y-132215000D01*
X122632500Y-132215000D01*
X122609221Y-132213856D01*
X122586166Y-132210437D01*
X122563557Y-132204773D01*
X122541613Y-132196921D01*
X122520543Y-132186956D01*
X122500552Y-132174974D01*
X122481832Y-132161090D01*
X122464562Y-132145438D01*
X122448910Y-132128168D01*
X122435026Y-132109448D01*
X122423044Y-132089457D01*
X122413079Y-132068387D01*
X122405227Y-132046443D01*
X122399563Y-132023834D01*
X122396144Y-132000779D01*
X122395000Y-131977500D01*
X122395000Y-131502500D01*
X122396144Y-131479221D01*
X122399563Y-131456166D01*
X122405227Y-131433557D01*
X122413079Y-131411613D01*
X122423044Y-131390543D01*
X122435026Y-131370552D01*
X122448910Y-131351832D01*
X122464562Y-131334562D01*
X122481832Y-131318910D01*
X122500552Y-131305026D01*
X122520543Y-131293044D01*
X122541613Y-131283079D01*
X122563557Y-131275227D01*
X122586166Y-131269563D01*
X122609221Y-131266144D01*
X122632500Y-131265000D01*
X123132500Y-131265000D01*
X123155779Y-131266144D01*
G37*
G36*
X118424505Y-118641204D02*
G01*
X118448773Y-118644804D01*
X118472572Y-118650765D01*
X118495671Y-118659030D01*
X118517850Y-118669520D01*
X118538893Y-118682132D01*
X118558599Y-118696747D01*
X118576777Y-118713223D01*
X118593253Y-118731401D01*
X118607868Y-118751107D01*
X118620480Y-118772150D01*
X118630970Y-118794329D01*
X118639235Y-118817428D01*
X118645196Y-118841227D01*
X118648796Y-118865495D01*
X118650000Y-118889999D01*
X118650000Y-119790001D01*
X118648796Y-119814505D01*
X118645196Y-119838773D01*
X118639235Y-119862572D01*
X118630970Y-119885671D01*
X118620480Y-119907850D01*
X118607868Y-119928893D01*
X118593253Y-119948599D01*
X118576777Y-119966777D01*
X118558599Y-119983253D01*
X118538893Y-119997868D01*
X118517850Y-120010480D01*
X118495671Y-120020970D01*
X118472572Y-120029235D01*
X118448773Y-120035196D01*
X118424505Y-120038796D01*
X118400001Y-120040000D01*
X117699999Y-120040000D01*
X117675495Y-120038796D01*
X117651227Y-120035196D01*
X117627428Y-120029235D01*
X117604329Y-120020970D01*
X117582150Y-120010480D01*
X117561107Y-119997868D01*
X117541401Y-119983253D01*
X117523223Y-119966777D01*
X117506747Y-119948599D01*
X117492132Y-119928893D01*
X117479520Y-119907850D01*
X117469030Y-119885671D01*
X117460765Y-119862572D01*
X117454804Y-119838773D01*
X117451204Y-119814505D01*
X117450000Y-119790001D01*
X117450000Y-118889999D01*
X117451204Y-118865495D01*
X117454804Y-118841227D01*
X117460765Y-118817428D01*
X117469030Y-118794329D01*
X117479520Y-118772150D01*
X117492132Y-118751107D01*
X117506747Y-118731401D01*
X117523223Y-118713223D01*
X117541401Y-118696747D01*
X117561107Y-118682132D01*
X117582150Y-118669520D01*
X117604329Y-118659030D01*
X117627428Y-118650765D01*
X117651227Y-118644804D01*
X117675495Y-118641204D01*
X117699999Y-118640000D01*
X118400001Y-118640000D01*
X118424505Y-118641204D01*
G37*
G36*
X116424505Y-118641204D02*
G01*
X116448773Y-118644804D01*
X116472572Y-118650765D01*
X116495671Y-118659030D01*
X116517850Y-118669520D01*
X116538893Y-118682132D01*
X116558599Y-118696747D01*
X116576777Y-118713223D01*
X116593253Y-118731401D01*
X116607868Y-118751107D01*
X116620480Y-118772150D01*
X116630970Y-118794329D01*
X116639235Y-118817428D01*
X116645196Y-118841227D01*
X116648796Y-118865495D01*
X116650000Y-118889999D01*
X116650000Y-119790001D01*
X116648796Y-119814505D01*
X116645196Y-119838773D01*
X116639235Y-119862572D01*
X116630970Y-119885671D01*
X116620480Y-119907850D01*
X116607868Y-119928893D01*
X116593253Y-119948599D01*
X116576777Y-119966777D01*
X116558599Y-119983253D01*
X116538893Y-119997868D01*
X116517850Y-120010480D01*
X116495671Y-120020970D01*
X116472572Y-120029235D01*
X116448773Y-120035196D01*
X116424505Y-120038796D01*
X116400001Y-120040000D01*
X115699999Y-120040000D01*
X115675495Y-120038796D01*
X115651227Y-120035196D01*
X115627428Y-120029235D01*
X115604329Y-120020970D01*
X115582150Y-120010480D01*
X115561107Y-119997868D01*
X115541401Y-119983253D01*
X115523223Y-119966777D01*
X115506747Y-119948599D01*
X115492132Y-119928893D01*
X115479520Y-119907850D01*
X115469030Y-119885671D01*
X115460765Y-119862572D01*
X115454804Y-119838773D01*
X115451204Y-119814505D01*
X115450000Y-119790001D01*
X115450000Y-118889999D01*
X115451204Y-118865495D01*
X115454804Y-118841227D01*
X115460765Y-118817428D01*
X115469030Y-118794329D01*
X115479520Y-118772150D01*
X115492132Y-118751107D01*
X115506747Y-118731401D01*
X115523223Y-118713223D01*
X115541401Y-118696747D01*
X115561107Y-118682132D01*
X115582150Y-118669520D01*
X115604329Y-118659030D01*
X115627428Y-118650765D01*
X115651227Y-118644804D01*
X115675495Y-118641204D01*
X115699999Y-118640000D01*
X116400001Y-118640000D01*
X116424505Y-118641204D01*
G37*
G36*
X118904505Y-128541204D02*
G01*
X118928773Y-128544804D01*
X118952572Y-128550765D01*
X118975671Y-128559030D01*
X118997850Y-128569520D01*
X119018893Y-128582132D01*
X119038599Y-128596747D01*
X119056777Y-128613223D01*
X119073253Y-128631401D01*
X119087868Y-128651107D01*
X119100480Y-128672150D01*
X119110970Y-128694329D01*
X119119235Y-128717428D01*
X119125196Y-128741227D01*
X119128796Y-128765495D01*
X119130000Y-128789999D01*
X119130000Y-129490001D01*
X119128796Y-129514505D01*
X119125196Y-129538773D01*
X119119235Y-129562572D01*
X119110970Y-129585671D01*
X119100480Y-129607850D01*
X119087868Y-129628893D01*
X119073253Y-129648599D01*
X119056777Y-129666777D01*
X119038599Y-129683253D01*
X119018893Y-129697868D01*
X118997850Y-129710480D01*
X118975671Y-129720970D01*
X118952572Y-129729235D01*
X118928773Y-129735196D01*
X118904505Y-129738796D01*
X118880001Y-129740000D01*
X117979999Y-129740000D01*
X117955495Y-129738796D01*
X117931227Y-129735196D01*
X117907428Y-129729235D01*
X117884329Y-129720970D01*
X117862150Y-129710480D01*
X117841107Y-129697868D01*
X117821401Y-129683253D01*
X117803223Y-129666777D01*
X117786747Y-129648599D01*
X117772132Y-129628893D01*
X117759520Y-129607850D01*
X117749030Y-129585671D01*
X117740765Y-129562572D01*
X117734804Y-129538773D01*
X117731204Y-129514505D01*
X117730000Y-129490001D01*
X117730000Y-128789999D01*
X117731204Y-128765495D01*
X117734804Y-128741227D01*
X117740765Y-128717428D01*
X117749030Y-128694329D01*
X117759520Y-128672150D01*
X117772132Y-128651107D01*
X117786747Y-128631401D01*
X117803223Y-128613223D01*
X117821401Y-128596747D01*
X117841107Y-128582132D01*
X117862150Y-128569520D01*
X117884329Y-128559030D01*
X117907428Y-128550765D01*
X117931227Y-128544804D01*
X117955495Y-128541204D01*
X117979999Y-128540000D01*
X118880001Y-128540000D01*
X118904505Y-128541204D01*
G37*
G36*
X118904505Y-126541204D02*
G01*
X118928773Y-126544804D01*
X118952572Y-126550765D01*
X118975671Y-126559030D01*
X118997850Y-126569520D01*
X119018893Y-126582132D01*
X119038599Y-126596747D01*
X119056777Y-126613223D01*
X119073253Y-126631401D01*
X119087868Y-126651107D01*
X119100480Y-126672150D01*
X119110970Y-126694329D01*
X119119235Y-126717428D01*
X119125196Y-126741227D01*
X119128796Y-126765495D01*
X119130000Y-126789999D01*
X119130000Y-127490001D01*
X119128796Y-127514505D01*
X119125196Y-127538773D01*
X119119235Y-127562572D01*
X119110970Y-127585671D01*
X119100480Y-127607850D01*
X119087868Y-127628893D01*
X119073253Y-127648599D01*
X119056777Y-127666777D01*
X119038599Y-127683253D01*
X119018893Y-127697868D01*
X118997850Y-127710480D01*
X118975671Y-127720970D01*
X118952572Y-127729235D01*
X118928773Y-127735196D01*
X118904505Y-127738796D01*
X118880001Y-127740000D01*
X117979999Y-127740000D01*
X117955495Y-127738796D01*
X117931227Y-127735196D01*
X117907428Y-127729235D01*
X117884329Y-127720970D01*
X117862150Y-127710480D01*
X117841107Y-127697868D01*
X117821401Y-127683253D01*
X117803223Y-127666777D01*
X117786747Y-127648599D01*
X117772132Y-127628893D01*
X117759520Y-127607850D01*
X117749030Y-127585671D01*
X117740765Y-127562572D01*
X117734804Y-127538773D01*
X117731204Y-127514505D01*
X117730000Y-127490001D01*
X117730000Y-126789999D01*
X117731204Y-126765495D01*
X117734804Y-126741227D01*
X117740765Y-126717428D01*
X117749030Y-126694329D01*
X117759520Y-126672150D01*
X117772132Y-126651107D01*
X117786747Y-126631401D01*
X117803223Y-126613223D01*
X117821401Y-126596747D01*
X117841107Y-126582132D01*
X117862150Y-126569520D01*
X117884329Y-126559030D01*
X117907428Y-126550765D01*
X117931227Y-126544804D01*
X117955495Y-126541204D01*
X117979999Y-126540000D01*
X118880001Y-126540000D01*
X118904505Y-126541204D01*
G37*
G36*
X136094505Y-129201204D02*
G01*
X136118773Y-129204804D01*
X136142572Y-129210765D01*
X136165671Y-129219030D01*
X136187850Y-129229520D01*
X136208893Y-129242132D01*
X136228599Y-129256747D01*
X136246777Y-129273223D01*
X136263253Y-129291401D01*
X136277868Y-129311107D01*
X136290480Y-129332150D01*
X136300970Y-129354329D01*
X136309235Y-129377428D01*
X136315196Y-129401227D01*
X136318796Y-129425495D01*
X136320000Y-129449999D01*
X136320000Y-130150001D01*
X136318796Y-130174505D01*
X136315196Y-130198773D01*
X136309235Y-130222572D01*
X136300970Y-130245671D01*
X136290480Y-130267850D01*
X136277868Y-130288893D01*
X136263253Y-130308599D01*
X136246777Y-130326777D01*
X136228599Y-130343253D01*
X136208893Y-130357868D01*
X136187850Y-130370480D01*
X136165671Y-130380970D01*
X136142572Y-130389235D01*
X136118773Y-130395196D01*
X136094505Y-130398796D01*
X136070001Y-130400000D01*
X135169999Y-130400000D01*
X135145495Y-130398796D01*
X135121227Y-130395196D01*
X135097428Y-130389235D01*
X135074329Y-130380970D01*
X135052150Y-130370480D01*
X135031107Y-130357868D01*
X135011401Y-130343253D01*
X134993223Y-130326777D01*
X134976747Y-130308599D01*
X134962132Y-130288893D01*
X134949520Y-130267850D01*
X134939030Y-130245671D01*
X134930765Y-130222572D01*
X134924804Y-130198773D01*
X134921204Y-130174505D01*
X134920000Y-130150001D01*
X134920000Y-129449999D01*
X134921204Y-129425495D01*
X134924804Y-129401227D01*
X134930765Y-129377428D01*
X134939030Y-129354329D01*
X134949520Y-129332150D01*
X134962132Y-129311107D01*
X134976747Y-129291401D01*
X134993223Y-129273223D01*
X135011401Y-129256747D01*
X135031107Y-129242132D01*
X135052150Y-129229520D01*
X135074329Y-129219030D01*
X135097428Y-129210765D01*
X135121227Y-129204804D01*
X135145495Y-129201204D01*
X135169999Y-129200000D01*
X136070001Y-129200000D01*
X136094505Y-129201204D01*
G37*
G36*
X136094505Y-131201204D02*
G01*
X136118773Y-131204804D01*
X136142572Y-131210765D01*
X136165671Y-131219030D01*
X136187850Y-131229520D01*
X136208893Y-131242132D01*
X136228599Y-131256747D01*
X136246777Y-131273223D01*
X136263253Y-131291401D01*
X136277868Y-131311107D01*
X136290480Y-131332150D01*
X136300970Y-131354329D01*
X136309235Y-131377428D01*
X136315196Y-131401227D01*
X136318796Y-131425495D01*
X136320000Y-131449999D01*
X136320000Y-132150001D01*
X136318796Y-132174505D01*
X136315196Y-132198773D01*
X136309235Y-132222572D01*
X136300970Y-132245671D01*
X136290480Y-132267850D01*
X136277868Y-132288893D01*
X136263253Y-132308599D01*
X136246777Y-132326777D01*
X136228599Y-132343253D01*
X136208893Y-132357868D01*
X136187850Y-132370480D01*
X136165671Y-132380970D01*
X136142572Y-132389235D01*
X136118773Y-132395196D01*
X136094505Y-132398796D01*
X136070001Y-132400000D01*
X135169999Y-132400000D01*
X135145495Y-132398796D01*
X135121227Y-132395196D01*
X135097428Y-132389235D01*
X135074329Y-132380970D01*
X135052150Y-132370480D01*
X135031107Y-132357868D01*
X135011401Y-132343253D01*
X134993223Y-132326777D01*
X134976747Y-132308599D01*
X134962132Y-132288893D01*
X134949520Y-132267850D01*
X134939030Y-132245671D01*
X134930765Y-132222572D01*
X134924804Y-132198773D01*
X134921204Y-132174505D01*
X134920000Y-132150001D01*
X134920000Y-131449999D01*
X134921204Y-131425495D01*
X134924804Y-131401227D01*
X134930765Y-131377428D01*
X134939030Y-131354329D01*
X134949520Y-131332150D01*
X134962132Y-131311107D01*
X134976747Y-131291401D01*
X134993223Y-131273223D01*
X135011401Y-131256747D01*
X135031107Y-131242132D01*
X135052150Y-131229520D01*
X135074329Y-131219030D01*
X135097428Y-131210765D01*
X135121227Y-131204804D01*
X135145495Y-131201204D01*
X135169999Y-131200000D01*
X136070001Y-131200000D01*
X136094505Y-131201204D01*
G37*
G36*
X120564505Y-104621204D02*
G01*
X120588773Y-104624804D01*
X120612572Y-104630765D01*
X120635671Y-104639030D01*
X120657850Y-104649520D01*
X120678893Y-104662132D01*
X120698599Y-104676747D01*
X120716777Y-104693223D01*
X120733253Y-104711401D01*
X120747868Y-104731107D01*
X120760480Y-104752150D01*
X120770970Y-104774329D01*
X120779235Y-104797428D01*
X120785196Y-104821227D01*
X120788796Y-104845495D01*
X120790000Y-104869999D01*
X120790000Y-105770001D01*
X120788796Y-105794505D01*
X120785196Y-105818773D01*
X120779235Y-105842572D01*
X120770970Y-105865671D01*
X120760480Y-105887850D01*
X120747868Y-105908893D01*
X120733253Y-105928599D01*
X120716777Y-105946777D01*
X120698599Y-105963253D01*
X120678893Y-105977868D01*
X120657850Y-105990480D01*
X120635671Y-106000970D01*
X120612572Y-106009235D01*
X120588773Y-106015196D01*
X120564505Y-106018796D01*
X120540001Y-106020000D01*
X119839999Y-106020000D01*
X119815495Y-106018796D01*
X119791227Y-106015196D01*
X119767428Y-106009235D01*
X119744329Y-106000970D01*
X119722150Y-105990480D01*
X119701107Y-105977868D01*
X119681401Y-105963253D01*
X119663223Y-105946777D01*
X119646747Y-105928599D01*
X119632132Y-105908893D01*
X119619520Y-105887850D01*
X119609030Y-105865671D01*
X119600765Y-105842572D01*
X119594804Y-105818773D01*
X119591204Y-105794505D01*
X119590000Y-105770001D01*
X119590000Y-104869999D01*
X119591204Y-104845495D01*
X119594804Y-104821227D01*
X119600765Y-104797428D01*
X119609030Y-104774329D01*
X119619520Y-104752150D01*
X119632132Y-104731107D01*
X119646747Y-104711401D01*
X119663223Y-104693223D01*
X119681401Y-104676747D01*
X119701107Y-104662132D01*
X119722150Y-104649520D01*
X119744329Y-104639030D01*
X119767428Y-104630765D01*
X119791227Y-104624804D01*
X119815495Y-104621204D01*
X119839999Y-104620000D01*
X120540001Y-104620000D01*
X120564505Y-104621204D01*
G37*
G36*
X118564505Y-104621204D02*
G01*
X118588773Y-104624804D01*
X118612572Y-104630765D01*
X118635671Y-104639030D01*
X118657850Y-104649520D01*
X118678893Y-104662132D01*
X118698599Y-104676747D01*
X118716777Y-104693223D01*
X118733253Y-104711401D01*
X118747868Y-104731107D01*
X118760480Y-104752150D01*
X118770970Y-104774329D01*
X118779235Y-104797428D01*
X118785196Y-104821227D01*
X118788796Y-104845495D01*
X118790000Y-104869999D01*
X118790000Y-105770001D01*
X118788796Y-105794505D01*
X118785196Y-105818773D01*
X118779235Y-105842572D01*
X118770970Y-105865671D01*
X118760480Y-105887850D01*
X118747868Y-105908893D01*
X118733253Y-105928599D01*
X118716777Y-105946777D01*
X118698599Y-105963253D01*
X118678893Y-105977868D01*
X118657850Y-105990480D01*
X118635671Y-106000970D01*
X118612572Y-106009235D01*
X118588773Y-106015196D01*
X118564505Y-106018796D01*
X118540001Y-106020000D01*
X117839999Y-106020000D01*
X117815495Y-106018796D01*
X117791227Y-106015196D01*
X117767428Y-106009235D01*
X117744329Y-106000970D01*
X117722150Y-105990480D01*
X117701107Y-105977868D01*
X117681401Y-105963253D01*
X117663223Y-105946777D01*
X117646747Y-105928599D01*
X117632132Y-105908893D01*
X117619520Y-105887850D01*
X117609030Y-105865671D01*
X117600765Y-105842572D01*
X117594804Y-105818773D01*
X117591204Y-105794505D01*
X117590000Y-105770001D01*
X117590000Y-104869999D01*
X117591204Y-104845495D01*
X117594804Y-104821227D01*
X117600765Y-104797428D01*
X117609030Y-104774329D01*
X117619520Y-104752150D01*
X117632132Y-104731107D01*
X117646747Y-104711401D01*
X117663223Y-104693223D01*
X117681401Y-104676747D01*
X117701107Y-104662132D01*
X117722150Y-104649520D01*
X117744329Y-104639030D01*
X117767428Y-104630765D01*
X117791227Y-104624804D01*
X117815495Y-104621204D01*
X117839999Y-104620000D01*
X118540001Y-104620000D01*
X118564505Y-104621204D01*
G37*
G36*
X135814505Y-112371204D02*
G01*
X135838773Y-112374804D01*
X135862572Y-112380765D01*
X135885671Y-112389030D01*
X135907850Y-112399520D01*
X135928893Y-112412132D01*
X135948599Y-112426747D01*
X135966777Y-112443223D01*
X135983253Y-112461401D01*
X135997868Y-112481107D01*
X136010480Y-112502150D01*
X136020970Y-112524329D01*
X136029235Y-112547428D01*
X136035196Y-112571227D01*
X136038796Y-112595495D01*
X136040000Y-112619999D01*
X136040000Y-113320001D01*
X136038796Y-113344505D01*
X136035196Y-113368773D01*
X136029235Y-113392572D01*
X136020970Y-113415671D01*
X136010480Y-113437850D01*
X135997868Y-113458893D01*
X135983253Y-113478599D01*
X135966777Y-113496777D01*
X135948599Y-113513253D01*
X135928893Y-113527868D01*
X135907850Y-113540480D01*
X135885671Y-113550970D01*
X135862572Y-113559235D01*
X135838773Y-113565196D01*
X135814505Y-113568796D01*
X135790001Y-113570000D01*
X134889999Y-113570000D01*
X134865495Y-113568796D01*
X134841227Y-113565196D01*
X134817428Y-113559235D01*
X134794329Y-113550970D01*
X134772150Y-113540480D01*
X134751107Y-113527868D01*
X134731401Y-113513253D01*
X134713223Y-113496777D01*
X134696747Y-113478599D01*
X134682132Y-113458893D01*
X134669520Y-113437850D01*
X134659030Y-113415671D01*
X134650765Y-113392572D01*
X134644804Y-113368773D01*
X134641204Y-113344505D01*
X134640000Y-113320001D01*
X134640000Y-112619999D01*
X134641204Y-112595495D01*
X134644804Y-112571227D01*
X134650765Y-112547428D01*
X134659030Y-112524329D01*
X134669520Y-112502150D01*
X134682132Y-112481107D01*
X134696747Y-112461401D01*
X134713223Y-112443223D01*
X134731401Y-112426747D01*
X134751107Y-112412132D01*
X134772150Y-112399520D01*
X134794329Y-112389030D01*
X134817428Y-112380765D01*
X134841227Y-112374804D01*
X134865495Y-112371204D01*
X134889999Y-112370000D01*
X135790001Y-112370000D01*
X135814505Y-112371204D01*
G37*
G36*
X135814505Y-110371204D02*
G01*
X135838773Y-110374804D01*
X135862572Y-110380765D01*
X135885671Y-110389030D01*
X135907850Y-110399520D01*
X135928893Y-110412132D01*
X135948599Y-110426747D01*
X135966777Y-110443223D01*
X135983253Y-110461401D01*
X135997868Y-110481107D01*
X136010480Y-110502150D01*
X136020970Y-110524329D01*
X136029235Y-110547428D01*
X136035196Y-110571227D01*
X136038796Y-110595495D01*
X136040000Y-110619999D01*
X136040000Y-111320001D01*
X136038796Y-111344505D01*
X136035196Y-111368773D01*
X136029235Y-111392572D01*
X136020970Y-111415671D01*
X136010480Y-111437850D01*
X135997868Y-111458893D01*
X135983253Y-111478599D01*
X135966777Y-111496777D01*
X135948599Y-111513253D01*
X135928893Y-111527868D01*
X135907850Y-111540480D01*
X135885671Y-111550970D01*
X135862572Y-111559235D01*
X135838773Y-111565196D01*
X135814505Y-111568796D01*
X135790001Y-111570000D01*
X134889999Y-111570000D01*
X134865495Y-111568796D01*
X134841227Y-111565196D01*
X134817428Y-111559235D01*
X134794329Y-111550970D01*
X134772150Y-111540480D01*
X134751107Y-111527868D01*
X134731401Y-111513253D01*
X134713223Y-111496777D01*
X134696747Y-111478599D01*
X134682132Y-111458893D01*
X134669520Y-111437850D01*
X134659030Y-111415671D01*
X134650765Y-111392572D01*
X134644804Y-111368773D01*
X134641204Y-111344505D01*
X134640000Y-111320001D01*
X134640000Y-110619999D01*
X134641204Y-110595495D01*
X134644804Y-110571227D01*
X134650765Y-110547428D01*
X134659030Y-110524329D01*
X134669520Y-110502150D01*
X134682132Y-110481107D01*
X134696747Y-110461401D01*
X134713223Y-110443223D01*
X134731401Y-110426747D01*
X134751107Y-110412132D01*
X134772150Y-110399520D01*
X134794329Y-110389030D01*
X134817428Y-110380765D01*
X134841227Y-110374804D01*
X134865495Y-110371204D01*
X134889999Y-110370000D01*
X135790001Y-110370000D01*
X135814505Y-110371204D01*
G37*
G36*
X116344505Y-123481204D02*
G01*
X116368773Y-123484804D01*
X116392572Y-123490765D01*
X116415671Y-123499030D01*
X116437850Y-123509520D01*
X116458893Y-123522132D01*
X116478599Y-123536747D01*
X116496777Y-123553223D01*
X116513253Y-123571401D01*
X116527868Y-123591107D01*
X116540480Y-123612150D01*
X116550970Y-123634329D01*
X116559235Y-123657428D01*
X116565196Y-123681227D01*
X116568796Y-123705495D01*
X116570000Y-123729999D01*
X116570000Y-124630001D01*
X116568796Y-124654505D01*
X116565196Y-124678773D01*
X116559235Y-124702572D01*
X116550970Y-124725671D01*
X116540480Y-124747850D01*
X116527868Y-124768893D01*
X116513253Y-124788599D01*
X116496777Y-124806777D01*
X116478599Y-124823253D01*
X116458893Y-124837868D01*
X116437850Y-124850480D01*
X116415671Y-124860970D01*
X116392572Y-124869235D01*
X116368773Y-124875196D01*
X116344505Y-124878796D01*
X116320001Y-124880000D01*
X115619999Y-124880000D01*
X115595495Y-124878796D01*
X115571227Y-124875196D01*
X115547428Y-124869235D01*
X115524329Y-124860970D01*
X115502150Y-124850480D01*
X115481107Y-124837868D01*
X115461401Y-124823253D01*
X115443223Y-124806777D01*
X115426747Y-124788599D01*
X115412132Y-124768893D01*
X115399520Y-124747850D01*
X115389030Y-124725671D01*
X115380765Y-124702572D01*
X115374804Y-124678773D01*
X115371204Y-124654505D01*
X115370000Y-124630001D01*
X115370000Y-123729999D01*
X115371204Y-123705495D01*
X115374804Y-123681227D01*
X115380765Y-123657428D01*
X115389030Y-123634329D01*
X115399520Y-123612150D01*
X115412132Y-123591107D01*
X115426747Y-123571401D01*
X115443223Y-123553223D01*
X115461401Y-123536747D01*
X115481107Y-123522132D01*
X115502150Y-123509520D01*
X115524329Y-123499030D01*
X115547428Y-123490765D01*
X115571227Y-123484804D01*
X115595495Y-123481204D01*
X115619999Y-123480000D01*
X116320001Y-123480000D01*
X116344505Y-123481204D01*
G37*
G36*
X118344505Y-123481204D02*
G01*
X118368773Y-123484804D01*
X118392572Y-123490765D01*
X118415671Y-123499030D01*
X118437850Y-123509520D01*
X118458893Y-123522132D01*
X118478599Y-123536747D01*
X118496777Y-123553223D01*
X118513253Y-123571401D01*
X118527868Y-123591107D01*
X118540480Y-123612150D01*
X118550970Y-123634329D01*
X118559235Y-123657428D01*
X118565196Y-123681227D01*
X118568796Y-123705495D01*
X118570000Y-123729999D01*
X118570000Y-124630001D01*
X118568796Y-124654505D01*
X118565196Y-124678773D01*
X118559235Y-124702572D01*
X118550970Y-124725671D01*
X118540480Y-124747850D01*
X118527868Y-124768893D01*
X118513253Y-124788599D01*
X118496777Y-124806777D01*
X118478599Y-124823253D01*
X118458893Y-124837868D01*
X118437850Y-124850480D01*
X118415671Y-124860970D01*
X118392572Y-124869235D01*
X118368773Y-124875196D01*
X118344505Y-124878796D01*
X118320001Y-124880000D01*
X117619999Y-124880000D01*
X117595495Y-124878796D01*
X117571227Y-124875196D01*
X117547428Y-124869235D01*
X117524329Y-124860970D01*
X117502150Y-124850480D01*
X117481107Y-124837868D01*
X117461401Y-124823253D01*
X117443223Y-124806777D01*
X117426747Y-124788599D01*
X117412132Y-124768893D01*
X117399520Y-124747850D01*
X117389030Y-124725671D01*
X117380765Y-124702572D01*
X117374804Y-124678773D01*
X117371204Y-124654505D01*
X117370000Y-124630001D01*
X117370000Y-123729999D01*
X117371204Y-123705495D01*
X117374804Y-123681227D01*
X117380765Y-123657428D01*
X117389030Y-123634329D01*
X117399520Y-123612150D01*
X117412132Y-123591107D01*
X117426747Y-123571401D01*
X117443223Y-123553223D01*
X117461401Y-123536747D01*
X117481107Y-123522132D01*
X117502150Y-123509520D01*
X117524329Y-123499030D01*
X117547428Y-123490765D01*
X117571227Y-123484804D01*
X117595495Y-123481204D01*
X117619999Y-123480000D01*
X118320001Y-123480000D01*
X118344505Y-123481204D01*
G37*
G36*
X121154802Y-107990482D02*
G01*
X121164509Y-107991921D01*
X121174028Y-107994306D01*
X121183268Y-107997612D01*
X121192140Y-108001808D01*
X121200557Y-108006853D01*
X121208439Y-108012699D01*
X121215711Y-108019289D01*
X121222301Y-108026561D01*
X121228147Y-108034443D01*
X121233192Y-108042860D01*
X121237388Y-108051732D01*
X121240694Y-108060972D01*
X121243079Y-108070491D01*
X121244518Y-108080198D01*
X121245000Y-108090000D01*
X121245000Y-109440000D01*
X121244518Y-109449802D01*
X121243079Y-109459509D01*
X121240694Y-109469028D01*
X121237388Y-109478268D01*
X121233192Y-109487140D01*
X121228147Y-109495557D01*
X121222301Y-109503439D01*
X121215711Y-109510711D01*
X121208439Y-109517301D01*
X121200557Y-109523147D01*
X121192140Y-109528192D01*
X121183268Y-109532388D01*
X121174028Y-109535694D01*
X121164509Y-109538079D01*
X121154802Y-109539518D01*
X121145000Y-109540000D01*
X120945000Y-109540000D01*
X120935198Y-109539518D01*
X120925491Y-109538079D01*
X120915972Y-109535694D01*
X120906732Y-109532388D01*
X120897860Y-109528192D01*
X120889443Y-109523147D01*
X120881561Y-109517301D01*
X120874289Y-109510711D01*
X120867699Y-109503439D01*
X120861853Y-109495557D01*
X120856808Y-109487140D01*
X120852612Y-109478268D01*
X120849306Y-109469028D01*
X120846921Y-109459509D01*
X120845482Y-109449802D01*
X120845000Y-109440000D01*
X120845000Y-108090000D01*
X120845482Y-108080198D01*
X120846921Y-108070491D01*
X120849306Y-108060972D01*
X120852612Y-108051732D01*
X120856808Y-108042860D01*
X120861853Y-108034443D01*
X120867699Y-108026561D01*
X120874289Y-108019289D01*
X120881561Y-108012699D01*
X120889443Y-108006853D01*
X120897860Y-108001808D01*
X120906732Y-107997612D01*
X120915972Y-107994306D01*
X120925491Y-107991921D01*
X120935198Y-107990482D01*
X120945000Y-107990000D01*
X121145000Y-107990000D01*
X121154802Y-107990482D01*
G37*
G36*
X120504802Y-107990482D02*
G01*
X120514509Y-107991921D01*
X120524028Y-107994306D01*
X120533268Y-107997612D01*
X120542140Y-108001808D01*
X120550557Y-108006853D01*
X120558439Y-108012699D01*
X120565711Y-108019289D01*
X120572301Y-108026561D01*
X120578147Y-108034443D01*
X120583192Y-108042860D01*
X120587388Y-108051732D01*
X120590694Y-108060972D01*
X120593079Y-108070491D01*
X120594518Y-108080198D01*
X120595000Y-108090000D01*
X120595000Y-109440000D01*
X120594518Y-109449802D01*
X120593079Y-109459509D01*
X120590694Y-109469028D01*
X120587388Y-109478268D01*
X120583192Y-109487140D01*
X120578147Y-109495557D01*
X120572301Y-109503439D01*
X120565711Y-109510711D01*
X120558439Y-109517301D01*
X120550557Y-109523147D01*
X120542140Y-109528192D01*
X120533268Y-109532388D01*
X120524028Y-109535694D01*
X120514509Y-109538079D01*
X120504802Y-109539518D01*
X120495000Y-109540000D01*
X120295000Y-109540000D01*
X120285198Y-109539518D01*
X120275491Y-109538079D01*
X120265972Y-109535694D01*
X120256732Y-109532388D01*
X120247860Y-109528192D01*
X120239443Y-109523147D01*
X120231561Y-109517301D01*
X120224289Y-109510711D01*
X120217699Y-109503439D01*
X120211853Y-109495557D01*
X120206808Y-109487140D01*
X120202612Y-109478268D01*
X120199306Y-109469028D01*
X120196921Y-109459509D01*
X120195482Y-109449802D01*
X120195000Y-109440000D01*
X120195000Y-108090000D01*
X120195482Y-108080198D01*
X120196921Y-108070491D01*
X120199306Y-108060972D01*
X120202612Y-108051732D01*
X120206808Y-108042860D01*
X120211853Y-108034443D01*
X120217699Y-108026561D01*
X120224289Y-108019289D01*
X120231561Y-108012699D01*
X120239443Y-108006853D01*
X120247860Y-108001808D01*
X120256732Y-107997612D01*
X120265972Y-107994306D01*
X120275491Y-107991921D01*
X120285198Y-107990482D01*
X120295000Y-107990000D01*
X120495000Y-107990000D01*
X120504802Y-107990482D01*
G37*
G36*
X119854802Y-107990482D02*
G01*
X119864509Y-107991921D01*
X119874028Y-107994306D01*
X119883268Y-107997612D01*
X119892140Y-108001808D01*
X119900557Y-108006853D01*
X119908439Y-108012699D01*
X119915711Y-108019289D01*
X119922301Y-108026561D01*
X119928147Y-108034443D01*
X119933192Y-108042860D01*
X119937388Y-108051732D01*
X119940694Y-108060972D01*
X119943079Y-108070491D01*
X119944518Y-108080198D01*
X119945000Y-108090000D01*
X119945000Y-109440000D01*
X119944518Y-109449802D01*
X119943079Y-109459509D01*
X119940694Y-109469028D01*
X119937388Y-109478268D01*
X119933192Y-109487140D01*
X119928147Y-109495557D01*
X119922301Y-109503439D01*
X119915711Y-109510711D01*
X119908439Y-109517301D01*
X119900557Y-109523147D01*
X119892140Y-109528192D01*
X119883268Y-109532388D01*
X119874028Y-109535694D01*
X119864509Y-109538079D01*
X119854802Y-109539518D01*
X119845000Y-109540000D01*
X119645000Y-109540000D01*
X119635198Y-109539518D01*
X119625491Y-109538079D01*
X119615972Y-109535694D01*
X119606732Y-109532388D01*
X119597860Y-109528192D01*
X119589443Y-109523147D01*
X119581561Y-109517301D01*
X119574289Y-109510711D01*
X119567699Y-109503439D01*
X119561853Y-109495557D01*
X119556808Y-109487140D01*
X119552612Y-109478268D01*
X119549306Y-109469028D01*
X119546921Y-109459509D01*
X119545482Y-109449802D01*
X119545000Y-109440000D01*
X119545000Y-108090000D01*
X119545482Y-108080198D01*
X119546921Y-108070491D01*
X119549306Y-108060972D01*
X119552612Y-108051732D01*
X119556808Y-108042860D01*
X119561853Y-108034443D01*
X119567699Y-108026561D01*
X119574289Y-108019289D01*
X119581561Y-108012699D01*
X119589443Y-108006853D01*
X119597860Y-108001808D01*
X119606732Y-107997612D01*
X119615972Y-107994306D01*
X119625491Y-107991921D01*
X119635198Y-107990482D01*
X119645000Y-107990000D01*
X119845000Y-107990000D01*
X119854802Y-107990482D01*
G37*
G36*
X119204802Y-107990482D02*
G01*
X119214509Y-107991921D01*
X119224028Y-107994306D01*
X119233268Y-107997612D01*
X119242140Y-108001808D01*
X119250557Y-108006853D01*
X119258439Y-108012699D01*
X119265711Y-108019289D01*
X119272301Y-108026561D01*
X119278147Y-108034443D01*
X119283192Y-108042860D01*
X119287388Y-108051732D01*
X119290694Y-108060972D01*
X119293079Y-108070491D01*
X119294518Y-108080198D01*
X119295000Y-108090000D01*
X119295000Y-109440000D01*
X119294518Y-109449802D01*
X119293079Y-109459509D01*
X119290694Y-109469028D01*
X119287388Y-109478268D01*
X119283192Y-109487140D01*
X119278147Y-109495557D01*
X119272301Y-109503439D01*
X119265711Y-109510711D01*
X119258439Y-109517301D01*
X119250557Y-109523147D01*
X119242140Y-109528192D01*
X119233268Y-109532388D01*
X119224028Y-109535694D01*
X119214509Y-109538079D01*
X119204802Y-109539518D01*
X119195000Y-109540000D01*
X118995000Y-109540000D01*
X118985198Y-109539518D01*
X118975491Y-109538079D01*
X118965972Y-109535694D01*
X118956732Y-109532388D01*
X118947860Y-109528192D01*
X118939443Y-109523147D01*
X118931561Y-109517301D01*
X118924289Y-109510711D01*
X118917699Y-109503439D01*
X118911853Y-109495557D01*
X118906808Y-109487140D01*
X118902612Y-109478268D01*
X118899306Y-109469028D01*
X118896921Y-109459509D01*
X118895482Y-109449802D01*
X118895000Y-109440000D01*
X118895000Y-108090000D01*
X118895482Y-108080198D01*
X118896921Y-108070491D01*
X118899306Y-108060972D01*
X118902612Y-108051732D01*
X118906808Y-108042860D01*
X118911853Y-108034443D01*
X118917699Y-108026561D01*
X118924289Y-108019289D01*
X118931561Y-108012699D01*
X118939443Y-108006853D01*
X118947860Y-108001808D01*
X118956732Y-107997612D01*
X118965972Y-107994306D01*
X118975491Y-107991921D01*
X118985198Y-107990482D01*
X118995000Y-107990000D01*
X119195000Y-107990000D01*
X119204802Y-107990482D01*
G37*
G36*
X118554802Y-107990482D02*
G01*
X118564509Y-107991921D01*
X118574028Y-107994306D01*
X118583268Y-107997612D01*
X118592140Y-108001808D01*
X118600557Y-108006853D01*
X118608439Y-108012699D01*
X118615711Y-108019289D01*
X118622301Y-108026561D01*
X118628147Y-108034443D01*
X118633192Y-108042860D01*
X118637388Y-108051732D01*
X118640694Y-108060972D01*
X118643079Y-108070491D01*
X118644518Y-108080198D01*
X118645000Y-108090000D01*
X118645000Y-109440000D01*
X118644518Y-109449802D01*
X118643079Y-109459509D01*
X118640694Y-109469028D01*
X118637388Y-109478268D01*
X118633192Y-109487140D01*
X118628147Y-109495557D01*
X118622301Y-109503439D01*
X118615711Y-109510711D01*
X118608439Y-109517301D01*
X118600557Y-109523147D01*
X118592140Y-109528192D01*
X118583268Y-109532388D01*
X118574028Y-109535694D01*
X118564509Y-109538079D01*
X118554802Y-109539518D01*
X118545000Y-109540000D01*
X118345000Y-109540000D01*
X118335198Y-109539518D01*
X118325491Y-109538079D01*
X118315972Y-109535694D01*
X118306732Y-109532388D01*
X118297860Y-109528192D01*
X118289443Y-109523147D01*
X118281561Y-109517301D01*
X118274289Y-109510711D01*
X118267699Y-109503439D01*
X118261853Y-109495557D01*
X118256808Y-109487140D01*
X118252612Y-109478268D01*
X118249306Y-109469028D01*
X118246921Y-109459509D01*
X118245482Y-109449802D01*
X118245000Y-109440000D01*
X118245000Y-108090000D01*
X118245482Y-108080198D01*
X118246921Y-108070491D01*
X118249306Y-108060972D01*
X118252612Y-108051732D01*
X118256808Y-108042860D01*
X118261853Y-108034443D01*
X118267699Y-108026561D01*
X118274289Y-108019289D01*
X118281561Y-108012699D01*
X118289443Y-108006853D01*
X118297860Y-108001808D01*
X118306732Y-107997612D01*
X118315972Y-107994306D01*
X118325491Y-107991921D01*
X118335198Y-107990482D01*
X118345000Y-107990000D01*
X118545000Y-107990000D01*
X118554802Y-107990482D01*
G37*
G36*
X117904802Y-107990482D02*
G01*
X117914509Y-107991921D01*
X117924028Y-107994306D01*
X117933268Y-107997612D01*
X117942140Y-108001808D01*
X117950557Y-108006853D01*
X117958439Y-108012699D01*
X117965711Y-108019289D01*
X117972301Y-108026561D01*
X117978147Y-108034443D01*
X117983192Y-108042860D01*
X117987388Y-108051732D01*
X117990694Y-108060972D01*
X117993079Y-108070491D01*
X117994518Y-108080198D01*
X117995000Y-108090000D01*
X117995000Y-109440000D01*
X117994518Y-109449802D01*
X117993079Y-109459509D01*
X117990694Y-109469028D01*
X117987388Y-109478268D01*
X117983192Y-109487140D01*
X117978147Y-109495557D01*
X117972301Y-109503439D01*
X117965711Y-109510711D01*
X117958439Y-109517301D01*
X117950557Y-109523147D01*
X117942140Y-109528192D01*
X117933268Y-109532388D01*
X117924028Y-109535694D01*
X117914509Y-109538079D01*
X117904802Y-109539518D01*
X117895000Y-109540000D01*
X117695000Y-109540000D01*
X117685198Y-109539518D01*
X117675491Y-109538079D01*
X117665972Y-109535694D01*
X117656732Y-109532388D01*
X117647860Y-109528192D01*
X117639443Y-109523147D01*
X117631561Y-109517301D01*
X117624289Y-109510711D01*
X117617699Y-109503439D01*
X117611853Y-109495557D01*
X117606808Y-109487140D01*
X117602612Y-109478268D01*
X117599306Y-109469028D01*
X117596921Y-109459509D01*
X117595482Y-109449802D01*
X117595000Y-109440000D01*
X117595000Y-108090000D01*
X117595482Y-108080198D01*
X117596921Y-108070491D01*
X117599306Y-108060972D01*
X117602612Y-108051732D01*
X117606808Y-108042860D01*
X117611853Y-108034443D01*
X117617699Y-108026561D01*
X117624289Y-108019289D01*
X117631561Y-108012699D01*
X117639443Y-108006853D01*
X117647860Y-108001808D01*
X117656732Y-107997612D01*
X117665972Y-107994306D01*
X117675491Y-107991921D01*
X117685198Y-107990482D01*
X117695000Y-107990000D01*
X117895000Y-107990000D01*
X117904802Y-107990482D01*
G37*
G36*
X117254802Y-107990482D02*
G01*
X117264509Y-107991921D01*
X117274028Y-107994306D01*
X117283268Y-107997612D01*
X117292140Y-108001808D01*
X117300557Y-108006853D01*
X117308439Y-108012699D01*
X117315711Y-108019289D01*
X117322301Y-108026561D01*
X117328147Y-108034443D01*
X117333192Y-108042860D01*
X117337388Y-108051732D01*
X117340694Y-108060972D01*
X117343079Y-108070491D01*
X117344518Y-108080198D01*
X117345000Y-108090000D01*
X117345000Y-109440000D01*
X117344518Y-109449802D01*
X117343079Y-109459509D01*
X117340694Y-109469028D01*
X117337388Y-109478268D01*
X117333192Y-109487140D01*
X117328147Y-109495557D01*
X117322301Y-109503439D01*
X117315711Y-109510711D01*
X117308439Y-109517301D01*
X117300557Y-109523147D01*
X117292140Y-109528192D01*
X117283268Y-109532388D01*
X117274028Y-109535694D01*
X117264509Y-109538079D01*
X117254802Y-109539518D01*
X117245000Y-109540000D01*
X117045000Y-109540000D01*
X117035198Y-109539518D01*
X117025491Y-109538079D01*
X117015972Y-109535694D01*
X117006732Y-109532388D01*
X116997860Y-109528192D01*
X116989443Y-109523147D01*
X116981561Y-109517301D01*
X116974289Y-109510711D01*
X116967699Y-109503439D01*
X116961853Y-109495557D01*
X116956808Y-109487140D01*
X116952612Y-109478268D01*
X116949306Y-109469028D01*
X116946921Y-109459509D01*
X116945482Y-109449802D01*
X116945000Y-109440000D01*
X116945000Y-108090000D01*
X116945482Y-108080198D01*
X116946921Y-108070491D01*
X116949306Y-108060972D01*
X116952612Y-108051732D01*
X116956808Y-108042860D01*
X116961853Y-108034443D01*
X116967699Y-108026561D01*
X116974289Y-108019289D01*
X116981561Y-108012699D01*
X116989443Y-108006853D01*
X116997860Y-108001808D01*
X117006732Y-107997612D01*
X117015972Y-107994306D01*
X117025491Y-107991921D01*
X117035198Y-107990482D01*
X117045000Y-107990000D01*
X117245000Y-107990000D01*
X117254802Y-107990482D01*
G37*
G36*
X116604802Y-107990482D02*
G01*
X116614509Y-107991921D01*
X116624028Y-107994306D01*
X116633268Y-107997612D01*
X116642140Y-108001808D01*
X116650557Y-108006853D01*
X116658439Y-108012699D01*
X116665711Y-108019289D01*
X116672301Y-108026561D01*
X116678147Y-108034443D01*
X116683192Y-108042860D01*
X116687388Y-108051732D01*
X116690694Y-108060972D01*
X116693079Y-108070491D01*
X116694518Y-108080198D01*
X116695000Y-108090000D01*
X116695000Y-109440000D01*
X116694518Y-109449802D01*
X116693079Y-109459509D01*
X116690694Y-109469028D01*
X116687388Y-109478268D01*
X116683192Y-109487140D01*
X116678147Y-109495557D01*
X116672301Y-109503439D01*
X116665711Y-109510711D01*
X116658439Y-109517301D01*
X116650557Y-109523147D01*
X116642140Y-109528192D01*
X116633268Y-109532388D01*
X116624028Y-109535694D01*
X116614509Y-109538079D01*
X116604802Y-109539518D01*
X116595000Y-109540000D01*
X116395000Y-109540000D01*
X116385198Y-109539518D01*
X116375491Y-109538079D01*
X116365972Y-109535694D01*
X116356732Y-109532388D01*
X116347860Y-109528192D01*
X116339443Y-109523147D01*
X116331561Y-109517301D01*
X116324289Y-109510711D01*
X116317699Y-109503439D01*
X116311853Y-109495557D01*
X116306808Y-109487140D01*
X116302612Y-109478268D01*
X116299306Y-109469028D01*
X116296921Y-109459509D01*
X116295482Y-109449802D01*
X116295000Y-109440000D01*
X116295000Y-108090000D01*
X116295482Y-108080198D01*
X116296921Y-108070491D01*
X116299306Y-108060972D01*
X116302612Y-108051732D01*
X116306808Y-108042860D01*
X116311853Y-108034443D01*
X116317699Y-108026561D01*
X116324289Y-108019289D01*
X116331561Y-108012699D01*
X116339443Y-108006853D01*
X116347860Y-108001808D01*
X116356732Y-107997612D01*
X116365972Y-107994306D01*
X116375491Y-107991921D01*
X116385198Y-107990482D01*
X116395000Y-107990000D01*
X116595000Y-107990000D01*
X116604802Y-107990482D01*
G37*
G36*
X116604802Y-113740482D02*
G01*
X116614509Y-113741921D01*
X116624028Y-113744306D01*
X116633268Y-113747612D01*
X116642140Y-113751808D01*
X116650557Y-113756853D01*
X116658439Y-113762699D01*
X116665711Y-113769289D01*
X116672301Y-113776561D01*
X116678147Y-113784443D01*
X116683192Y-113792860D01*
X116687388Y-113801732D01*
X116690694Y-113810972D01*
X116693079Y-113820491D01*
X116694518Y-113830198D01*
X116695000Y-113840000D01*
X116695000Y-115190000D01*
X116694518Y-115199802D01*
X116693079Y-115209509D01*
X116690694Y-115219028D01*
X116687388Y-115228268D01*
X116683192Y-115237140D01*
X116678147Y-115245557D01*
X116672301Y-115253439D01*
X116665711Y-115260711D01*
X116658439Y-115267301D01*
X116650557Y-115273147D01*
X116642140Y-115278192D01*
X116633268Y-115282388D01*
X116624028Y-115285694D01*
X116614509Y-115288079D01*
X116604802Y-115289518D01*
X116595000Y-115290000D01*
X116395000Y-115290000D01*
X116385198Y-115289518D01*
X116375491Y-115288079D01*
X116365972Y-115285694D01*
X116356732Y-115282388D01*
X116347860Y-115278192D01*
X116339443Y-115273147D01*
X116331561Y-115267301D01*
X116324289Y-115260711D01*
X116317699Y-115253439D01*
X116311853Y-115245557D01*
X116306808Y-115237140D01*
X116302612Y-115228268D01*
X116299306Y-115219028D01*
X116296921Y-115209509D01*
X116295482Y-115199802D01*
X116295000Y-115190000D01*
X116295000Y-113840000D01*
X116295482Y-113830198D01*
X116296921Y-113820491D01*
X116299306Y-113810972D01*
X116302612Y-113801732D01*
X116306808Y-113792860D01*
X116311853Y-113784443D01*
X116317699Y-113776561D01*
X116324289Y-113769289D01*
X116331561Y-113762699D01*
X116339443Y-113756853D01*
X116347860Y-113751808D01*
X116356732Y-113747612D01*
X116365972Y-113744306D01*
X116375491Y-113741921D01*
X116385198Y-113740482D01*
X116395000Y-113740000D01*
X116595000Y-113740000D01*
X116604802Y-113740482D01*
G37*
G36*
X117254802Y-113740482D02*
G01*
X117264509Y-113741921D01*
X117274028Y-113744306D01*
X117283268Y-113747612D01*
X117292140Y-113751808D01*
X117300557Y-113756853D01*
X117308439Y-113762699D01*
X117315711Y-113769289D01*
X117322301Y-113776561D01*
X117328147Y-113784443D01*
X117333192Y-113792860D01*
X117337388Y-113801732D01*
X117340694Y-113810972D01*
X117343079Y-113820491D01*
X117344518Y-113830198D01*
X117345000Y-113840000D01*
X117345000Y-115190000D01*
X117344518Y-115199802D01*
X117343079Y-115209509D01*
X117340694Y-115219028D01*
X117337388Y-115228268D01*
X117333192Y-115237140D01*
X117328147Y-115245557D01*
X117322301Y-115253439D01*
X117315711Y-115260711D01*
X117308439Y-115267301D01*
X117300557Y-115273147D01*
X117292140Y-115278192D01*
X117283268Y-115282388D01*
X117274028Y-115285694D01*
X117264509Y-115288079D01*
X117254802Y-115289518D01*
X117245000Y-115290000D01*
X117045000Y-115290000D01*
X117035198Y-115289518D01*
X117025491Y-115288079D01*
X117015972Y-115285694D01*
X117006732Y-115282388D01*
X116997860Y-115278192D01*
X116989443Y-115273147D01*
X116981561Y-115267301D01*
X116974289Y-115260711D01*
X116967699Y-115253439D01*
X116961853Y-115245557D01*
X116956808Y-115237140D01*
X116952612Y-115228268D01*
X116949306Y-115219028D01*
X116946921Y-115209509D01*
X116945482Y-115199802D01*
X116945000Y-115190000D01*
X116945000Y-113840000D01*
X116945482Y-113830198D01*
X116946921Y-113820491D01*
X116949306Y-113810972D01*
X116952612Y-113801732D01*
X116956808Y-113792860D01*
X116961853Y-113784443D01*
X116967699Y-113776561D01*
X116974289Y-113769289D01*
X116981561Y-113762699D01*
X116989443Y-113756853D01*
X116997860Y-113751808D01*
X117006732Y-113747612D01*
X117015972Y-113744306D01*
X117025491Y-113741921D01*
X117035198Y-113740482D01*
X117045000Y-113740000D01*
X117245000Y-113740000D01*
X117254802Y-113740482D01*
G37*
G36*
X117904802Y-113740482D02*
G01*
X117914509Y-113741921D01*
X117924028Y-113744306D01*
X117933268Y-113747612D01*
X117942140Y-113751808D01*
X117950557Y-113756853D01*
X117958439Y-113762699D01*
X117965711Y-113769289D01*
X117972301Y-113776561D01*
X117978147Y-113784443D01*
X117983192Y-113792860D01*
X117987388Y-113801732D01*
X117990694Y-113810972D01*
X117993079Y-113820491D01*
X117994518Y-113830198D01*
X117995000Y-113840000D01*
X117995000Y-115190000D01*
X117994518Y-115199802D01*
X117993079Y-115209509D01*
X117990694Y-115219028D01*
X117987388Y-115228268D01*
X117983192Y-115237140D01*
X117978147Y-115245557D01*
X117972301Y-115253439D01*
X117965711Y-115260711D01*
X117958439Y-115267301D01*
X117950557Y-115273147D01*
X117942140Y-115278192D01*
X117933268Y-115282388D01*
X117924028Y-115285694D01*
X117914509Y-115288079D01*
X117904802Y-115289518D01*
X117895000Y-115290000D01*
X117695000Y-115290000D01*
X117685198Y-115289518D01*
X117675491Y-115288079D01*
X117665972Y-115285694D01*
X117656732Y-115282388D01*
X117647860Y-115278192D01*
X117639443Y-115273147D01*
X117631561Y-115267301D01*
X117624289Y-115260711D01*
X117617699Y-115253439D01*
X117611853Y-115245557D01*
X117606808Y-115237140D01*
X117602612Y-115228268D01*
X117599306Y-115219028D01*
X117596921Y-115209509D01*
X117595482Y-115199802D01*
X117595000Y-115190000D01*
X117595000Y-113840000D01*
X117595482Y-113830198D01*
X117596921Y-113820491D01*
X117599306Y-113810972D01*
X117602612Y-113801732D01*
X117606808Y-113792860D01*
X117611853Y-113784443D01*
X117617699Y-113776561D01*
X117624289Y-113769289D01*
X117631561Y-113762699D01*
X117639443Y-113756853D01*
X117647860Y-113751808D01*
X117656732Y-113747612D01*
X117665972Y-113744306D01*
X117675491Y-113741921D01*
X117685198Y-113740482D01*
X117695000Y-113740000D01*
X117895000Y-113740000D01*
X117904802Y-113740482D01*
G37*
G36*
X118554802Y-113740482D02*
G01*
X118564509Y-113741921D01*
X118574028Y-113744306D01*
X118583268Y-113747612D01*
X118592140Y-113751808D01*
X118600557Y-113756853D01*
X118608439Y-113762699D01*
X118615711Y-113769289D01*
X118622301Y-113776561D01*
X118628147Y-113784443D01*
X118633192Y-113792860D01*
X118637388Y-113801732D01*
X118640694Y-113810972D01*
X118643079Y-113820491D01*
X118644518Y-113830198D01*
X118645000Y-113840000D01*
X118645000Y-115190000D01*
X118644518Y-115199802D01*
X118643079Y-115209509D01*
X118640694Y-115219028D01*
X118637388Y-115228268D01*
X118633192Y-115237140D01*
X118628147Y-115245557D01*
X118622301Y-115253439D01*
X118615711Y-115260711D01*
X118608439Y-115267301D01*
X118600557Y-115273147D01*
X118592140Y-115278192D01*
X118583268Y-115282388D01*
X118574028Y-115285694D01*
X118564509Y-115288079D01*
X118554802Y-115289518D01*
X118545000Y-115290000D01*
X118345000Y-115290000D01*
X118335198Y-115289518D01*
X118325491Y-115288079D01*
X118315972Y-115285694D01*
X118306732Y-115282388D01*
X118297860Y-115278192D01*
X118289443Y-115273147D01*
X118281561Y-115267301D01*
X118274289Y-115260711D01*
X118267699Y-115253439D01*
X118261853Y-115245557D01*
X118256808Y-115237140D01*
X118252612Y-115228268D01*
X118249306Y-115219028D01*
X118246921Y-115209509D01*
X118245482Y-115199802D01*
X118245000Y-115190000D01*
X118245000Y-113840000D01*
X118245482Y-113830198D01*
X118246921Y-113820491D01*
X118249306Y-113810972D01*
X118252612Y-113801732D01*
X118256808Y-113792860D01*
X118261853Y-113784443D01*
X118267699Y-113776561D01*
X118274289Y-113769289D01*
X118281561Y-113762699D01*
X118289443Y-113756853D01*
X118297860Y-113751808D01*
X118306732Y-113747612D01*
X118315972Y-113744306D01*
X118325491Y-113741921D01*
X118335198Y-113740482D01*
X118345000Y-113740000D01*
X118545000Y-113740000D01*
X118554802Y-113740482D01*
G37*
G36*
X119204802Y-113740482D02*
G01*
X119214509Y-113741921D01*
X119224028Y-113744306D01*
X119233268Y-113747612D01*
X119242140Y-113751808D01*
X119250557Y-113756853D01*
X119258439Y-113762699D01*
X119265711Y-113769289D01*
X119272301Y-113776561D01*
X119278147Y-113784443D01*
X119283192Y-113792860D01*
X119287388Y-113801732D01*
X119290694Y-113810972D01*
X119293079Y-113820491D01*
X119294518Y-113830198D01*
X119295000Y-113840000D01*
X119295000Y-115190000D01*
X119294518Y-115199802D01*
X119293079Y-115209509D01*
X119290694Y-115219028D01*
X119287388Y-115228268D01*
X119283192Y-115237140D01*
X119278147Y-115245557D01*
X119272301Y-115253439D01*
X119265711Y-115260711D01*
X119258439Y-115267301D01*
X119250557Y-115273147D01*
X119242140Y-115278192D01*
X119233268Y-115282388D01*
X119224028Y-115285694D01*
X119214509Y-115288079D01*
X119204802Y-115289518D01*
X119195000Y-115290000D01*
X118995000Y-115290000D01*
X118985198Y-115289518D01*
X118975491Y-115288079D01*
X118965972Y-115285694D01*
X118956732Y-115282388D01*
X118947860Y-115278192D01*
X118939443Y-115273147D01*
X118931561Y-115267301D01*
X118924289Y-115260711D01*
X118917699Y-115253439D01*
X118911853Y-115245557D01*
X118906808Y-115237140D01*
X118902612Y-115228268D01*
X118899306Y-115219028D01*
X118896921Y-115209509D01*
X118895482Y-115199802D01*
X118895000Y-115190000D01*
X118895000Y-113840000D01*
X118895482Y-113830198D01*
X118896921Y-113820491D01*
X118899306Y-113810972D01*
X118902612Y-113801732D01*
X118906808Y-113792860D01*
X118911853Y-113784443D01*
X118917699Y-113776561D01*
X118924289Y-113769289D01*
X118931561Y-113762699D01*
X118939443Y-113756853D01*
X118947860Y-113751808D01*
X118956732Y-113747612D01*
X118965972Y-113744306D01*
X118975491Y-113741921D01*
X118985198Y-113740482D01*
X118995000Y-113740000D01*
X119195000Y-113740000D01*
X119204802Y-113740482D01*
G37*
G36*
X119854802Y-113740482D02*
G01*
X119864509Y-113741921D01*
X119874028Y-113744306D01*
X119883268Y-113747612D01*
X119892140Y-113751808D01*
X119900557Y-113756853D01*
X119908439Y-113762699D01*
X119915711Y-113769289D01*
X119922301Y-113776561D01*
X119928147Y-113784443D01*
X119933192Y-113792860D01*
X119937388Y-113801732D01*
X119940694Y-113810972D01*
X119943079Y-113820491D01*
X119944518Y-113830198D01*
X119945000Y-113840000D01*
X119945000Y-115190000D01*
X119944518Y-115199802D01*
X119943079Y-115209509D01*
X119940694Y-115219028D01*
X119937388Y-115228268D01*
X119933192Y-115237140D01*
X119928147Y-115245557D01*
X119922301Y-115253439D01*
X119915711Y-115260711D01*
X119908439Y-115267301D01*
X119900557Y-115273147D01*
X119892140Y-115278192D01*
X119883268Y-115282388D01*
X119874028Y-115285694D01*
X119864509Y-115288079D01*
X119854802Y-115289518D01*
X119845000Y-115290000D01*
X119645000Y-115290000D01*
X119635198Y-115289518D01*
X119625491Y-115288079D01*
X119615972Y-115285694D01*
X119606732Y-115282388D01*
X119597860Y-115278192D01*
X119589443Y-115273147D01*
X119581561Y-115267301D01*
X119574289Y-115260711D01*
X119567699Y-115253439D01*
X119561853Y-115245557D01*
X119556808Y-115237140D01*
X119552612Y-115228268D01*
X119549306Y-115219028D01*
X119546921Y-115209509D01*
X119545482Y-115199802D01*
X119545000Y-115190000D01*
X119545000Y-113840000D01*
X119545482Y-113830198D01*
X119546921Y-113820491D01*
X119549306Y-113810972D01*
X119552612Y-113801732D01*
X119556808Y-113792860D01*
X119561853Y-113784443D01*
X119567699Y-113776561D01*
X119574289Y-113769289D01*
X119581561Y-113762699D01*
X119589443Y-113756853D01*
X119597860Y-113751808D01*
X119606732Y-113747612D01*
X119615972Y-113744306D01*
X119625491Y-113741921D01*
X119635198Y-113740482D01*
X119645000Y-113740000D01*
X119845000Y-113740000D01*
X119854802Y-113740482D01*
G37*
G36*
X120504802Y-113740482D02*
G01*
X120514509Y-113741921D01*
X120524028Y-113744306D01*
X120533268Y-113747612D01*
X120542140Y-113751808D01*
X120550557Y-113756853D01*
X120558439Y-113762699D01*
X120565711Y-113769289D01*
X120572301Y-113776561D01*
X120578147Y-113784443D01*
X120583192Y-113792860D01*
X120587388Y-113801732D01*
X120590694Y-113810972D01*
X120593079Y-113820491D01*
X120594518Y-113830198D01*
X120595000Y-113840000D01*
X120595000Y-115190000D01*
X120594518Y-115199802D01*
X120593079Y-115209509D01*
X120590694Y-115219028D01*
X120587388Y-115228268D01*
X120583192Y-115237140D01*
X120578147Y-115245557D01*
X120572301Y-115253439D01*
X120565711Y-115260711D01*
X120558439Y-115267301D01*
X120550557Y-115273147D01*
X120542140Y-115278192D01*
X120533268Y-115282388D01*
X120524028Y-115285694D01*
X120514509Y-115288079D01*
X120504802Y-115289518D01*
X120495000Y-115290000D01*
X120295000Y-115290000D01*
X120285198Y-115289518D01*
X120275491Y-115288079D01*
X120265972Y-115285694D01*
X120256732Y-115282388D01*
X120247860Y-115278192D01*
X120239443Y-115273147D01*
X120231561Y-115267301D01*
X120224289Y-115260711D01*
X120217699Y-115253439D01*
X120211853Y-115245557D01*
X120206808Y-115237140D01*
X120202612Y-115228268D01*
X120199306Y-115219028D01*
X120196921Y-115209509D01*
X120195482Y-115199802D01*
X120195000Y-115190000D01*
X120195000Y-113840000D01*
X120195482Y-113830198D01*
X120196921Y-113820491D01*
X120199306Y-113810972D01*
X120202612Y-113801732D01*
X120206808Y-113792860D01*
X120211853Y-113784443D01*
X120217699Y-113776561D01*
X120224289Y-113769289D01*
X120231561Y-113762699D01*
X120239443Y-113756853D01*
X120247860Y-113751808D01*
X120256732Y-113747612D01*
X120265972Y-113744306D01*
X120275491Y-113741921D01*
X120285198Y-113740482D01*
X120295000Y-113740000D01*
X120495000Y-113740000D01*
X120504802Y-113740482D01*
G37*
G36*
X121154802Y-113740482D02*
G01*
X121164509Y-113741921D01*
X121174028Y-113744306D01*
X121183268Y-113747612D01*
X121192140Y-113751808D01*
X121200557Y-113756853D01*
X121208439Y-113762699D01*
X121215711Y-113769289D01*
X121222301Y-113776561D01*
X121228147Y-113784443D01*
X121233192Y-113792860D01*
X121237388Y-113801732D01*
X121240694Y-113810972D01*
X121243079Y-113820491D01*
X121244518Y-113830198D01*
X121245000Y-113840000D01*
X121245000Y-115190000D01*
X121244518Y-115199802D01*
X121243079Y-115209509D01*
X121240694Y-115219028D01*
X121237388Y-115228268D01*
X121233192Y-115237140D01*
X121228147Y-115245557D01*
X121222301Y-115253439D01*
X121215711Y-115260711D01*
X121208439Y-115267301D01*
X121200557Y-115273147D01*
X121192140Y-115278192D01*
X121183268Y-115282388D01*
X121174028Y-115285694D01*
X121164509Y-115288079D01*
X121154802Y-115289518D01*
X121145000Y-115290000D01*
X120945000Y-115290000D01*
X120935198Y-115289518D01*
X120925491Y-115288079D01*
X120915972Y-115285694D01*
X120906732Y-115282388D01*
X120897860Y-115278192D01*
X120889443Y-115273147D01*
X120881561Y-115267301D01*
X120874289Y-115260711D01*
X120867699Y-115253439D01*
X120861853Y-115245557D01*
X120856808Y-115237140D01*
X120852612Y-115228268D01*
X120849306Y-115219028D01*
X120846921Y-115209509D01*
X120845482Y-115199802D01*
X120845000Y-115190000D01*
X120845000Y-113840000D01*
X120845482Y-113830198D01*
X120846921Y-113820491D01*
X120849306Y-113810972D01*
X120852612Y-113801732D01*
X120856808Y-113792860D01*
X120861853Y-113784443D01*
X120867699Y-113776561D01*
X120874289Y-113769289D01*
X120881561Y-113762699D01*
X120889443Y-113756853D01*
X120897860Y-113751808D01*
X120906732Y-113747612D01*
X120915972Y-113744306D01*
X120925491Y-113741921D01*
X120935198Y-113740482D01*
X120945000Y-113740000D01*
X121145000Y-113740000D01*
X121154802Y-113740482D01*
G37*
G36*
X119899504Y-110286204D02*
G01*
X119923773Y-110289804D01*
X119947571Y-110295765D01*
X119970671Y-110304030D01*
X119992849Y-110314520D01*
X120013893Y-110327133D01*
X120033598Y-110341747D01*
X120051777Y-110358223D01*
X120068253Y-110376402D01*
X120082867Y-110396107D01*
X120095480Y-110417151D01*
X120105970Y-110439329D01*
X120114235Y-110462429D01*
X120120196Y-110486227D01*
X120123796Y-110510496D01*
X120125000Y-110535000D01*
X120125000Y-111245000D01*
X120123796Y-111269504D01*
X120120196Y-111293773D01*
X120114235Y-111317571D01*
X120105970Y-111340671D01*
X120095480Y-111362849D01*
X120082867Y-111383893D01*
X120068253Y-111403598D01*
X120051777Y-111421777D01*
X120033598Y-111438253D01*
X120013893Y-111452867D01*
X119992849Y-111465480D01*
X119970671Y-111475970D01*
X119947571Y-111484235D01*
X119923773Y-111490196D01*
X119899504Y-111493796D01*
X119875000Y-111495000D01*
X119165000Y-111495000D01*
X119140496Y-111493796D01*
X119116227Y-111490196D01*
X119092429Y-111484235D01*
X119069329Y-111475970D01*
X119047151Y-111465480D01*
X119026107Y-111452867D01*
X119006402Y-111438253D01*
X118988223Y-111421777D01*
X118971747Y-111403598D01*
X118957133Y-111383893D01*
X118944520Y-111362849D01*
X118934030Y-111340671D01*
X118925765Y-111317571D01*
X118919804Y-111293773D01*
X118916204Y-111269504D01*
X118915000Y-111245000D01*
X118915000Y-110535000D01*
X118916204Y-110510496D01*
X118919804Y-110486227D01*
X118925765Y-110462429D01*
X118934030Y-110439329D01*
X118944520Y-110417151D01*
X118957133Y-110396107D01*
X118971747Y-110376402D01*
X118988223Y-110358223D01*
X119006402Y-110341747D01*
X119026107Y-110327133D01*
X119047151Y-110314520D01*
X119069329Y-110304030D01*
X119092429Y-110295765D01*
X119116227Y-110289804D01*
X119140496Y-110286204D01*
X119165000Y-110285000D01*
X119875000Y-110285000D01*
X119899504Y-110286204D01*
G37*
G36*
X118399504Y-110286204D02*
G01*
X118423773Y-110289804D01*
X118447571Y-110295765D01*
X118470671Y-110304030D01*
X118492849Y-110314520D01*
X118513893Y-110327133D01*
X118533598Y-110341747D01*
X118551777Y-110358223D01*
X118568253Y-110376402D01*
X118582867Y-110396107D01*
X118595480Y-110417151D01*
X118605970Y-110439329D01*
X118614235Y-110462429D01*
X118620196Y-110486227D01*
X118623796Y-110510496D01*
X118625000Y-110535000D01*
X118625000Y-111245000D01*
X118623796Y-111269504D01*
X118620196Y-111293773D01*
X118614235Y-111317571D01*
X118605970Y-111340671D01*
X118595480Y-111362849D01*
X118582867Y-111383893D01*
X118568253Y-111403598D01*
X118551777Y-111421777D01*
X118533598Y-111438253D01*
X118513893Y-111452867D01*
X118492849Y-111465480D01*
X118470671Y-111475970D01*
X118447571Y-111484235D01*
X118423773Y-111490196D01*
X118399504Y-111493796D01*
X118375000Y-111495000D01*
X117665000Y-111495000D01*
X117640496Y-111493796D01*
X117616227Y-111490196D01*
X117592429Y-111484235D01*
X117569329Y-111475970D01*
X117547151Y-111465480D01*
X117526107Y-111452867D01*
X117506402Y-111438253D01*
X117488223Y-111421777D01*
X117471747Y-111403598D01*
X117457133Y-111383893D01*
X117444520Y-111362849D01*
X117434030Y-111340671D01*
X117425765Y-111317571D01*
X117419804Y-111293773D01*
X117416204Y-111269504D01*
X117415000Y-111245000D01*
X117415000Y-110535000D01*
X117416204Y-110510496D01*
X117419804Y-110486227D01*
X117425765Y-110462429D01*
X117434030Y-110439329D01*
X117444520Y-110417151D01*
X117457133Y-110396107D01*
X117471747Y-110376402D01*
X117488223Y-110358223D01*
X117506402Y-110341747D01*
X117526107Y-110327133D01*
X117547151Y-110314520D01*
X117569329Y-110304030D01*
X117592429Y-110295765D01*
X117616227Y-110289804D01*
X117640496Y-110286204D01*
X117665000Y-110285000D01*
X118375000Y-110285000D01*
X118399504Y-110286204D01*
G37*
G36*
X119899504Y-111786204D02*
G01*
X119923773Y-111789804D01*
X119947571Y-111795765D01*
X119970671Y-111804030D01*
X119992849Y-111814520D01*
X120013893Y-111827133D01*
X120033598Y-111841747D01*
X120051777Y-111858223D01*
X120068253Y-111876402D01*
X120082867Y-111896107D01*
X120095480Y-111917151D01*
X120105970Y-111939329D01*
X120114235Y-111962429D01*
X120120196Y-111986227D01*
X120123796Y-112010496D01*
X120125000Y-112035000D01*
X120125000Y-112745000D01*
X120123796Y-112769504D01*
X120120196Y-112793773D01*
X120114235Y-112817571D01*
X120105970Y-112840671D01*
X120095480Y-112862849D01*
X120082867Y-112883893D01*
X120068253Y-112903598D01*
X120051777Y-112921777D01*
X120033598Y-112938253D01*
X120013893Y-112952867D01*
X119992849Y-112965480D01*
X119970671Y-112975970D01*
X119947571Y-112984235D01*
X119923773Y-112990196D01*
X119899504Y-112993796D01*
X119875000Y-112995000D01*
X119165000Y-112995000D01*
X119140496Y-112993796D01*
X119116227Y-112990196D01*
X119092429Y-112984235D01*
X119069329Y-112975970D01*
X119047151Y-112965480D01*
X119026107Y-112952867D01*
X119006402Y-112938253D01*
X118988223Y-112921777D01*
X118971747Y-112903598D01*
X118957133Y-112883893D01*
X118944520Y-112862849D01*
X118934030Y-112840671D01*
X118925765Y-112817571D01*
X118919804Y-112793773D01*
X118916204Y-112769504D01*
X118915000Y-112745000D01*
X118915000Y-112035000D01*
X118916204Y-112010496D01*
X118919804Y-111986227D01*
X118925765Y-111962429D01*
X118934030Y-111939329D01*
X118944520Y-111917151D01*
X118957133Y-111896107D01*
X118971747Y-111876402D01*
X118988223Y-111858223D01*
X119006402Y-111841747D01*
X119026107Y-111827133D01*
X119047151Y-111814520D01*
X119069329Y-111804030D01*
X119092429Y-111795765D01*
X119116227Y-111789804D01*
X119140496Y-111786204D01*
X119165000Y-111785000D01*
X119875000Y-111785000D01*
X119899504Y-111786204D01*
G37*
G36*
X118399504Y-111786204D02*
G01*
X118423773Y-111789804D01*
X118447571Y-111795765D01*
X118470671Y-111804030D01*
X118492849Y-111814520D01*
X118513893Y-111827133D01*
X118533598Y-111841747D01*
X118551777Y-111858223D01*
X118568253Y-111876402D01*
X118582867Y-111896107D01*
X118595480Y-111917151D01*
X118605970Y-111939329D01*
X118614235Y-111962429D01*
X118620196Y-111986227D01*
X118623796Y-112010496D01*
X118625000Y-112035000D01*
X118625000Y-112745000D01*
X118623796Y-112769504D01*
X118620196Y-112793773D01*
X118614235Y-112817571D01*
X118605970Y-112840671D01*
X118595480Y-112862849D01*
X118582867Y-112883893D01*
X118568253Y-112903598D01*
X118551777Y-112921777D01*
X118533598Y-112938253D01*
X118513893Y-112952867D01*
X118492849Y-112965480D01*
X118470671Y-112975970D01*
X118447571Y-112984235D01*
X118423773Y-112990196D01*
X118399504Y-112993796D01*
X118375000Y-112995000D01*
X117665000Y-112995000D01*
X117640496Y-112993796D01*
X117616227Y-112990196D01*
X117592429Y-112984235D01*
X117569329Y-112975970D01*
X117547151Y-112965480D01*
X117526107Y-112952867D01*
X117506402Y-112938253D01*
X117488223Y-112921777D01*
X117471747Y-112903598D01*
X117457133Y-112883893D01*
X117444520Y-112862849D01*
X117434030Y-112840671D01*
X117425765Y-112817571D01*
X117419804Y-112793773D01*
X117416204Y-112769504D01*
X117415000Y-112745000D01*
X117415000Y-112035000D01*
X117416204Y-112010496D01*
X117419804Y-111986227D01*
X117425765Y-111962429D01*
X117434030Y-111939329D01*
X117444520Y-111917151D01*
X117457133Y-111896107D01*
X117471747Y-111876402D01*
X117488223Y-111858223D01*
X117506402Y-111841747D01*
X117526107Y-111827133D01*
X117547151Y-111814520D01*
X117569329Y-111804030D01*
X117592429Y-111795765D01*
X117616227Y-111789804D01*
X117640496Y-111786204D01*
X117665000Y-111785000D01*
X118375000Y-111785000D01*
X118399504Y-111786204D01*
G37*
G36*
X132709703Y-122750722D02*
G01*
X132724264Y-122752882D01*
X132738543Y-122756459D01*
X132752403Y-122761418D01*
X132765710Y-122767712D01*
X132778336Y-122775280D01*
X132790159Y-122784048D01*
X132801066Y-122793934D01*
X132810952Y-122804841D01*
X132819720Y-122816664D01*
X132827288Y-122829290D01*
X132833582Y-122842597D01*
X132838541Y-122856457D01*
X132842118Y-122870736D01*
X132844278Y-122885297D01*
X132845000Y-122900000D01*
X132845000Y-124550000D01*
X132844278Y-124564703D01*
X132842118Y-124579264D01*
X132838541Y-124593543D01*
X132833582Y-124607403D01*
X132827288Y-124620710D01*
X132819720Y-124633336D01*
X132810952Y-124645159D01*
X132801066Y-124656066D01*
X132790159Y-124665952D01*
X132778336Y-124674720D01*
X132765710Y-124682288D01*
X132752403Y-124688582D01*
X132738543Y-124693541D01*
X132724264Y-124697118D01*
X132709703Y-124699278D01*
X132695000Y-124700000D01*
X132395000Y-124700000D01*
X132380297Y-124699278D01*
X132365736Y-124697118D01*
X132351457Y-124693541D01*
X132337597Y-124688582D01*
X132324290Y-124682288D01*
X132311664Y-124674720D01*
X132299841Y-124665952D01*
X132288934Y-124656066D01*
X132279048Y-124645159D01*
X132270280Y-124633336D01*
X132262712Y-124620710D01*
X132256418Y-124607403D01*
X132251459Y-124593543D01*
X132247882Y-124579264D01*
X132245722Y-124564703D01*
X132245000Y-124550000D01*
X132245000Y-122900000D01*
X132245722Y-122885297D01*
X132247882Y-122870736D01*
X132251459Y-122856457D01*
X132256418Y-122842597D01*
X132262712Y-122829290D01*
X132270280Y-122816664D01*
X132279048Y-122804841D01*
X132288934Y-122793934D01*
X132299841Y-122784048D01*
X132311664Y-122775280D01*
X132324290Y-122767712D01*
X132337597Y-122761418D01*
X132351457Y-122756459D01*
X132365736Y-122752882D01*
X132380297Y-122750722D01*
X132395000Y-122750000D01*
X132695000Y-122750000D01*
X132709703Y-122750722D01*
G37*
G36*
X131439703Y-122750722D02*
G01*
X131454264Y-122752882D01*
X131468543Y-122756459D01*
X131482403Y-122761418D01*
X131495710Y-122767712D01*
X131508336Y-122775280D01*
X131520159Y-122784048D01*
X131531066Y-122793934D01*
X131540952Y-122804841D01*
X131549720Y-122816664D01*
X131557288Y-122829290D01*
X131563582Y-122842597D01*
X131568541Y-122856457D01*
X131572118Y-122870736D01*
X131574278Y-122885297D01*
X131575000Y-122900000D01*
X131575000Y-124550000D01*
X131574278Y-124564703D01*
X131572118Y-124579264D01*
X131568541Y-124593543D01*
X131563582Y-124607403D01*
X131557288Y-124620710D01*
X131549720Y-124633336D01*
X131540952Y-124645159D01*
X131531066Y-124656066D01*
X131520159Y-124665952D01*
X131508336Y-124674720D01*
X131495710Y-124682288D01*
X131482403Y-124688582D01*
X131468543Y-124693541D01*
X131454264Y-124697118D01*
X131439703Y-124699278D01*
X131425000Y-124700000D01*
X131125000Y-124700000D01*
X131110297Y-124699278D01*
X131095736Y-124697118D01*
X131081457Y-124693541D01*
X131067597Y-124688582D01*
X131054290Y-124682288D01*
X131041664Y-124674720D01*
X131029841Y-124665952D01*
X131018934Y-124656066D01*
X131009048Y-124645159D01*
X131000280Y-124633336D01*
X130992712Y-124620710D01*
X130986418Y-124607403D01*
X130981459Y-124593543D01*
X130977882Y-124579264D01*
X130975722Y-124564703D01*
X130975000Y-124550000D01*
X130975000Y-122900000D01*
X130975722Y-122885297D01*
X130977882Y-122870736D01*
X130981459Y-122856457D01*
X130986418Y-122842597D01*
X130992712Y-122829290D01*
X131000280Y-122816664D01*
X131009048Y-122804841D01*
X131018934Y-122793934D01*
X131029841Y-122784048D01*
X131041664Y-122775280D01*
X131054290Y-122767712D01*
X131067597Y-122761418D01*
X131081457Y-122756459D01*
X131095736Y-122752882D01*
X131110297Y-122750722D01*
X131125000Y-122750000D01*
X131425000Y-122750000D01*
X131439703Y-122750722D01*
G37*
G36*
X130169703Y-122750722D02*
G01*
X130184264Y-122752882D01*
X130198543Y-122756459D01*
X130212403Y-122761418D01*
X130225710Y-122767712D01*
X130238336Y-122775280D01*
X130250159Y-122784048D01*
X130261066Y-122793934D01*
X130270952Y-122804841D01*
X130279720Y-122816664D01*
X130287288Y-122829290D01*
X130293582Y-122842597D01*
X130298541Y-122856457D01*
X130302118Y-122870736D01*
X130304278Y-122885297D01*
X130305000Y-122900000D01*
X130305000Y-124550000D01*
X130304278Y-124564703D01*
X130302118Y-124579264D01*
X130298541Y-124593543D01*
X130293582Y-124607403D01*
X130287288Y-124620710D01*
X130279720Y-124633336D01*
X130270952Y-124645159D01*
X130261066Y-124656066D01*
X130250159Y-124665952D01*
X130238336Y-124674720D01*
X130225710Y-124682288D01*
X130212403Y-124688582D01*
X130198543Y-124693541D01*
X130184264Y-124697118D01*
X130169703Y-124699278D01*
X130155000Y-124700000D01*
X129855000Y-124700000D01*
X129840297Y-124699278D01*
X129825736Y-124697118D01*
X129811457Y-124693541D01*
X129797597Y-124688582D01*
X129784290Y-124682288D01*
X129771664Y-124674720D01*
X129759841Y-124665952D01*
X129748934Y-124656066D01*
X129739048Y-124645159D01*
X129730280Y-124633336D01*
X129722712Y-124620710D01*
X129716418Y-124607403D01*
X129711459Y-124593543D01*
X129707882Y-124579264D01*
X129705722Y-124564703D01*
X129705000Y-124550000D01*
X129705000Y-122900000D01*
X129705722Y-122885297D01*
X129707882Y-122870736D01*
X129711459Y-122856457D01*
X129716418Y-122842597D01*
X129722712Y-122829290D01*
X129730280Y-122816664D01*
X129739048Y-122804841D01*
X129748934Y-122793934D01*
X129759841Y-122784048D01*
X129771664Y-122775280D01*
X129784290Y-122767712D01*
X129797597Y-122761418D01*
X129811457Y-122756459D01*
X129825736Y-122752882D01*
X129840297Y-122750722D01*
X129855000Y-122750000D01*
X130155000Y-122750000D01*
X130169703Y-122750722D01*
G37*
G36*
X128899703Y-122750722D02*
G01*
X128914264Y-122752882D01*
X128928543Y-122756459D01*
X128942403Y-122761418D01*
X128955710Y-122767712D01*
X128968336Y-122775280D01*
X128980159Y-122784048D01*
X128991066Y-122793934D01*
X129000952Y-122804841D01*
X129009720Y-122816664D01*
X129017288Y-122829290D01*
X129023582Y-122842597D01*
X129028541Y-122856457D01*
X129032118Y-122870736D01*
X129034278Y-122885297D01*
X129035000Y-122900000D01*
X129035000Y-124550000D01*
X129034278Y-124564703D01*
X129032118Y-124579264D01*
X129028541Y-124593543D01*
X129023582Y-124607403D01*
X129017288Y-124620710D01*
X129009720Y-124633336D01*
X129000952Y-124645159D01*
X128991066Y-124656066D01*
X128980159Y-124665952D01*
X128968336Y-124674720D01*
X128955710Y-124682288D01*
X128942403Y-124688582D01*
X128928543Y-124693541D01*
X128914264Y-124697118D01*
X128899703Y-124699278D01*
X128885000Y-124700000D01*
X128585000Y-124700000D01*
X128570297Y-124699278D01*
X128555736Y-124697118D01*
X128541457Y-124693541D01*
X128527597Y-124688582D01*
X128514290Y-124682288D01*
X128501664Y-124674720D01*
X128489841Y-124665952D01*
X128478934Y-124656066D01*
X128469048Y-124645159D01*
X128460280Y-124633336D01*
X128452712Y-124620710D01*
X128446418Y-124607403D01*
X128441459Y-124593543D01*
X128437882Y-124579264D01*
X128435722Y-124564703D01*
X128435000Y-124550000D01*
X128435000Y-122900000D01*
X128435722Y-122885297D01*
X128437882Y-122870736D01*
X128441459Y-122856457D01*
X128446418Y-122842597D01*
X128452712Y-122829290D01*
X128460280Y-122816664D01*
X128469048Y-122804841D01*
X128478934Y-122793934D01*
X128489841Y-122784048D01*
X128501664Y-122775280D01*
X128514290Y-122767712D01*
X128527597Y-122761418D01*
X128541457Y-122756459D01*
X128555736Y-122752882D01*
X128570297Y-122750722D01*
X128585000Y-122750000D01*
X128885000Y-122750000D01*
X128899703Y-122750722D01*
G37*
G36*
X127629703Y-122750722D02*
G01*
X127644264Y-122752882D01*
X127658543Y-122756459D01*
X127672403Y-122761418D01*
X127685710Y-122767712D01*
X127698336Y-122775280D01*
X127710159Y-122784048D01*
X127721066Y-122793934D01*
X127730952Y-122804841D01*
X127739720Y-122816664D01*
X127747288Y-122829290D01*
X127753582Y-122842597D01*
X127758541Y-122856457D01*
X127762118Y-122870736D01*
X127764278Y-122885297D01*
X127765000Y-122900000D01*
X127765000Y-124550000D01*
X127764278Y-124564703D01*
X127762118Y-124579264D01*
X127758541Y-124593543D01*
X127753582Y-124607403D01*
X127747288Y-124620710D01*
X127739720Y-124633336D01*
X127730952Y-124645159D01*
X127721066Y-124656066D01*
X127710159Y-124665952D01*
X127698336Y-124674720D01*
X127685710Y-124682288D01*
X127672403Y-124688582D01*
X127658543Y-124693541D01*
X127644264Y-124697118D01*
X127629703Y-124699278D01*
X127615000Y-124700000D01*
X127315000Y-124700000D01*
X127300297Y-124699278D01*
X127285736Y-124697118D01*
X127271457Y-124693541D01*
X127257597Y-124688582D01*
X127244290Y-124682288D01*
X127231664Y-124674720D01*
X127219841Y-124665952D01*
X127208934Y-124656066D01*
X127199048Y-124645159D01*
X127190280Y-124633336D01*
X127182712Y-124620710D01*
X127176418Y-124607403D01*
X127171459Y-124593543D01*
X127167882Y-124579264D01*
X127165722Y-124564703D01*
X127165000Y-124550000D01*
X127165000Y-122900000D01*
X127165722Y-122885297D01*
X127167882Y-122870736D01*
X127171459Y-122856457D01*
X127176418Y-122842597D01*
X127182712Y-122829290D01*
X127190280Y-122816664D01*
X127199048Y-122804841D01*
X127208934Y-122793934D01*
X127219841Y-122784048D01*
X127231664Y-122775280D01*
X127244290Y-122767712D01*
X127257597Y-122761418D01*
X127271457Y-122756459D01*
X127285736Y-122752882D01*
X127300297Y-122750722D01*
X127315000Y-122750000D01*
X127615000Y-122750000D01*
X127629703Y-122750722D01*
G37*
G36*
X126359703Y-122750722D02*
G01*
X126374264Y-122752882D01*
X126388543Y-122756459D01*
X126402403Y-122761418D01*
X126415710Y-122767712D01*
X126428336Y-122775280D01*
X126440159Y-122784048D01*
X126451066Y-122793934D01*
X126460952Y-122804841D01*
X126469720Y-122816664D01*
X126477288Y-122829290D01*
X126483582Y-122842597D01*
X126488541Y-122856457D01*
X126492118Y-122870736D01*
X126494278Y-122885297D01*
X126495000Y-122900000D01*
X126495000Y-124550000D01*
X126494278Y-124564703D01*
X126492118Y-124579264D01*
X126488541Y-124593543D01*
X126483582Y-124607403D01*
X126477288Y-124620710D01*
X126469720Y-124633336D01*
X126460952Y-124645159D01*
X126451066Y-124656066D01*
X126440159Y-124665952D01*
X126428336Y-124674720D01*
X126415710Y-124682288D01*
X126402403Y-124688582D01*
X126388543Y-124693541D01*
X126374264Y-124697118D01*
X126359703Y-124699278D01*
X126345000Y-124700000D01*
X126045000Y-124700000D01*
X126030297Y-124699278D01*
X126015736Y-124697118D01*
X126001457Y-124693541D01*
X125987597Y-124688582D01*
X125974290Y-124682288D01*
X125961664Y-124674720D01*
X125949841Y-124665952D01*
X125938934Y-124656066D01*
X125929048Y-124645159D01*
X125920280Y-124633336D01*
X125912712Y-124620710D01*
X125906418Y-124607403D01*
X125901459Y-124593543D01*
X125897882Y-124579264D01*
X125895722Y-124564703D01*
X125895000Y-124550000D01*
X125895000Y-122900000D01*
X125895722Y-122885297D01*
X125897882Y-122870736D01*
X125901459Y-122856457D01*
X125906418Y-122842597D01*
X125912712Y-122829290D01*
X125920280Y-122816664D01*
X125929048Y-122804841D01*
X125938934Y-122793934D01*
X125949841Y-122784048D01*
X125961664Y-122775280D01*
X125974290Y-122767712D01*
X125987597Y-122761418D01*
X126001457Y-122756459D01*
X126015736Y-122752882D01*
X126030297Y-122750722D01*
X126045000Y-122750000D01*
X126345000Y-122750000D01*
X126359703Y-122750722D01*
G37*
G36*
X125089703Y-122750722D02*
G01*
X125104264Y-122752882D01*
X125118543Y-122756459D01*
X125132403Y-122761418D01*
X125145710Y-122767712D01*
X125158336Y-122775280D01*
X125170159Y-122784048D01*
X125181066Y-122793934D01*
X125190952Y-122804841D01*
X125199720Y-122816664D01*
X125207288Y-122829290D01*
X125213582Y-122842597D01*
X125218541Y-122856457D01*
X125222118Y-122870736D01*
X125224278Y-122885297D01*
X125225000Y-122900000D01*
X125225000Y-124550000D01*
X125224278Y-124564703D01*
X125222118Y-124579264D01*
X125218541Y-124593543D01*
X125213582Y-124607403D01*
X125207288Y-124620710D01*
X125199720Y-124633336D01*
X125190952Y-124645159D01*
X125181066Y-124656066D01*
X125170159Y-124665952D01*
X125158336Y-124674720D01*
X125145710Y-124682288D01*
X125132403Y-124688582D01*
X125118543Y-124693541D01*
X125104264Y-124697118D01*
X125089703Y-124699278D01*
X125075000Y-124700000D01*
X124775000Y-124700000D01*
X124760297Y-124699278D01*
X124745736Y-124697118D01*
X124731457Y-124693541D01*
X124717597Y-124688582D01*
X124704290Y-124682288D01*
X124691664Y-124674720D01*
X124679841Y-124665952D01*
X124668934Y-124656066D01*
X124659048Y-124645159D01*
X124650280Y-124633336D01*
X124642712Y-124620710D01*
X124636418Y-124607403D01*
X124631459Y-124593543D01*
X124627882Y-124579264D01*
X124625722Y-124564703D01*
X124625000Y-124550000D01*
X124625000Y-122900000D01*
X124625722Y-122885297D01*
X124627882Y-122870736D01*
X124631459Y-122856457D01*
X124636418Y-122842597D01*
X124642712Y-122829290D01*
X124650280Y-122816664D01*
X124659048Y-122804841D01*
X124668934Y-122793934D01*
X124679841Y-122784048D01*
X124691664Y-122775280D01*
X124704290Y-122767712D01*
X124717597Y-122761418D01*
X124731457Y-122756459D01*
X124745736Y-122752882D01*
X124760297Y-122750722D01*
X124775000Y-122750000D01*
X125075000Y-122750000D01*
X125089703Y-122750722D01*
G37*
G36*
X123819703Y-122750722D02*
G01*
X123834264Y-122752882D01*
X123848543Y-122756459D01*
X123862403Y-122761418D01*
X123875710Y-122767712D01*
X123888336Y-122775280D01*
X123900159Y-122784048D01*
X123911066Y-122793934D01*
X123920952Y-122804841D01*
X123929720Y-122816664D01*
X123937288Y-122829290D01*
X123943582Y-122842597D01*
X123948541Y-122856457D01*
X123952118Y-122870736D01*
X123954278Y-122885297D01*
X123955000Y-122900000D01*
X123955000Y-124550000D01*
X123954278Y-124564703D01*
X123952118Y-124579264D01*
X123948541Y-124593543D01*
X123943582Y-124607403D01*
X123937288Y-124620710D01*
X123929720Y-124633336D01*
X123920952Y-124645159D01*
X123911066Y-124656066D01*
X123900159Y-124665952D01*
X123888336Y-124674720D01*
X123875710Y-124682288D01*
X123862403Y-124688582D01*
X123848543Y-124693541D01*
X123834264Y-124697118D01*
X123819703Y-124699278D01*
X123805000Y-124700000D01*
X123505000Y-124700000D01*
X123490297Y-124699278D01*
X123475736Y-124697118D01*
X123461457Y-124693541D01*
X123447597Y-124688582D01*
X123434290Y-124682288D01*
X123421664Y-124674720D01*
X123409841Y-124665952D01*
X123398934Y-124656066D01*
X123389048Y-124645159D01*
X123380280Y-124633336D01*
X123372712Y-124620710D01*
X123366418Y-124607403D01*
X123361459Y-124593543D01*
X123357882Y-124579264D01*
X123355722Y-124564703D01*
X123355000Y-124550000D01*
X123355000Y-122900000D01*
X123355722Y-122885297D01*
X123357882Y-122870736D01*
X123361459Y-122856457D01*
X123366418Y-122842597D01*
X123372712Y-122829290D01*
X123380280Y-122816664D01*
X123389048Y-122804841D01*
X123398934Y-122793934D01*
X123409841Y-122784048D01*
X123421664Y-122775280D01*
X123434290Y-122767712D01*
X123447597Y-122761418D01*
X123461457Y-122756459D01*
X123475736Y-122752882D01*
X123490297Y-122750722D01*
X123505000Y-122750000D01*
X123805000Y-122750000D01*
X123819703Y-122750722D01*
G37*
G36*
X123819703Y-127700722D02*
G01*
X123834264Y-127702882D01*
X123848543Y-127706459D01*
X123862403Y-127711418D01*
X123875710Y-127717712D01*
X123888336Y-127725280D01*
X123900159Y-127734048D01*
X123911066Y-127743934D01*
X123920952Y-127754841D01*
X123929720Y-127766664D01*
X123937288Y-127779290D01*
X123943582Y-127792597D01*
X123948541Y-127806457D01*
X123952118Y-127820736D01*
X123954278Y-127835297D01*
X123955000Y-127850000D01*
X123955000Y-129500000D01*
X123954278Y-129514703D01*
X123952118Y-129529264D01*
X123948541Y-129543543D01*
X123943582Y-129557403D01*
X123937288Y-129570710D01*
X123929720Y-129583336D01*
X123920952Y-129595159D01*
X123911066Y-129606066D01*
X123900159Y-129615952D01*
X123888336Y-129624720D01*
X123875710Y-129632288D01*
X123862403Y-129638582D01*
X123848543Y-129643541D01*
X123834264Y-129647118D01*
X123819703Y-129649278D01*
X123805000Y-129650000D01*
X123505000Y-129650000D01*
X123490297Y-129649278D01*
X123475736Y-129647118D01*
X123461457Y-129643541D01*
X123447597Y-129638582D01*
X123434290Y-129632288D01*
X123421664Y-129624720D01*
X123409841Y-129615952D01*
X123398934Y-129606066D01*
X123389048Y-129595159D01*
X123380280Y-129583336D01*
X123372712Y-129570710D01*
X123366418Y-129557403D01*
X123361459Y-129543543D01*
X123357882Y-129529264D01*
X123355722Y-129514703D01*
X123355000Y-129500000D01*
X123355000Y-127850000D01*
X123355722Y-127835297D01*
X123357882Y-127820736D01*
X123361459Y-127806457D01*
X123366418Y-127792597D01*
X123372712Y-127779290D01*
X123380280Y-127766664D01*
X123389048Y-127754841D01*
X123398934Y-127743934D01*
X123409841Y-127734048D01*
X123421664Y-127725280D01*
X123434290Y-127717712D01*
X123447597Y-127711418D01*
X123461457Y-127706459D01*
X123475736Y-127702882D01*
X123490297Y-127700722D01*
X123505000Y-127700000D01*
X123805000Y-127700000D01*
X123819703Y-127700722D01*
G37*
G36*
X125089703Y-127700722D02*
G01*
X125104264Y-127702882D01*
X125118543Y-127706459D01*
X125132403Y-127711418D01*
X125145710Y-127717712D01*
X125158336Y-127725280D01*
X125170159Y-127734048D01*
X125181066Y-127743934D01*
X125190952Y-127754841D01*
X125199720Y-127766664D01*
X125207288Y-127779290D01*
X125213582Y-127792597D01*
X125218541Y-127806457D01*
X125222118Y-127820736D01*
X125224278Y-127835297D01*
X125225000Y-127850000D01*
X125225000Y-129500000D01*
X125224278Y-129514703D01*
X125222118Y-129529264D01*
X125218541Y-129543543D01*
X125213582Y-129557403D01*
X125207288Y-129570710D01*
X125199720Y-129583336D01*
X125190952Y-129595159D01*
X125181066Y-129606066D01*
X125170159Y-129615952D01*
X125158336Y-129624720D01*
X125145710Y-129632288D01*
X125132403Y-129638582D01*
X125118543Y-129643541D01*
X125104264Y-129647118D01*
X125089703Y-129649278D01*
X125075000Y-129650000D01*
X124775000Y-129650000D01*
X124760297Y-129649278D01*
X124745736Y-129647118D01*
X124731457Y-129643541D01*
X124717597Y-129638582D01*
X124704290Y-129632288D01*
X124691664Y-129624720D01*
X124679841Y-129615952D01*
X124668934Y-129606066D01*
X124659048Y-129595159D01*
X124650280Y-129583336D01*
X124642712Y-129570710D01*
X124636418Y-129557403D01*
X124631459Y-129543543D01*
X124627882Y-129529264D01*
X124625722Y-129514703D01*
X124625000Y-129500000D01*
X124625000Y-127850000D01*
X124625722Y-127835297D01*
X124627882Y-127820736D01*
X124631459Y-127806457D01*
X124636418Y-127792597D01*
X124642712Y-127779290D01*
X124650280Y-127766664D01*
X124659048Y-127754841D01*
X124668934Y-127743934D01*
X124679841Y-127734048D01*
X124691664Y-127725280D01*
X124704290Y-127717712D01*
X124717597Y-127711418D01*
X124731457Y-127706459D01*
X124745736Y-127702882D01*
X124760297Y-127700722D01*
X124775000Y-127700000D01*
X125075000Y-127700000D01*
X125089703Y-127700722D01*
G37*
G36*
X126359703Y-127700722D02*
G01*
X126374264Y-127702882D01*
X126388543Y-127706459D01*
X126402403Y-127711418D01*
X126415710Y-127717712D01*
X126428336Y-127725280D01*
X126440159Y-127734048D01*
X126451066Y-127743934D01*
X126460952Y-127754841D01*
X126469720Y-127766664D01*
X126477288Y-127779290D01*
X126483582Y-127792597D01*
X126488541Y-127806457D01*
X126492118Y-127820736D01*
X126494278Y-127835297D01*
X126495000Y-127850000D01*
X126495000Y-129500000D01*
X126494278Y-129514703D01*
X126492118Y-129529264D01*
X126488541Y-129543543D01*
X126483582Y-129557403D01*
X126477288Y-129570710D01*
X126469720Y-129583336D01*
X126460952Y-129595159D01*
X126451066Y-129606066D01*
X126440159Y-129615952D01*
X126428336Y-129624720D01*
X126415710Y-129632288D01*
X126402403Y-129638582D01*
X126388543Y-129643541D01*
X126374264Y-129647118D01*
X126359703Y-129649278D01*
X126345000Y-129650000D01*
X126045000Y-129650000D01*
X126030297Y-129649278D01*
X126015736Y-129647118D01*
X126001457Y-129643541D01*
X125987597Y-129638582D01*
X125974290Y-129632288D01*
X125961664Y-129624720D01*
X125949841Y-129615952D01*
X125938934Y-129606066D01*
X125929048Y-129595159D01*
X125920280Y-129583336D01*
X125912712Y-129570710D01*
X125906418Y-129557403D01*
X125901459Y-129543543D01*
X125897882Y-129529264D01*
X125895722Y-129514703D01*
X125895000Y-129500000D01*
X125895000Y-127850000D01*
X125895722Y-127835297D01*
X125897882Y-127820736D01*
X125901459Y-127806457D01*
X125906418Y-127792597D01*
X125912712Y-127779290D01*
X125920280Y-127766664D01*
X125929048Y-127754841D01*
X125938934Y-127743934D01*
X125949841Y-127734048D01*
X125961664Y-127725280D01*
X125974290Y-127717712D01*
X125987597Y-127711418D01*
X126001457Y-127706459D01*
X126015736Y-127702882D01*
X126030297Y-127700722D01*
X126045000Y-127700000D01*
X126345000Y-127700000D01*
X126359703Y-127700722D01*
G37*
G36*
X127629703Y-127700722D02*
G01*
X127644264Y-127702882D01*
X127658543Y-127706459D01*
X127672403Y-127711418D01*
X127685710Y-127717712D01*
X127698336Y-127725280D01*
X127710159Y-127734048D01*
X127721066Y-127743934D01*
X127730952Y-127754841D01*
X127739720Y-127766664D01*
X127747288Y-127779290D01*
X127753582Y-127792597D01*
X127758541Y-127806457D01*
X127762118Y-127820736D01*
X127764278Y-127835297D01*
X127765000Y-127850000D01*
X127765000Y-129500000D01*
X127764278Y-129514703D01*
X127762118Y-129529264D01*
X127758541Y-129543543D01*
X127753582Y-129557403D01*
X127747288Y-129570710D01*
X127739720Y-129583336D01*
X127730952Y-129595159D01*
X127721066Y-129606066D01*
X127710159Y-129615952D01*
X127698336Y-129624720D01*
X127685710Y-129632288D01*
X127672403Y-129638582D01*
X127658543Y-129643541D01*
X127644264Y-129647118D01*
X127629703Y-129649278D01*
X127615000Y-129650000D01*
X127315000Y-129650000D01*
X127300297Y-129649278D01*
X127285736Y-129647118D01*
X127271457Y-129643541D01*
X127257597Y-129638582D01*
X127244290Y-129632288D01*
X127231664Y-129624720D01*
X127219841Y-129615952D01*
X127208934Y-129606066D01*
X127199048Y-129595159D01*
X127190280Y-129583336D01*
X127182712Y-129570710D01*
X127176418Y-129557403D01*
X127171459Y-129543543D01*
X127167882Y-129529264D01*
X127165722Y-129514703D01*
X127165000Y-129500000D01*
X127165000Y-127850000D01*
X127165722Y-127835297D01*
X127167882Y-127820736D01*
X127171459Y-127806457D01*
X127176418Y-127792597D01*
X127182712Y-127779290D01*
X127190280Y-127766664D01*
X127199048Y-127754841D01*
X127208934Y-127743934D01*
X127219841Y-127734048D01*
X127231664Y-127725280D01*
X127244290Y-127717712D01*
X127257597Y-127711418D01*
X127271457Y-127706459D01*
X127285736Y-127702882D01*
X127300297Y-127700722D01*
X127315000Y-127700000D01*
X127615000Y-127700000D01*
X127629703Y-127700722D01*
G37*
G36*
X128899703Y-127700722D02*
G01*
X128914264Y-127702882D01*
X128928543Y-127706459D01*
X128942403Y-127711418D01*
X128955710Y-127717712D01*
X128968336Y-127725280D01*
X128980159Y-127734048D01*
X128991066Y-127743934D01*
X129000952Y-127754841D01*
X129009720Y-127766664D01*
X129017288Y-127779290D01*
X129023582Y-127792597D01*
X129028541Y-127806457D01*
X129032118Y-127820736D01*
X129034278Y-127835297D01*
X129035000Y-127850000D01*
X129035000Y-129500000D01*
X129034278Y-129514703D01*
X129032118Y-129529264D01*
X129028541Y-129543543D01*
X129023582Y-129557403D01*
X129017288Y-129570710D01*
X129009720Y-129583336D01*
X129000952Y-129595159D01*
X128991066Y-129606066D01*
X128980159Y-129615952D01*
X128968336Y-129624720D01*
X128955710Y-129632288D01*
X128942403Y-129638582D01*
X128928543Y-129643541D01*
X128914264Y-129647118D01*
X128899703Y-129649278D01*
X128885000Y-129650000D01*
X128585000Y-129650000D01*
X128570297Y-129649278D01*
X128555736Y-129647118D01*
X128541457Y-129643541D01*
X128527597Y-129638582D01*
X128514290Y-129632288D01*
X128501664Y-129624720D01*
X128489841Y-129615952D01*
X128478934Y-129606066D01*
X128469048Y-129595159D01*
X128460280Y-129583336D01*
X128452712Y-129570710D01*
X128446418Y-129557403D01*
X128441459Y-129543543D01*
X128437882Y-129529264D01*
X128435722Y-129514703D01*
X128435000Y-129500000D01*
X128435000Y-127850000D01*
X128435722Y-127835297D01*
X128437882Y-127820736D01*
X128441459Y-127806457D01*
X128446418Y-127792597D01*
X128452712Y-127779290D01*
X128460280Y-127766664D01*
X128469048Y-127754841D01*
X128478934Y-127743934D01*
X128489841Y-127734048D01*
X128501664Y-127725280D01*
X128514290Y-127717712D01*
X128527597Y-127711418D01*
X128541457Y-127706459D01*
X128555736Y-127702882D01*
X128570297Y-127700722D01*
X128585000Y-127700000D01*
X128885000Y-127700000D01*
X128899703Y-127700722D01*
G37*
G36*
X130169703Y-127700722D02*
G01*
X130184264Y-127702882D01*
X130198543Y-127706459D01*
X130212403Y-127711418D01*
X130225710Y-127717712D01*
X130238336Y-127725280D01*
X130250159Y-127734048D01*
X130261066Y-127743934D01*
X130270952Y-127754841D01*
X130279720Y-127766664D01*
X130287288Y-127779290D01*
X130293582Y-127792597D01*
X130298541Y-127806457D01*
X130302118Y-127820736D01*
X130304278Y-127835297D01*
X130305000Y-127850000D01*
X130305000Y-129500000D01*
X130304278Y-129514703D01*
X130302118Y-129529264D01*
X130298541Y-129543543D01*
X130293582Y-129557403D01*
X130287288Y-129570710D01*
X130279720Y-129583336D01*
X130270952Y-129595159D01*
X130261066Y-129606066D01*
X130250159Y-129615952D01*
X130238336Y-129624720D01*
X130225710Y-129632288D01*
X130212403Y-129638582D01*
X130198543Y-129643541D01*
X130184264Y-129647118D01*
X130169703Y-129649278D01*
X130155000Y-129650000D01*
X129855000Y-129650000D01*
X129840297Y-129649278D01*
X129825736Y-129647118D01*
X129811457Y-129643541D01*
X129797597Y-129638582D01*
X129784290Y-129632288D01*
X129771664Y-129624720D01*
X129759841Y-129615952D01*
X129748934Y-129606066D01*
X129739048Y-129595159D01*
X129730280Y-129583336D01*
X129722712Y-129570710D01*
X129716418Y-129557403D01*
X129711459Y-129543543D01*
X129707882Y-129529264D01*
X129705722Y-129514703D01*
X129705000Y-129500000D01*
X129705000Y-127850000D01*
X129705722Y-127835297D01*
X129707882Y-127820736D01*
X129711459Y-127806457D01*
X129716418Y-127792597D01*
X129722712Y-127779290D01*
X129730280Y-127766664D01*
X129739048Y-127754841D01*
X129748934Y-127743934D01*
X129759841Y-127734048D01*
X129771664Y-127725280D01*
X129784290Y-127717712D01*
X129797597Y-127711418D01*
X129811457Y-127706459D01*
X129825736Y-127702882D01*
X129840297Y-127700722D01*
X129855000Y-127700000D01*
X130155000Y-127700000D01*
X130169703Y-127700722D01*
G37*
G36*
X131439703Y-127700722D02*
G01*
X131454264Y-127702882D01*
X131468543Y-127706459D01*
X131482403Y-127711418D01*
X131495710Y-127717712D01*
X131508336Y-127725280D01*
X131520159Y-127734048D01*
X131531066Y-127743934D01*
X131540952Y-127754841D01*
X131549720Y-127766664D01*
X131557288Y-127779290D01*
X131563582Y-127792597D01*
X131568541Y-127806457D01*
X131572118Y-127820736D01*
X131574278Y-127835297D01*
X131575000Y-127850000D01*
X131575000Y-129500000D01*
X131574278Y-129514703D01*
X131572118Y-129529264D01*
X131568541Y-129543543D01*
X131563582Y-129557403D01*
X131557288Y-129570710D01*
X131549720Y-129583336D01*
X131540952Y-129595159D01*
X131531066Y-129606066D01*
X131520159Y-129615952D01*
X131508336Y-129624720D01*
X131495710Y-129632288D01*
X131482403Y-129638582D01*
X131468543Y-129643541D01*
X131454264Y-129647118D01*
X131439703Y-129649278D01*
X131425000Y-129650000D01*
X131125000Y-129650000D01*
X131110297Y-129649278D01*
X131095736Y-129647118D01*
X131081457Y-129643541D01*
X131067597Y-129638582D01*
X131054290Y-129632288D01*
X131041664Y-129624720D01*
X131029841Y-129615952D01*
X131018934Y-129606066D01*
X131009048Y-129595159D01*
X131000280Y-129583336D01*
X130992712Y-129570710D01*
X130986418Y-129557403D01*
X130981459Y-129543543D01*
X130977882Y-129529264D01*
X130975722Y-129514703D01*
X130975000Y-129500000D01*
X130975000Y-127850000D01*
X130975722Y-127835297D01*
X130977882Y-127820736D01*
X130981459Y-127806457D01*
X130986418Y-127792597D01*
X130992712Y-127779290D01*
X131000280Y-127766664D01*
X131009048Y-127754841D01*
X131018934Y-127743934D01*
X131029841Y-127734048D01*
X131041664Y-127725280D01*
X131054290Y-127717712D01*
X131067597Y-127711418D01*
X131081457Y-127706459D01*
X131095736Y-127702882D01*
X131110297Y-127700722D01*
X131125000Y-127700000D01*
X131425000Y-127700000D01*
X131439703Y-127700722D01*
G37*
G36*
X132709703Y-127700722D02*
G01*
X132724264Y-127702882D01*
X132738543Y-127706459D01*
X132752403Y-127711418D01*
X132765710Y-127717712D01*
X132778336Y-127725280D01*
X132790159Y-127734048D01*
X132801066Y-127743934D01*
X132810952Y-127754841D01*
X132819720Y-127766664D01*
X132827288Y-127779290D01*
X132833582Y-127792597D01*
X132838541Y-127806457D01*
X132842118Y-127820736D01*
X132844278Y-127835297D01*
X132845000Y-127850000D01*
X132845000Y-129500000D01*
X132844278Y-129514703D01*
X132842118Y-129529264D01*
X132838541Y-129543543D01*
X132833582Y-129557403D01*
X132827288Y-129570710D01*
X132819720Y-129583336D01*
X132810952Y-129595159D01*
X132801066Y-129606066D01*
X132790159Y-129615952D01*
X132778336Y-129624720D01*
X132765710Y-129632288D01*
X132752403Y-129638582D01*
X132738543Y-129643541D01*
X132724264Y-129647118D01*
X132709703Y-129649278D01*
X132695000Y-129650000D01*
X132395000Y-129650000D01*
X132380297Y-129649278D01*
X132365736Y-129647118D01*
X132351457Y-129643541D01*
X132337597Y-129638582D01*
X132324290Y-129632288D01*
X132311664Y-129624720D01*
X132299841Y-129615952D01*
X132288934Y-129606066D01*
X132279048Y-129595159D01*
X132270280Y-129583336D01*
X132262712Y-129570710D01*
X132256418Y-129557403D01*
X132251459Y-129543543D01*
X132247882Y-129529264D01*
X132245722Y-129514703D01*
X132245000Y-129500000D01*
X132245000Y-127850000D01*
X132245722Y-127835297D01*
X132247882Y-127820736D01*
X132251459Y-127806457D01*
X132256418Y-127792597D01*
X132262712Y-127779290D01*
X132270280Y-127766664D01*
X132279048Y-127754841D01*
X132288934Y-127743934D01*
X132299841Y-127734048D01*
X132311664Y-127725280D01*
X132324290Y-127717712D01*
X132337597Y-127711418D01*
X132351457Y-127706459D01*
X132365736Y-127702882D01*
X132380297Y-127700722D01*
X132395000Y-127700000D01*
X132695000Y-127700000D01*
X132709703Y-127700722D01*
G37*
G36*
X127214802Y-106515482D02*
G01*
X127224509Y-106516921D01*
X127234028Y-106519306D01*
X127243268Y-106522612D01*
X127252140Y-106526808D01*
X127260557Y-106531853D01*
X127268439Y-106537699D01*
X127275711Y-106544289D01*
X127282301Y-106551561D01*
X127288147Y-106559443D01*
X127293192Y-106567860D01*
X127297388Y-106576732D01*
X127300694Y-106585972D01*
X127303079Y-106595491D01*
X127304518Y-106605198D01*
X127305000Y-106615000D01*
X127305000Y-107890000D01*
X127304518Y-107899802D01*
X127303079Y-107909509D01*
X127300694Y-107919028D01*
X127297388Y-107928268D01*
X127293192Y-107937140D01*
X127288147Y-107945557D01*
X127282301Y-107953439D01*
X127275711Y-107960711D01*
X127268439Y-107967301D01*
X127260557Y-107973147D01*
X127252140Y-107978192D01*
X127243268Y-107982388D01*
X127234028Y-107985694D01*
X127224509Y-107988079D01*
X127214802Y-107989518D01*
X127205000Y-107990000D01*
X127005000Y-107990000D01*
X126995198Y-107989518D01*
X126985491Y-107988079D01*
X126975972Y-107985694D01*
X126966732Y-107982388D01*
X126957860Y-107978192D01*
X126949443Y-107973147D01*
X126941561Y-107967301D01*
X126934289Y-107960711D01*
X126927699Y-107953439D01*
X126921853Y-107945557D01*
X126916808Y-107937140D01*
X126912612Y-107928268D01*
X126909306Y-107919028D01*
X126906921Y-107909509D01*
X126905482Y-107899802D01*
X126905000Y-107890000D01*
X126905000Y-106615000D01*
X126905482Y-106605198D01*
X126906921Y-106595491D01*
X126909306Y-106585972D01*
X126912612Y-106576732D01*
X126916808Y-106567860D01*
X126921853Y-106559443D01*
X126927699Y-106551561D01*
X126934289Y-106544289D01*
X126941561Y-106537699D01*
X126949443Y-106531853D01*
X126957860Y-106526808D01*
X126966732Y-106522612D01*
X126975972Y-106519306D01*
X126985491Y-106516921D01*
X126995198Y-106515482D01*
X127005000Y-106515000D01*
X127205000Y-106515000D01*
X127214802Y-106515482D01*
G37*
G36*
X127864802Y-106515482D02*
G01*
X127874509Y-106516921D01*
X127884028Y-106519306D01*
X127893268Y-106522612D01*
X127902140Y-106526808D01*
X127910557Y-106531853D01*
X127918439Y-106537699D01*
X127925711Y-106544289D01*
X127932301Y-106551561D01*
X127938147Y-106559443D01*
X127943192Y-106567860D01*
X127947388Y-106576732D01*
X127950694Y-106585972D01*
X127953079Y-106595491D01*
X127954518Y-106605198D01*
X127955000Y-106615000D01*
X127955000Y-107890000D01*
X127954518Y-107899802D01*
X127953079Y-107909509D01*
X127950694Y-107919028D01*
X127947388Y-107928268D01*
X127943192Y-107937140D01*
X127938147Y-107945557D01*
X127932301Y-107953439D01*
X127925711Y-107960711D01*
X127918439Y-107967301D01*
X127910557Y-107973147D01*
X127902140Y-107978192D01*
X127893268Y-107982388D01*
X127884028Y-107985694D01*
X127874509Y-107988079D01*
X127864802Y-107989518D01*
X127855000Y-107990000D01*
X127655000Y-107990000D01*
X127645198Y-107989518D01*
X127635491Y-107988079D01*
X127625972Y-107985694D01*
X127616732Y-107982388D01*
X127607860Y-107978192D01*
X127599443Y-107973147D01*
X127591561Y-107967301D01*
X127584289Y-107960711D01*
X127577699Y-107953439D01*
X127571853Y-107945557D01*
X127566808Y-107937140D01*
X127562612Y-107928268D01*
X127559306Y-107919028D01*
X127556921Y-107909509D01*
X127555482Y-107899802D01*
X127555000Y-107890000D01*
X127555000Y-106615000D01*
X127555482Y-106605198D01*
X127556921Y-106595491D01*
X127559306Y-106585972D01*
X127562612Y-106576732D01*
X127566808Y-106567860D01*
X127571853Y-106559443D01*
X127577699Y-106551561D01*
X127584289Y-106544289D01*
X127591561Y-106537699D01*
X127599443Y-106531853D01*
X127607860Y-106526808D01*
X127616732Y-106522612D01*
X127625972Y-106519306D01*
X127635491Y-106516921D01*
X127645198Y-106515482D01*
X127655000Y-106515000D01*
X127855000Y-106515000D01*
X127864802Y-106515482D01*
G37*
G36*
X128514802Y-106515482D02*
G01*
X128524509Y-106516921D01*
X128534028Y-106519306D01*
X128543268Y-106522612D01*
X128552140Y-106526808D01*
X128560557Y-106531853D01*
X128568439Y-106537699D01*
X128575711Y-106544289D01*
X128582301Y-106551561D01*
X128588147Y-106559443D01*
X128593192Y-106567860D01*
X128597388Y-106576732D01*
X128600694Y-106585972D01*
X128603079Y-106595491D01*
X128604518Y-106605198D01*
X128605000Y-106615000D01*
X128605000Y-107890000D01*
X128604518Y-107899802D01*
X128603079Y-107909509D01*
X128600694Y-107919028D01*
X128597388Y-107928268D01*
X128593192Y-107937140D01*
X128588147Y-107945557D01*
X128582301Y-107953439D01*
X128575711Y-107960711D01*
X128568439Y-107967301D01*
X128560557Y-107973147D01*
X128552140Y-107978192D01*
X128543268Y-107982388D01*
X128534028Y-107985694D01*
X128524509Y-107988079D01*
X128514802Y-107989518D01*
X128505000Y-107990000D01*
X128305000Y-107990000D01*
X128295198Y-107989518D01*
X128285491Y-107988079D01*
X128275972Y-107985694D01*
X128266732Y-107982388D01*
X128257860Y-107978192D01*
X128249443Y-107973147D01*
X128241561Y-107967301D01*
X128234289Y-107960711D01*
X128227699Y-107953439D01*
X128221853Y-107945557D01*
X128216808Y-107937140D01*
X128212612Y-107928268D01*
X128209306Y-107919028D01*
X128206921Y-107909509D01*
X128205482Y-107899802D01*
X128205000Y-107890000D01*
X128205000Y-106615000D01*
X128205482Y-106605198D01*
X128206921Y-106595491D01*
X128209306Y-106585972D01*
X128212612Y-106576732D01*
X128216808Y-106567860D01*
X128221853Y-106559443D01*
X128227699Y-106551561D01*
X128234289Y-106544289D01*
X128241561Y-106537699D01*
X128249443Y-106531853D01*
X128257860Y-106526808D01*
X128266732Y-106522612D01*
X128275972Y-106519306D01*
X128285491Y-106516921D01*
X128295198Y-106515482D01*
X128305000Y-106515000D01*
X128505000Y-106515000D01*
X128514802Y-106515482D01*
G37*
G36*
X129164802Y-106515482D02*
G01*
X129174509Y-106516921D01*
X129184028Y-106519306D01*
X129193268Y-106522612D01*
X129202140Y-106526808D01*
X129210557Y-106531853D01*
X129218439Y-106537699D01*
X129225711Y-106544289D01*
X129232301Y-106551561D01*
X129238147Y-106559443D01*
X129243192Y-106567860D01*
X129247388Y-106576732D01*
X129250694Y-106585972D01*
X129253079Y-106595491D01*
X129254518Y-106605198D01*
X129255000Y-106615000D01*
X129255000Y-107890000D01*
X129254518Y-107899802D01*
X129253079Y-107909509D01*
X129250694Y-107919028D01*
X129247388Y-107928268D01*
X129243192Y-107937140D01*
X129238147Y-107945557D01*
X129232301Y-107953439D01*
X129225711Y-107960711D01*
X129218439Y-107967301D01*
X129210557Y-107973147D01*
X129202140Y-107978192D01*
X129193268Y-107982388D01*
X129184028Y-107985694D01*
X129174509Y-107988079D01*
X129164802Y-107989518D01*
X129155000Y-107990000D01*
X128955000Y-107990000D01*
X128945198Y-107989518D01*
X128935491Y-107988079D01*
X128925972Y-107985694D01*
X128916732Y-107982388D01*
X128907860Y-107978192D01*
X128899443Y-107973147D01*
X128891561Y-107967301D01*
X128884289Y-107960711D01*
X128877699Y-107953439D01*
X128871853Y-107945557D01*
X128866808Y-107937140D01*
X128862612Y-107928268D01*
X128859306Y-107919028D01*
X128856921Y-107909509D01*
X128855482Y-107899802D01*
X128855000Y-107890000D01*
X128855000Y-106615000D01*
X128855482Y-106605198D01*
X128856921Y-106595491D01*
X128859306Y-106585972D01*
X128862612Y-106576732D01*
X128866808Y-106567860D01*
X128871853Y-106559443D01*
X128877699Y-106551561D01*
X128884289Y-106544289D01*
X128891561Y-106537699D01*
X128899443Y-106531853D01*
X128907860Y-106526808D01*
X128916732Y-106522612D01*
X128925972Y-106519306D01*
X128935491Y-106516921D01*
X128945198Y-106515482D01*
X128955000Y-106515000D01*
X129155000Y-106515000D01*
X129164802Y-106515482D01*
G37*
G36*
X129164802Y-100790482D02*
G01*
X129174509Y-100791921D01*
X129184028Y-100794306D01*
X129193268Y-100797612D01*
X129202140Y-100801808D01*
X129210557Y-100806853D01*
X129218439Y-100812699D01*
X129225711Y-100819289D01*
X129232301Y-100826561D01*
X129238147Y-100834443D01*
X129243192Y-100842860D01*
X129247388Y-100851732D01*
X129250694Y-100860972D01*
X129253079Y-100870491D01*
X129254518Y-100880198D01*
X129255000Y-100890000D01*
X129255000Y-102165000D01*
X129254518Y-102174802D01*
X129253079Y-102184509D01*
X129250694Y-102194028D01*
X129247388Y-102203268D01*
X129243192Y-102212140D01*
X129238147Y-102220557D01*
X129232301Y-102228439D01*
X129225711Y-102235711D01*
X129218439Y-102242301D01*
X129210557Y-102248147D01*
X129202140Y-102253192D01*
X129193268Y-102257388D01*
X129184028Y-102260694D01*
X129174509Y-102263079D01*
X129164802Y-102264518D01*
X129155000Y-102265000D01*
X128955000Y-102265000D01*
X128945198Y-102264518D01*
X128935491Y-102263079D01*
X128925972Y-102260694D01*
X128916732Y-102257388D01*
X128907860Y-102253192D01*
X128899443Y-102248147D01*
X128891561Y-102242301D01*
X128884289Y-102235711D01*
X128877699Y-102228439D01*
X128871853Y-102220557D01*
X128866808Y-102212140D01*
X128862612Y-102203268D01*
X128859306Y-102194028D01*
X128856921Y-102184509D01*
X128855482Y-102174802D01*
X128855000Y-102165000D01*
X128855000Y-100890000D01*
X128855482Y-100880198D01*
X128856921Y-100870491D01*
X128859306Y-100860972D01*
X128862612Y-100851732D01*
X128866808Y-100842860D01*
X128871853Y-100834443D01*
X128877699Y-100826561D01*
X128884289Y-100819289D01*
X128891561Y-100812699D01*
X128899443Y-100806853D01*
X128907860Y-100801808D01*
X128916732Y-100797612D01*
X128925972Y-100794306D01*
X128935491Y-100791921D01*
X128945198Y-100790482D01*
X128955000Y-100790000D01*
X129155000Y-100790000D01*
X129164802Y-100790482D01*
G37*
G36*
X128514802Y-100790482D02*
G01*
X128524509Y-100791921D01*
X128534028Y-100794306D01*
X128543268Y-100797612D01*
X128552140Y-100801808D01*
X128560557Y-100806853D01*
X128568439Y-100812699D01*
X128575711Y-100819289D01*
X128582301Y-100826561D01*
X128588147Y-100834443D01*
X128593192Y-100842860D01*
X128597388Y-100851732D01*
X128600694Y-100860972D01*
X128603079Y-100870491D01*
X128604518Y-100880198D01*
X128605000Y-100890000D01*
X128605000Y-102165000D01*
X128604518Y-102174802D01*
X128603079Y-102184509D01*
X128600694Y-102194028D01*
X128597388Y-102203268D01*
X128593192Y-102212140D01*
X128588147Y-102220557D01*
X128582301Y-102228439D01*
X128575711Y-102235711D01*
X128568439Y-102242301D01*
X128560557Y-102248147D01*
X128552140Y-102253192D01*
X128543268Y-102257388D01*
X128534028Y-102260694D01*
X128524509Y-102263079D01*
X128514802Y-102264518D01*
X128505000Y-102265000D01*
X128305000Y-102265000D01*
X128295198Y-102264518D01*
X128285491Y-102263079D01*
X128275972Y-102260694D01*
X128266732Y-102257388D01*
X128257860Y-102253192D01*
X128249443Y-102248147D01*
X128241561Y-102242301D01*
X128234289Y-102235711D01*
X128227699Y-102228439D01*
X128221853Y-102220557D01*
X128216808Y-102212140D01*
X128212612Y-102203268D01*
X128209306Y-102194028D01*
X128206921Y-102184509D01*
X128205482Y-102174802D01*
X128205000Y-102165000D01*
X128205000Y-100890000D01*
X128205482Y-100880198D01*
X128206921Y-100870491D01*
X128209306Y-100860972D01*
X128212612Y-100851732D01*
X128216808Y-100842860D01*
X128221853Y-100834443D01*
X128227699Y-100826561D01*
X128234289Y-100819289D01*
X128241561Y-100812699D01*
X128249443Y-100806853D01*
X128257860Y-100801808D01*
X128266732Y-100797612D01*
X128275972Y-100794306D01*
X128285491Y-100791921D01*
X128295198Y-100790482D01*
X128305000Y-100790000D01*
X128505000Y-100790000D01*
X128514802Y-100790482D01*
G37*
G36*
X127864802Y-100790482D02*
G01*
X127874509Y-100791921D01*
X127884028Y-100794306D01*
X127893268Y-100797612D01*
X127902140Y-100801808D01*
X127910557Y-100806853D01*
X127918439Y-100812699D01*
X127925711Y-100819289D01*
X127932301Y-100826561D01*
X127938147Y-100834443D01*
X127943192Y-100842860D01*
X127947388Y-100851732D01*
X127950694Y-100860972D01*
X127953079Y-100870491D01*
X127954518Y-100880198D01*
X127955000Y-100890000D01*
X127955000Y-102165000D01*
X127954518Y-102174802D01*
X127953079Y-102184509D01*
X127950694Y-102194028D01*
X127947388Y-102203268D01*
X127943192Y-102212140D01*
X127938147Y-102220557D01*
X127932301Y-102228439D01*
X127925711Y-102235711D01*
X127918439Y-102242301D01*
X127910557Y-102248147D01*
X127902140Y-102253192D01*
X127893268Y-102257388D01*
X127884028Y-102260694D01*
X127874509Y-102263079D01*
X127864802Y-102264518D01*
X127855000Y-102265000D01*
X127655000Y-102265000D01*
X127645198Y-102264518D01*
X127635491Y-102263079D01*
X127625972Y-102260694D01*
X127616732Y-102257388D01*
X127607860Y-102253192D01*
X127599443Y-102248147D01*
X127591561Y-102242301D01*
X127584289Y-102235711D01*
X127577699Y-102228439D01*
X127571853Y-102220557D01*
X127566808Y-102212140D01*
X127562612Y-102203268D01*
X127559306Y-102194028D01*
X127556921Y-102184509D01*
X127555482Y-102174802D01*
X127555000Y-102165000D01*
X127555000Y-100890000D01*
X127555482Y-100880198D01*
X127556921Y-100870491D01*
X127559306Y-100860972D01*
X127562612Y-100851732D01*
X127566808Y-100842860D01*
X127571853Y-100834443D01*
X127577699Y-100826561D01*
X127584289Y-100819289D01*
X127591561Y-100812699D01*
X127599443Y-100806853D01*
X127607860Y-100801808D01*
X127616732Y-100797612D01*
X127625972Y-100794306D01*
X127635491Y-100791921D01*
X127645198Y-100790482D01*
X127655000Y-100790000D01*
X127855000Y-100790000D01*
X127864802Y-100790482D01*
G37*
G36*
X127214802Y-100790482D02*
G01*
X127224509Y-100791921D01*
X127234028Y-100794306D01*
X127243268Y-100797612D01*
X127252140Y-100801808D01*
X127260557Y-100806853D01*
X127268439Y-100812699D01*
X127275711Y-100819289D01*
X127282301Y-100826561D01*
X127288147Y-100834443D01*
X127293192Y-100842860D01*
X127297388Y-100851732D01*
X127300694Y-100860972D01*
X127303079Y-100870491D01*
X127304518Y-100880198D01*
X127305000Y-100890000D01*
X127305000Y-102165000D01*
X127304518Y-102174802D01*
X127303079Y-102184509D01*
X127300694Y-102194028D01*
X127297388Y-102203268D01*
X127293192Y-102212140D01*
X127288147Y-102220557D01*
X127282301Y-102228439D01*
X127275711Y-102235711D01*
X127268439Y-102242301D01*
X127260557Y-102248147D01*
X127252140Y-102253192D01*
X127243268Y-102257388D01*
X127234028Y-102260694D01*
X127224509Y-102263079D01*
X127214802Y-102264518D01*
X127205000Y-102265000D01*
X127005000Y-102265000D01*
X126995198Y-102264518D01*
X126985491Y-102263079D01*
X126975972Y-102260694D01*
X126966732Y-102257388D01*
X126957860Y-102253192D01*
X126949443Y-102248147D01*
X126941561Y-102242301D01*
X126934289Y-102235711D01*
X126927699Y-102228439D01*
X126921853Y-102220557D01*
X126916808Y-102212140D01*
X126912612Y-102203268D01*
X126909306Y-102194028D01*
X126906921Y-102184509D01*
X126905482Y-102174802D01*
X126905000Y-102165000D01*
X126905000Y-100890000D01*
X126905482Y-100880198D01*
X126906921Y-100870491D01*
X126909306Y-100860972D01*
X126912612Y-100851732D01*
X126916808Y-100842860D01*
X126921853Y-100834443D01*
X126927699Y-100826561D01*
X126934289Y-100819289D01*
X126941561Y-100812699D01*
X126949443Y-100806853D01*
X126957860Y-100801808D01*
X126966732Y-100797612D01*
X126975972Y-100794306D01*
X126985491Y-100791921D01*
X126995198Y-100790482D01*
X127005000Y-100790000D01*
X127205000Y-100790000D01*
X127214802Y-100790482D01*
G37*
D11*
X127030000Y-94420000D03*
X127030000Y-95370000D03*
X127030000Y-96320000D03*
X129230000Y-96320000D03*
X129230000Y-94420000D03*
M02*
