G04 #@! TF.GenerationSoftware,KiCad,Pcbnew,5.1.5+dfsg1-2build2*
G04 #@! TF.CreationDate,2021-11-18T22:50:20-05:00*
G04 #@! TF.ProjectId,color_computer_dac,636f6c6f-725f-4636-9f6d-70757465725f,1.1.0*
G04 #@! TF.SameCoordinates,Original*
G04 #@! TF.FileFunction,Soldermask,Bot*
G04 #@! TF.FilePolarity,Negative*
%FSLAX46Y46*%
G04 Gerber Fmt 4.6, Leading zero omitted, Abs format (unit mm)*
G04 Created by KiCad (PCBNEW 5.1.5+dfsg1-2build2) date 2021-11-18 22:50:20*
%MOMM*%
%LPD*%
G04 APERTURE LIST*
%ADD10C,0.100000*%
G04 APERTURE END LIST*
D10*
G36*
X119750117Y-130795460D02*
G01*
X119750118Y-130795465D01*
X119788710Y-132590000D01*
X119790000Y-132650000D01*
X115210000Y-132650000D01*
X115210000Y-130790000D01*
X119750000Y-130790000D01*
X119750117Y-130795460D01*
G37*
G36*
X136450000Y-132590000D02*
G01*
X135434957Y-132588203D01*
X130806137Y-132580011D01*
X130806136Y-132580011D01*
X130800000Y-132580000D01*
X136450000Y-126370000D01*
X136450000Y-132590000D01*
G37*
G36*
X132243228Y-115866703D02*
G01*
X132398100Y-115930853D01*
X132537481Y-116023985D01*
X132656015Y-116142519D01*
X132749147Y-116281900D01*
X132813297Y-116436772D01*
X132846000Y-116601184D01*
X132846000Y-116768816D01*
X132813297Y-116933228D01*
X132749147Y-117088100D01*
X132656015Y-117227481D01*
X132537481Y-117346015D01*
X132398100Y-117439147D01*
X132243228Y-117503297D01*
X132078816Y-117536000D01*
X131911184Y-117536000D01*
X131746772Y-117503297D01*
X131591900Y-117439147D01*
X131452519Y-117346015D01*
X131333985Y-117227481D01*
X131240853Y-117088100D01*
X131176703Y-116933228D01*
X131144000Y-116768816D01*
X131144000Y-116601184D01*
X131176703Y-116436772D01*
X131240853Y-116281900D01*
X131333985Y-116142519D01*
X131452519Y-116023985D01*
X131591900Y-115930853D01*
X131746772Y-115866703D01*
X131911184Y-115834000D01*
X132078816Y-115834000D01*
X132243228Y-115866703D01*
G37*
G36*
X124623228Y-115866703D02*
G01*
X124778100Y-115930853D01*
X124917481Y-116023985D01*
X125036015Y-116142519D01*
X125129147Y-116281900D01*
X125193297Y-116436772D01*
X125226000Y-116601184D01*
X125226000Y-116768816D01*
X125193297Y-116933228D01*
X125129147Y-117088100D01*
X125036015Y-117227481D01*
X124917481Y-117346015D01*
X124778100Y-117439147D01*
X124623228Y-117503297D01*
X124458816Y-117536000D01*
X124291184Y-117536000D01*
X124126772Y-117503297D01*
X123971900Y-117439147D01*
X123832519Y-117346015D01*
X123713985Y-117227481D01*
X123620853Y-117088100D01*
X123556703Y-116933228D01*
X123524000Y-116768816D01*
X123524000Y-116601184D01*
X123556703Y-116436772D01*
X123620853Y-116281900D01*
X123713985Y-116142519D01*
X123832519Y-116023985D01*
X123971900Y-115930853D01*
X124126772Y-115866703D01*
X124291184Y-115834000D01*
X124458816Y-115834000D01*
X124623228Y-115866703D01*
G37*
G36*
X124623228Y-113326703D02*
G01*
X124778100Y-113390853D01*
X124917481Y-113483985D01*
X125036015Y-113602519D01*
X125129147Y-113741900D01*
X125193297Y-113896772D01*
X125226000Y-114061184D01*
X125226000Y-114228816D01*
X125193297Y-114393228D01*
X125129147Y-114548100D01*
X125036015Y-114687481D01*
X124917481Y-114806015D01*
X124778100Y-114899147D01*
X124623228Y-114963297D01*
X124458816Y-114996000D01*
X124291184Y-114996000D01*
X124126772Y-114963297D01*
X123971900Y-114899147D01*
X123832519Y-114806015D01*
X123713985Y-114687481D01*
X123620853Y-114548100D01*
X123556703Y-114393228D01*
X123524000Y-114228816D01*
X123524000Y-114061184D01*
X123556703Y-113896772D01*
X123620853Y-113741900D01*
X123713985Y-113602519D01*
X123832519Y-113483985D01*
X123971900Y-113390853D01*
X124126772Y-113326703D01*
X124291184Y-113294000D01*
X124458816Y-113294000D01*
X124623228Y-113326703D01*
G37*
G36*
X132243228Y-113326703D02*
G01*
X132398100Y-113390853D01*
X132537481Y-113483985D01*
X132656015Y-113602519D01*
X132749147Y-113741900D01*
X132813297Y-113896772D01*
X132846000Y-114061184D01*
X132846000Y-114228816D01*
X132813297Y-114393228D01*
X132749147Y-114548100D01*
X132656015Y-114687481D01*
X132537481Y-114806015D01*
X132398100Y-114899147D01*
X132243228Y-114963297D01*
X132078816Y-114996000D01*
X131911184Y-114996000D01*
X131746772Y-114963297D01*
X131591900Y-114899147D01*
X131452519Y-114806015D01*
X131333985Y-114687481D01*
X131240853Y-114548100D01*
X131176703Y-114393228D01*
X131144000Y-114228816D01*
X131144000Y-114061184D01*
X131176703Y-113896772D01*
X131240853Y-113741900D01*
X131333985Y-113602519D01*
X131452519Y-113483985D01*
X131591900Y-113390853D01*
X131746772Y-113326703D01*
X131911184Y-113294000D01*
X132078816Y-113294000D01*
X132243228Y-113326703D01*
G37*
G36*
X124623228Y-110786703D02*
G01*
X124778100Y-110850853D01*
X124917481Y-110943985D01*
X125036015Y-111062519D01*
X125129147Y-111201900D01*
X125193297Y-111356772D01*
X125226000Y-111521184D01*
X125226000Y-111688816D01*
X125193297Y-111853228D01*
X125129147Y-112008100D01*
X125036015Y-112147481D01*
X124917481Y-112266015D01*
X124778100Y-112359147D01*
X124623228Y-112423297D01*
X124458816Y-112456000D01*
X124291184Y-112456000D01*
X124126772Y-112423297D01*
X123971900Y-112359147D01*
X123832519Y-112266015D01*
X123713985Y-112147481D01*
X123620853Y-112008100D01*
X123556703Y-111853228D01*
X123524000Y-111688816D01*
X123524000Y-111521184D01*
X123556703Y-111356772D01*
X123620853Y-111201900D01*
X123713985Y-111062519D01*
X123832519Y-110943985D01*
X123971900Y-110850853D01*
X124126772Y-110786703D01*
X124291184Y-110754000D01*
X124458816Y-110754000D01*
X124623228Y-110786703D01*
G37*
G36*
X132243228Y-110786703D02*
G01*
X132398100Y-110850853D01*
X132537481Y-110943985D01*
X132656015Y-111062519D01*
X132749147Y-111201900D01*
X132813297Y-111356772D01*
X132846000Y-111521184D01*
X132846000Y-111688816D01*
X132813297Y-111853228D01*
X132749147Y-112008100D01*
X132656015Y-112147481D01*
X132537481Y-112266015D01*
X132398100Y-112359147D01*
X132243228Y-112423297D01*
X132078816Y-112456000D01*
X131911184Y-112456000D01*
X131746772Y-112423297D01*
X131591900Y-112359147D01*
X131452519Y-112266015D01*
X131333985Y-112147481D01*
X131240853Y-112008100D01*
X131176703Y-111853228D01*
X131144000Y-111688816D01*
X131144000Y-111521184D01*
X131176703Y-111356772D01*
X131240853Y-111201900D01*
X131333985Y-111062519D01*
X131452519Y-110943985D01*
X131591900Y-110850853D01*
X131746772Y-110786703D01*
X131911184Y-110754000D01*
X132078816Y-110754000D01*
X132243228Y-110786703D01*
G37*
G36*
X124623228Y-108246703D02*
G01*
X124778100Y-108310853D01*
X124917481Y-108403985D01*
X125036015Y-108522519D01*
X125129147Y-108661900D01*
X125193297Y-108816772D01*
X125226000Y-108981184D01*
X125226000Y-109148816D01*
X125193297Y-109313228D01*
X125129147Y-109468100D01*
X125036015Y-109607481D01*
X124917481Y-109726015D01*
X124778100Y-109819147D01*
X124623228Y-109883297D01*
X124458816Y-109916000D01*
X124291184Y-109916000D01*
X124126772Y-109883297D01*
X123971900Y-109819147D01*
X123832519Y-109726015D01*
X123713985Y-109607481D01*
X123620853Y-109468100D01*
X123556703Y-109313228D01*
X123524000Y-109148816D01*
X123524000Y-108981184D01*
X123556703Y-108816772D01*
X123620853Y-108661900D01*
X123713985Y-108522519D01*
X123832519Y-108403985D01*
X123971900Y-108310853D01*
X124126772Y-108246703D01*
X124291184Y-108214000D01*
X124458816Y-108214000D01*
X124623228Y-108246703D01*
G37*
G36*
X132243228Y-108246703D02*
G01*
X132398100Y-108310853D01*
X132537481Y-108403985D01*
X132656015Y-108522519D01*
X132749147Y-108661900D01*
X132813297Y-108816772D01*
X132846000Y-108981184D01*
X132846000Y-109148816D01*
X132813297Y-109313228D01*
X132749147Y-109468100D01*
X132656015Y-109607481D01*
X132537481Y-109726015D01*
X132398100Y-109819147D01*
X132243228Y-109883297D01*
X132078816Y-109916000D01*
X131911184Y-109916000D01*
X131746772Y-109883297D01*
X131591900Y-109819147D01*
X131452519Y-109726015D01*
X131333985Y-109607481D01*
X131240853Y-109468100D01*
X131176703Y-109313228D01*
X131144000Y-109148816D01*
X131144000Y-108981184D01*
X131176703Y-108816772D01*
X131240853Y-108661900D01*
X131333985Y-108522519D01*
X131452519Y-108403985D01*
X131591900Y-108310853D01*
X131746772Y-108246703D01*
X131911184Y-108214000D01*
X132078816Y-108214000D01*
X132243228Y-108246703D01*
G37*
G36*
X135901262Y-101635135D02*
G01*
X136663856Y-101639961D01*
X136663857Y-101639961D01*
X136670000Y-101640000D01*
X136669992Y-101645980D01*
X136669992Y-101645982D01*
X136667517Y-103442519D01*
X136660000Y-108900000D01*
X135080000Y-108900000D01*
X135090000Y-101630000D01*
X135901262Y-101635135D01*
G37*
G36*
X124623228Y-105706703D02*
G01*
X124778100Y-105770853D01*
X124917481Y-105863985D01*
X125036015Y-105982519D01*
X125129147Y-106121900D01*
X125193297Y-106276772D01*
X125226000Y-106441184D01*
X125226000Y-106608816D01*
X125193297Y-106773228D01*
X125129147Y-106928100D01*
X125036015Y-107067481D01*
X124917481Y-107186015D01*
X124778100Y-107279147D01*
X124623228Y-107343297D01*
X124458816Y-107376000D01*
X124291184Y-107376000D01*
X124126772Y-107343297D01*
X123971900Y-107279147D01*
X123832519Y-107186015D01*
X123713985Y-107067481D01*
X123620853Y-106928100D01*
X123556703Y-106773228D01*
X123524000Y-106608816D01*
X123524000Y-106441184D01*
X123556703Y-106276772D01*
X123620853Y-106121900D01*
X123713985Y-105982519D01*
X123832519Y-105863985D01*
X123971900Y-105770853D01*
X124126772Y-105706703D01*
X124291184Y-105674000D01*
X124458816Y-105674000D01*
X124623228Y-105706703D01*
G37*
G36*
X132243228Y-105706703D02*
G01*
X132398100Y-105770853D01*
X132537481Y-105863985D01*
X132656015Y-105982519D01*
X132749147Y-106121900D01*
X132813297Y-106276772D01*
X132846000Y-106441184D01*
X132846000Y-106608816D01*
X132813297Y-106773228D01*
X132749147Y-106928100D01*
X132656015Y-107067481D01*
X132537481Y-107186015D01*
X132398100Y-107279147D01*
X132243228Y-107343297D01*
X132078816Y-107376000D01*
X131911184Y-107376000D01*
X131746772Y-107343297D01*
X131591900Y-107279147D01*
X131452519Y-107186015D01*
X131333985Y-107067481D01*
X131240853Y-106928100D01*
X131176703Y-106773228D01*
X131144000Y-106608816D01*
X131144000Y-106441184D01*
X131176703Y-106276772D01*
X131240853Y-106121900D01*
X131333985Y-105982519D01*
X131452519Y-105863985D01*
X131591900Y-105770853D01*
X131746772Y-105706703D01*
X131911184Y-105674000D01*
X132078816Y-105674000D01*
X132243228Y-105706703D01*
G37*
G36*
X117419117Y-103670883D02*
G01*
X117419928Y-103670648D01*
X117426951Y-103674513D01*
X117449474Y-103684166D01*
X117473447Y-103689239D01*
X117487217Y-103690000D01*
X122360000Y-103690000D01*
X122360000Y-104220000D01*
X119920000Y-106510000D01*
X119916171Y-106507545D01*
X119916167Y-106507543D01*
X118585688Y-105654567D01*
X116660000Y-104420000D01*
X116849772Y-104224882D01*
X117365720Y-103694400D01*
X117365723Y-103694397D01*
X117370000Y-103690000D01*
X117401685Y-103677326D01*
X117414297Y-103672281D01*
X117414299Y-103672280D01*
X117420000Y-103670000D01*
X117419117Y-103670883D01*
G37*
G36*
X124623228Y-103166703D02*
G01*
X124778100Y-103230853D01*
X124917481Y-103323985D01*
X125036015Y-103442519D01*
X125129147Y-103581900D01*
X125193297Y-103736772D01*
X125226000Y-103901184D01*
X125226000Y-104068816D01*
X125193297Y-104233228D01*
X125129147Y-104388100D01*
X125036015Y-104527481D01*
X124917481Y-104646015D01*
X124778100Y-104739147D01*
X124623228Y-104803297D01*
X124458816Y-104836000D01*
X124291184Y-104836000D01*
X124126772Y-104803297D01*
X123971900Y-104739147D01*
X123832519Y-104646015D01*
X123713985Y-104527481D01*
X123620853Y-104388100D01*
X123556703Y-104233228D01*
X123524000Y-104068816D01*
X123524000Y-103901184D01*
X123556703Y-103736772D01*
X123620853Y-103581900D01*
X123713985Y-103442519D01*
X123832519Y-103323985D01*
X123971900Y-103230853D01*
X124126772Y-103166703D01*
X124291184Y-103134000D01*
X124458816Y-103134000D01*
X124623228Y-103166703D01*
G37*
G36*
X132243228Y-103166703D02*
G01*
X132398100Y-103230853D01*
X132537481Y-103323985D01*
X132656015Y-103442519D01*
X132749147Y-103581900D01*
X132813297Y-103736772D01*
X132846000Y-103901184D01*
X132846000Y-104068816D01*
X132813297Y-104233228D01*
X132749147Y-104388100D01*
X132656015Y-104527481D01*
X132537481Y-104646015D01*
X132398100Y-104739147D01*
X132243228Y-104803297D01*
X132078816Y-104836000D01*
X131911184Y-104836000D01*
X131746772Y-104803297D01*
X131591900Y-104739147D01*
X131452519Y-104646015D01*
X131333985Y-104527481D01*
X131240853Y-104388100D01*
X131176703Y-104233228D01*
X131144000Y-104068816D01*
X131144000Y-103901184D01*
X131176703Y-103736772D01*
X131240853Y-103581900D01*
X131333985Y-103442519D01*
X131452519Y-103323985D01*
X131591900Y-103230853D01*
X131746772Y-103166703D01*
X131911184Y-103134000D01*
X132078816Y-103134000D01*
X132243228Y-103166703D01*
G37*
G36*
X124623228Y-100626703D02*
G01*
X124778100Y-100690853D01*
X124917481Y-100783985D01*
X125036015Y-100902519D01*
X125129147Y-101041900D01*
X125193297Y-101196772D01*
X125226000Y-101361184D01*
X125226000Y-101528816D01*
X125193297Y-101693228D01*
X125129147Y-101848100D01*
X125036015Y-101987481D01*
X124917481Y-102106015D01*
X124778100Y-102199147D01*
X124623228Y-102263297D01*
X124458816Y-102296000D01*
X124291184Y-102296000D01*
X124126772Y-102263297D01*
X123971900Y-102199147D01*
X123832519Y-102106015D01*
X123713985Y-101987481D01*
X123620853Y-101848100D01*
X123556703Y-101693228D01*
X123524000Y-101528816D01*
X123524000Y-101361184D01*
X123556703Y-101196772D01*
X123620853Y-101041900D01*
X123713985Y-100902519D01*
X123832519Y-100783985D01*
X123971900Y-100690853D01*
X124126772Y-100626703D01*
X124291184Y-100594000D01*
X124458816Y-100594000D01*
X124623228Y-100626703D01*
G37*
G36*
X132243228Y-100626703D02*
G01*
X132398100Y-100690853D01*
X132537481Y-100783985D01*
X132656015Y-100902519D01*
X132749147Y-101041900D01*
X132813297Y-101196772D01*
X132846000Y-101361184D01*
X132846000Y-101528816D01*
X132813297Y-101693228D01*
X132749147Y-101848100D01*
X132656015Y-101987481D01*
X132537481Y-102106015D01*
X132398100Y-102199147D01*
X132243228Y-102263297D01*
X132078816Y-102296000D01*
X131911184Y-102296000D01*
X131746772Y-102263297D01*
X131591900Y-102199147D01*
X131452519Y-102106015D01*
X131333985Y-101987481D01*
X131240853Y-101848100D01*
X131176703Y-101693228D01*
X131144000Y-101528816D01*
X131144000Y-101361184D01*
X131176703Y-101196772D01*
X131240853Y-101041900D01*
X131333985Y-100902519D01*
X131452519Y-100783985D01*
X131591900Y-100690853D01*
X131746772Y-100626703D01*
X131911184Y-100594000D01*
X132078816Y-100594000D01*
X132243228Y-100626703D01*
G37*
G36*
X124623228Y-98086703D02*
G01*
X124778100Y-98150853D01*
X124917481Y-98243985D01*
X125036015Y-98362519D01*
X125129147Y-98501900D01*
X125193297Y-98656772D01*
X125226000Y-98821184D01*
X125226000Y-98988816D01*
X125193297Y-99153228D01*
X125129147Y-99308100D01*
X125036015Y-99447481D01*
X124917481Y-99566015D01*
X124778100Y-99659147D01*
X124623228Y-99723297D01*
X124458816Y-99756000D01*
X124291184Y-99756000D01*
X124126772Y-99723297D01*
X123971900Y-99659147D01*
X123832519Y-99566015D01*
X123713985Y-99447481D01*
X123620853Y-99308100D01*
X123556703Y-99153228D01*
X123524000Y-98988816D01*
X123524000Y-98821184D01*
X123556703Y-98656772D01*
X123620853Y-98501900D01*
X123713985Y-98362519D01*
X123832519Y-98243985D01*
X123971900Y-98150853D01*
X124126772Y-98086703D01*
X124291184Y-98054000D01*
X124458816Y-98054000D01*
X124623228Y-98086703D01*
G37*
G36*
X132243228Y-98086703D02*
G01*
X132398100Y-98150853D01*
X132537481Y-98243985D01*
X132656015Y-98362519D01*
X132749147Y-98501900D01*
X132813297Y-98656772D01*
X132846000Y-98821184D01*
X132846000Y-98988816D01*
X132813297Y-99153228D01*
X132749147Y-99308100D01*
X132656015Y-99447481D01*
X132537481Y-99566015D01*
X132398100Y-99659147D01*
X132243228Y-99723297D01*
X132078816Y-99756000D01*
X131911184Y-99756000D01*
X131746772Y-99723297D01*
X131591900Y-99659147D01*
X131452519Y-99566015D01*
X131333985Y-99447481D01*
X131240853Y-99308100D01*
X131176703Y-99153228D01*
X131144000Y-98988816D01*
X131144000Y-98821184D01*
X131176703Y-98656772D01*
X131240853Y-98501900D01*
X131333985Y-98362519D01*
X131452519Y-98243985D01*
X131591900Y-98150853D01*
X131746772Y-98086703D01*
X131911184Y-98054000D01*
X132078816Y-98054000D01*
X132243228Y-98086703D01*
G37*
G36*
X125900388Y-92732202D02*
G01*
X125900527Y-92730789D01*
X125910163Y-92733712D01*
X125912886Y-92734839D01*
X125948598Y-92740210D01*
X130523862Y-92759973D01*
X130523867Y-92759974D01*
X130530000Y-92760000D01*
X130530000Y-99200000D01*
X127040000Y-99200000D01*
X127031759Y-99153228D01*
X125904651Y-92756399D01*
X125901328Y-92742346D01*
X125900629Y-92740003D01*
X125900000Y-92740000D01*
X125900000Y-92730000D01*
X125900388Y-92732202D01*
G37*
G36*
X124623228Y-95546703D02*
G01*
X124778100Y-95610853D01*
X124917481Y-95703985D01*
X125036015Y-95822519D01*
X125129147Y-95961900D01*
X125193297Y-96116772D01*
X125226000Y-96281184D01*
X125226000Y-96448816D01*
X125193297Y-96613228D01*
X125129147Y-96768100D01*
X125036015Y-96907481D01*
X124917481Y-97026015D01*
X124778100Y-97119147D01*
X124623228Y-97183297D01*
X124458816Y-97216000D01*
X124291184Y-97216000D01*
X124126772Y-97183297D01*
X123971900Y-97119147D01*
X123832519Y-97026015D01*
X123713985Y-96907481D01*
X123620853Y-96768100D01*
X123556703Y-96613228D01*
X123524000Y-96448816D01*
X123524000Y-96281184D01*
X123556703Y-96116772D01*
X123620853Y-95961900D01*
X123713985Y-95822519D01*
X123832519Y-95703985D01*
X123971900Y-95610853D01*
X124126772Y-95546703D01*
X124291184Y-95514000D01*
X124458816Y-95514000D01*
X124623228Y-95546703D01*
G37*
G36*
X132243228Y-95546703D02*
G01*
X132398100Y-95610853D01*
X132537481Y-95703985D01*
X132656015Y-95822519D01*
X132749147Y-95961900D01*
X132813297Y-96116772D01*
X132846000Y-96281184D01*
X132846000Y-96448816D01*
X132813297Y-96613228D01*
X132749147Y-96768100D01*
X132656015Y-96907481D01*
X132537481Y-97026015D01*
X132398100Y-97119147D01*
X132243228Y-97183297D01*
X132078816Y-97216000D01*
X131911184Y-97216000D01*
X131746772Y-97183297D01*
X131591900Y-97119147D01*
X131452519Y-97026015D01*
X131333985Y-96907481D01*
X131240853Y-96768100D01*
X131176703Y-96613228D01*
X131144000Y-96448816D01*
X131144000Y-96281184D01*
X131176703Y-96116772D01*
X131240853Y-95961900D01*
X131333985Y-95822519D01*
X131452519Y-95703985D01*
X131591900Y-95610853D01*
X131746772Y-95546703D01*
X131911184Y-95514000D01*
X132078816Y-95514000D01*
X132243228Y-95546703D01*
G37*
G36*
X125226000Y-94676000D02*
G01*
X123524000Y-94676000D01*
X123524000Y-92974000D01*
X125226000Y-92974000D01*
X125226000Y-94676000D01*
G37*
G36*
X132243228Y-93006703D02*
G01*
X132398100Y-93070853D01*
X132537481Y-93163985D01*
X132656015Y-93282519D01*
X132749147Y-93421900D01*
X132813297Y-93576772D01*
X132846000Y-93741184D01*
X132846000Y-93908816D01*
X132813297Y-94073228D01*
X132749147Y-94228100D01*
X132656015Y-94367481D01*
X132537481Y-94486015D01*
X132398100Y-94579147D01*
X132243228Y-94643297D01*
X132078816Y-94676000D01*
X131911184Y-94676000D01*
X131746772Y-94643297D01*
X131591900Y-94579147D01*
X131452519Y-94486015D01*
X131333985Y-94367481D01*
X131240853Y-94228100D01*
X131176703Y-94073228D01*
X131144000Y-93908816D01*
X131144000Y-93741184D01*
X131176703Y-93576772D01*
X131240853Y-93421900D01*
X131333985Y-93282519D01*
X131452519Y-93163985D01*
X131591900Y-93070853D01*
X131746772Y-93006703D01*
X131911184Y-92974000D01*
X132078816Y-92974000D01*
X132243228Y-93006703D01*
G37*
M02*
