G04 #@! TF.GenerationSoftware,KiCad,Pcbnew,5.1.5+dfsg1-2build2*
G04 #@! TF.CreationDate,2021-11-18T22:50:20-05:00*
G04 #@! TF.ProjectId,color_computer_dac,636f6c6f-725f-4636-9f6d-70757465725f,1.1.0*
G04 #@! TF.SameCoordinates,Original*
G04 #@! TF.FileFunction,Legend,Bot*
G04 #@! TF.FilePolarity,Positive*
%FSLAX46Y46*%
G04 Gerber Fmt 4.6, Leading zero omitted, Abs format (unit mm)*
G04 Created by KiCad (PCBNEW 5.1.5+dfsg1-2build2) date 2021-11-18 22:50:20*
%MOMM*%
%LPD*%
G04 APERTURE LIST*
%ADD10C,0.150000*%
G04 APERTURE END LIST*
D10*
X134206190Y-124532380D02*
X133634761Y-124532380D01*
X133920476Y-125532380D02*
X133920476Y-124532380D01*
X133301428Y-125532380D02*
X133301428Y-124532380D01*
X132872857Y-125532380D02*
X132872857Y-125008571D01*
X132920476Y-124913333D01*
X133015714Y-124865714D01*
X133158571Y-124865714D01*
X133253809Y-124913333D01*
X133301428Y-124960952D01*
X132396666Y-125532380D02*
X132396666Y-124865714D01*
X132396666Y-124532380D02*
X132444285Y-124580000D01*
X132396666Y-124627619D01*
X132349047Y-124580000D01*
X132396666Y-124532380D01*
X132396666Y-124627619D01*
X131968095Y-125484761D02*
X131872857Y-125532380D01*
X131682380Y-125532380D01*
X131587142Y-125484761D01*
X131539523Y-125389523D01*
X131539523Y-125341904D01*
X131587142Y-125246666D01*
X131682380Y-125199047D01*
X131825238Y-125199047D01*
X131920476Y-125151428D01*
X131968095Y-125056190D01*
X131968095Y-125008571D01*
X131920476Y-124913333D01*
X131825238Y-124865714D01*
X131682380Y-124865714D01*
X131587142Y-124913333D01*
X130349047Y-125532380D02*
X130349047Y-124532380D01*
X130349047Y-124913333D02*
X130253809Y-124865714D01*
X130063333Y-124865714D01*
X129968095Y-124913333D01*
X129920476Y-124960952D01*
X129872857Y-125056190D01*
X129872857Y-125341904D01*
X129920476Y-125437142D01*
X129968095Y-125484761D01*
X130063333Y-125532380D01*
X130253809Y-125532380D01*
X130349047Y-125484761D01*
X129301428Y-125532380D02*
X129396666Y-125484761D01*
X129444285Y-125437142D01*
X129491904Y-125341904D01*
X129491904Y-125056190D01*
X129444285Y-124960952D01*
X129396666Y-124913333D01*
X129301428Y-124865714D01*
X129158571Y-124865714D01*
X129063333Y-124913333D01*
X129015714Y-124960952D01*
X128968095Y-125056190D01*
X128968095Y-125341904D01*
X129015714Y-125437142D01*
X129063333Y-125484761D01*
X129158571Y-125532380D01*
X129301428Y-125532380D01*
X128110952Y-125532380D02*
X128110952Y-125008571D01*
X128158571Y-124913333D01*
X128253809Y-124865714D01*
X128444285Y-124865714D01*
X128539523Y-124913333D01*
X128110952Y-125484761D02*
X128206190Y-125532380D01*
X128444285Y-125532380D01*
X128539523Y-125484761D01*
X128587142Y-125389523D01*
X128587142Y-125294285D01*
X128539523Y-125199047D01*
X128444285Y-125151428D01*
X128206190Y-125151428D01*
X128110952Y-125103809D01*
X127634761Y-125532380D02*
X127634761Y-124865714D01*
X127634761Y-125056190D02*
X127587142Y-124960952D01*
X127539523Y-124913333D01*
X127444285Y-124865714D01*
X127349047Y-124865714D01*
X126587142Y-125532380D02*
X126587142Y-124532380D01*
X126587142Y-125484761D02*
X126682380Y-125532380D01*
X126872857Y-125532380D01*
X126968095Y-125484761D01*
X127015714Y-125437142D01*
X127063333Y-125341904D01*
X127063333Y-125056190D01*
X127015714Y-124960952D01*
X126968095Y-124913333D01*
X126872857Y-124865714D01*
X126682380Y-124865714D01*
X126587142Y-124913333D01*
X125349047Y-125532380D02*
X125349047Y-124865714D01*
X125349047Y-125056190D02*
X125301428Y-124960952D01*
X125253809Y-124913333D01*
X125158571Y-124865714D01*
X125063333Y-124865714D01*
X124349047Y-125484761D02*
X124444285Y-125532380D01*
X124634761Y-125532380D01*
X124730000Y-125484761D01*
X124777619Y-125389523D01*
X124777619Y-125008571D01*
X124730000Y-124913333D01*
X124634761Y-124865714D01*
X124444285Y-124865714D01*
X124349047Y-124913333D01*
X124301428Y-125008571D01*
X124301428Y-125103809D01*
X124777619Y-125199047D01*
X123872857Y-124865714D02*
X123872857Y-125865714D01*
X123872857Y-124913333D02*
X123777619Y-124865714D01*
X123587142Y-124865714D01*
X123491904Y-124913333D01*
X123444285Y-124960952D01*
X123396666Y-125056190D01*
X123396666Y-125341904D01*
X123444285Y-125437142D01*
X123491904Y-125484761D01*
X123587142Y-125532380D01*
X123777619Y-125532380D01*
X123872857Y-125484761D01*
X122825238Y-125532380D02*
X122920476Y-125484761D01*
X122968095Y-125389523D01*
X122968095Y-124532380D01*
X122015714Y-125532380D02*
X122015714Y-125008571D01*
X122063333Y-124913333D01*
X122158571Y-124865714D01*
X122349047Y-124865714D01*
X122444285Y-124913333D01*
X122015714Y-125484761D02*
X122110952Y-125532380D01*
X122349047Y-125532380D01*
X122444285Y-125484761D01*
X122491904Y-125389523D01*
X122491904Y-125294285D01*
X122444285Y-125199047D01*
X122349047Y-125151428D01*
X122110952Y-125151428D01*
X122015714Y-125103809D01*
X121110952Y-125484761D02*
X121206190Y-125532380D01*
X121396666Y-125532380D01*
X121491904Y-125484761D01*
X121539523Y-125437142D01*
X121587142Y-125341904D01*
X121587142Y-125056190D01*
X121539523Y-124960952D01*
X121491904Y-124913333D01*
X121396666Y-124865714D01*
X121206190Y-124865714D01*
X121110952Y-124913333D01*
X120301428Y-125484761D02*
X120396666Y-125532380D01*
X120587142Y-125532380D01*
X120682380Y-125484761D01*
X120730000Y-125389523D01*
X120730000Y-125008571D01*
X120682380Y-124913333D01*
X120587142Y-124865714D01*
X120396666Y-124865714D01*
X120301428Y-124913333D01*
X120253809Y-125008571D01*
X120253809Y-125103809D01*
X120730000Y-125199047D01*
X119872857Y-125484761D02*
X119777619Y-125532380D01*
X119587142Y-125532380D01*
X119491904Y-125484761D01*
X119444285Y-125389523D01*
X119444285Y-125341904D01*
X119491904Y-125246666D01*
X119587142Y-125199047D01*
X119730000Y-125199047D01*
X119825238Y-125151428D01*
X119872857Y-125056190D01*
X119872857Y-125008571D01*
X119825238Y-124913333D01*
X119730000Y-124865714D01*
X119587142Y-124865714D01*
X119491904Y-124913333D01*
X118396666Y-124865714D02*
X118015714Y-124865714D01*
X118253809Y-124532380D02*
X118253809Y-125389523D01*
X118206190Y-125484761D01*
X118110952Y-125532380D01*
X118015714Y-125532380D01*
X117682380Y-125532380D02*
X117682380Y-124532380D01*
X117253809Y-125532380D02*
X117253809Y-125008571D01*
X117301428Y-124913333D01*
X117396666Y-124865714D01*
X117539523Y-124865714D01*
X117634761Y-124913333D01*
X117682380Y-124960952D01*
X116396666Y-125484761D02*
X116491904Y-125532380D01*
X116682380Y-125532380D01*
X116777619Y-125484761D01*
X116825238Y-125389523D01*
X116825238Y-125008571D01*
X116777619Y-124913333D01*
X116682380Y-124865714D01*
X116491904Y-124865714D01*
X116396666Y-124913333D01*
X116349047Y-125008571D01*
X116349047Y-125103809D01*
X116825238Y-125199047D01*
X134110952Y-127134761D02*
X133968095Y-127182380D01*
X133730000Y-127182380D01*
X133634761Y-127134761D01*
X133587142Y-127087142D01*
X133539523Y-126991904D01*
X133539523Y-126896666D01*
X133587142Y-126801428D01*
X133634761Y-126753809D01*
X133730000Y-126706190D01*
X133920476Y-126658571D01*
X134015714Y-126610952D01*
X134063333Y-126563333D01*
X134110952Y-126468095D01*
X134110952Y-126372857D01*
X134063333Y-126277619D01*
X134015714Y-126230000D01*
X133920476Y-126182380D01*
X133682380Y-126182380D01*
X133539523Y-126230000D01*
X132539523Y-127087142D02*
X132587142Y-127134761D01*
X132730000Y-127182380D01*
X132825238Y-127182380D01*
X132968095Y-127134761D01*
X133063333Y-127039523D01*
X133110952Y-126944285D01*
X133158571Y-126753809D01*
X133158571Y-126610952D01*
X133110952Y-126420476D01*
X133063333Y-126325238D01*
X132968095Y-126230000D01*
X132825238Y-126182380D01*
X132730000Y-126182380D01*
X132587142Y-126230000D01*
X132539523Y-126277619D01*
X132206190Y-126182380D02*
X131539523Y-126182380D01*
X131968095Y-127182380D01*
X131253809Y-126182380D02*
X130587142Y-126182380D01*
X131015714Y-127182380D01*
X129730000Y-126182380D02*
X130206190Y-126182380D01*
X130253809Y-126658571D01*
X130206190Y-126610952D01*
X130110952Y-126563333D01*
X129872857Y-126563333D01*
X129777619Y-126610952D01*
X129730000Y-126658571D01*
X129682380Y-126753809D01*
X129682380Y-126991904D01*
X129730000Y-127087142D01*
X129777619Y-127134761D01*
X129872857Y-127182380D01*
X130110952Y-127182380D01*
X130206190Y-127134761D01*
X130253809Y-127087142D01*
X129301428Y-126277619D02*
X129253809Y-126230000D01*
X129158571Y-126182380D01*
X128920476Y-126182380D01*
X128825238Y-126230000D01*
X128777619Y-126277619D01*
X128730000Y-126372857D01*
X128730000Y-126468095D01*
X128777619Y-126610952D01*
X129349047Y-127182380D01*
X128730000Y-127182380D01*
X127872857Y-126182380D02*
X128063333Y-126182380D01*
X128158571Y-126230000D01*
X128206190Y-126277619D01*
X128301428Y-126420476D01*
X128349047Y-126610952D01*
X128349047Y-126991904D01*
X128301428Y-127087142D01*
X128253809Y-127134761D01*
X128158571Y-127182380D01*
X127968095Y-127182380D01*
X127872857Y-127134761D01*
X127825238Y-127087142D01*
X127777619Y-126991904D01*
X127777619Y-126753809D01*
X127825238Y-126658571D01*
X127872857Y-126610952D01*
X127968095Y-126563333D01*
X128158571Y-126563333D01*
X128253809Y-126610952D01*
X128301428Y-126658571D01*
X128349047Y-126753809D01*
X126587142Y-127182380D02*
X126587142Y-126182380D01*
X126349047Y-126182380D01*
X126206190Y-126230000D01*
X126110952Y-126325238D01*
X126063333Y-126420476D01*
X126015714Y-126610952D01*
X126015714Y-126753809D01*
X126063333Y-126944285D01*
X126110952Y-127039523D01*
X126206190Y-127134761D01*
X126349047Y-127182380D01*
X126587142Y-127182380D01*
X125634761Y-126896666D02*
X125158571Y-126896666D01*
X125730000Y-127182380D02*
X125396666Y-126182380D01*
X125063333Y-127182380D01*
X124158571Y-127087142D02*
X124206190Y-127134761D01*
X124349047Y-127182380D01*
X124444285Y-127182380D01*
X124587142Y-127134761D01*
X124682380Y-127039523D01*
X124730000Y-126944285D01*
X124777619Y-126753809D01*
X124777619Y-126610952D01*
X124730000Y-126420476D01*
X124682380Y-126325238D01*
X124587142Y-126230000D01*
X124444285Y-126182380D01*
X124349047Y-126182380D01*
X124206190Y-126230000D01*
X124158571Y-126277619D01*
X123015714Y-126134761D02*
X123872857Y-127420476D01*
X122730000Y-126896666D02*
X122253809Y-126896666D01*
X122825238Y-127182380D02*
X122491904Y-126182380D01*
X122158571Y-127182380D01*
X121825238Y-127182380D02*
X121825238Y-126182380D01*
X121587142Y-126182380D01*
X121444285Y-126230000D01*
X121349047Y-126325238D01*
X121301428Y-126420476D01*
X121253809Y-126610952D01*
X121253809Y-126753809D01*
X121301428Y-126944285D01*
X121349047Y-127039523D01*
X121444285Y-127134761D01*
X121587142Y-127182380D01*
X121825238Y-127182380D01*
X120253809Y-127087142D02*
X120301428Y-127134761D01*
X120444285Y-127182380D01*
X120539523Y-127182380D01*
X120682380Y-127134761D01*
X120777619Y-127039523D01*
X120825238Y-126944285D01*
X120872857Y-126753809D01*
X120872857Y-126610952D01*
X120825238Y-126420476D01*
X120777619Y-126325238D01*
X120682380Y-126230000D01*
X120539523Y-126182380D01*
X120444285Y-126182380D01*
X120301428Y-126230000D01*
X120253809Y-126277619D01*
X118634761Y-127134761D02*
X118730000Y-127182380D01*
X118920476Y-127182380D01*
X119015714Y-127134761D01*
X119063333Y-127087142D01*
X119110952Y-126991904D01*
X119110952Y-126706190D01*
X119063333Y-126610952D01*
X119015714Y-126563333D01*
X118920476Y-126515714D01*
X118730000Y-126515714D01*
X118634761Y-126563333D01*
X118206190Y-127182380D02*
X118206190Y-126182380D01*
X117777619Y-127182380D02*
X117777619Y-126658571D01*
X117825238Y-126563333D01*
X117920476Y-126515714D01*
X118063333Y-126515714D01*
X118158571Y-126563333D01*
X118206190Y-126610952D01*
X117301428Y-127182380D02*
X117301428Y-126515714D01*
X117301428Y-126182380D02*
X117349047Y-126230000D01*
X117301428Y-126277619D01*
X117253809Y-126230000D01*
X117301428Y-126182380D01*
X117301428Y-126277619D01*
X116825238Y-126515714D02*
X116825238Y-127515714D01*
X116825238Y-126563333D02*
X116730000Y-126515714D01*
X116539523Y-126515714D01*
X116444285Y-126563333D01*
X116396666Y-126610952D01*
X116349047Y-126706190D01*
X116349047Y-126991904D01*
X116396666Y-127087142D01*
X116444285Y-127134761D01*
X116539523Y-127182380D01*
X116730000Y-127182380D01*
X116825238Y-127134761D01*
X133420476Y-128165714D02*
X133039523Y-128165714D01*
X133277619Y-128832380D02*
X133277619Y-127975238D01*
X133230000Y-127880000D01*
X133134761Y-127832380D01*
X133039523Y-127832380D01*
X132563333Y-128832380D02*
X132658571Y-128784761D01*
X132706190Y-128737142D01*
X132753809Y-128641904D01*
X132753809Y-128356190D01*
X132706190Y-128260952D01*
X132658571Y-128213333D01*
X132563333Y-128165714D01*
X132420476Y-128165714D01*
X132325238Y-128213333D01*
X132277619Y-128260952D01*
X132230000Y-128356190D01*
X132230000Y-128641904D01*
X132277619Y-128737142D01*
X132325238Y-128784761D01*
X132420476Y-128832380D01*
X132563333Y-128832380D01*
X131372857Y-128165714D02*
X131372857Y-128832380D01*
X131801428Y-128165714D02*
X131801428Y-128689523D01*
X131753809Y-128784761D01*
X131658571Y-128832380D01*
X131515714Y-128832380D01*
X131420476Y-128784761D01*
X131372857Y-128737142D01*
X130896666Y-128165714D02*
X130896666Y-128832380D01*
X130896666Y-128260952D02*
X130849047Y-128213333D01*
X130753809Y-128165714D01*
X130610952Y-128165714D01*
X130515714Y-128213333D01*
X130468095Y-128308571D01*
X130468095Y-128832380D01*
X129563333Y-128832380D02*
X129563333Y-127832380D01*
X129563333Y-128784761D02*
X129658571Y-128832380D01*
X129849047Y-128832380D01*
X129944285Y-128784761D01*
X129991904Y-128737142D01*
X130039523Y-128641904D01*
X130039523Y-128356190D01*
X129991904Y-128260952D01*
X129944285Y-128213333D01*
X129849047Y-128165714D01*
X129658571Y-128165714D01*
X129563333Y-128213333D01*
X128325238Y-128832380D02*
X128325238Y-128165714D01*
X128325238Y-127832380D02*
X128372857Y-127880000D01*
X128325238Y-127927619D01*
X128277619Y-127880000D01*
X128325238Y-127832380D01*
X128325238Y-127927619D01*
X127849047Y-128165714D02*
X127849047Y-128832380D01*
X127849047Y-128260952D02*
X127801428Y-128213333D01*
X127706190Y-128165714D01*
X127563333Y-128165714D01*
X127468095Y-128213333D01*
X127420476Y-128308571D01*
X127420476Y-128832380D01*
X126182380Y-128832380D02*
X126182380Y-128165714D01*
X126182380Y-128260952D02*
X126134761Y-128213333D01*
X126039523Y-128165714D01*
X125896666Y-128165714D01*
X125801428Y-128213333D01*
X125753809Y-128308571D01*
X125753809Y-128832380D01*
X125753809Y-128308571D02*
X125706190Y-128213333D01*
X125610952Y-128165714D01*
X125468095Y-128165714D01*
X125372857Y-128213333D01*
X125325238Y-128308571D01*
X125325238Y-128832380D01*
X124706190Y-128832380D02*
X124801428Y-128784761D01*
X124849047Y-128737142D01*
X124896666Y-128641904D01*
X124896666Y-128356190D01*
X124849047Y-128260952D01*
X124801428Y-128213333D01*
X124706190Y-128165714D01*
X124563333Y-128165714D01*
X124468095Y-128213333D01*
X124420476Y-128260952D01*
X124372857Y-128356190D01*
X124372857Y-128641904D01*
X124420476Y-128737142D01*
X124468095Y-128784761D01*
X124563333Y-128832380D01*
X124706190Y-128832380D01*
X123991904Y-128784761D02*
X123896666Y-128832380D01*
X123706190Y-128832380D01*
X123610952Y-128784761D01*
X123563333Y-128689523D01*
X123563333Y-128641904D01*
X123610952Y-128546666D01*
X123706190Y-128499047D01*
X123849047Y-128499047D01*
X123944285Y-128451428D01*
X123991904Y-128356190D01*
X123991904Y-128308571D01*
X123944285Y-128213333D01*
X123849047Y-128165714D01*
X123706190Y-128165714D01*
X123610952Y-128213333D01*
X123277619Y-128165714D02*
X122896666Y-128165714D01*
X123134761Y-127832380D02*
X123134761Y-128689523D01*
X123087142Y-128784761D01*
X122991904Y-128832380D01*
X122896666Y-128832380D01*
X121230000Y-128737142D02*
X121277619Y-128784761D01*
X121420476Y-128832380D01*
X121515714Y-128832380D01*
X121658571Y-128784761D01*
X121753809Y-128689523D01*
X121801428Y-128594285D01*
X121849047Y-128403809D01*
X121849047Y-128260952D01*
X121801428Y-128070476D01*
X121753809Y-127975238D01*
X121658571Y-127880000D01*
X121515714Y-127832380D01*
X121420476Y-127832380D01*
X121277619Y-127880000D01*
X121230000Y-127927619D01*
X120658571Y-128832380D02*
X120753809Y-128784761D01*
X120801428Y-128737142D01*
X120849047Y-128641904D01*
X120849047Y-128356190D01*
X120801428Y-128260952D01*
X120753809Y-128213333D01*
X120658571Y-128165714D01*
X120515714Y-128165714D01*
X120420476Y-128213333D01*
X120372857Y-128260952D01*
X120325238Y-128356190D01*
X120325238Y-128641904D01*
X120372857Y-128737142D01*
X120420476Y-128784761D01*
X120515714Y-128832380D01*
X120658571Y-128832380D01*
X119325238Y-128737142D02*
X119372857Y-128784761D01*
X119515714Y-128832380D01*
X119610952Y-128832380D01*
X119753809Y-128784761D01*
X119849047Y-128689523D01*
X119896666Y-128594285D01*
X119944285Y-128403809D01*
X119944285Y-128260952D01*
X119896666Y-128070476D01*
X119849047Y-127975238D01*
X119753809Y-127880000D01*
X119610952Y-127832380D01*
X119515714Y-127832380D01*
X119372857Y-127880000D01*
X119325238Y-127927619D01*
X118753809Y-128832380D02*
X118849047Y-128784761D01*
X118896666Y-128737142D01*
X118944285Y-128641904D01*
X118944285Y-128356190D01*
X118896666Y-128260952D01*
X118849047Y-128213333D01*
X118753809Y-128165714D01*
X118610952Y-128165714D01*
X118515714Y-128213333D01*
X118468095Y-128260952D01*
X118420476Y-128356190D01*
X118420476Y-128641904D01*
X118468095Y-128737142D01*
X118515714Y-128784761D01*
X118610952Y-128832380D01*
X118753809Y-128832380D01*
X117944285Y-127832380D02*
X118039523Y-128022857D01*
X117563333Y-128784761D02*
X117468095Y-128832380D01*
X117277619Y-128832380D01*
X117182380Y-128784761D01*
X117134761Y-128689523D01*
X117134761Y-128641904D01*
X117182380Y-128546666D01*
X117277619Y-128499047D01*
X117420476Y-128499047D01*
X117515714Y-128451428D01*
X117563333Y-128356190D01*
X117563333Y-128308571D01*
X117515714Y-128213333D01*
X117420476Y-128165714D01*
X117277619Y-128165714D01*
X117182380Y-128213333D01*
X128087142Y-132132380D02*
X128420476Y-131656190D01*
X128658571Y-132132380D02*
X128658571Y-131132380D01*
X128277619Y-131132380D01*
X128182380Y-131180000D01*
X128134761Y-131227619D01*
X128087142Y-131322857D01*
X128087142Y-131465714D01*
X128134761Y-131560952D01*
X128182380Y-131608571D01*
X128277619Y-131656190D01*
X128658571Y-131656190D01*
X127658571Y-131608571D02*
X127325238Y-131608571D01*
X127182380Y-132132380D02*
X127658571Y-132132380D01*
X127658571Y-131132380D01*
X127182380Y-131132380D01*
X126896666Y-131132380D02*
X126563333Y-132132380D01*
X126230000Y-131132380D01*
X124610952Y-132132380D02*
X125182380Y-132132380D01*
X124896666Y-132132380D02*
X124896666Y-131132380D01*
X124991904Y-131275238D01*
X125087142Y-131370476D01*
X125182380Y-131418095D01*
X124182380Y-132037142D02*
X124134761Y-132084761D01*
X124182380Y-132132380D01*
X124230000Y-132084761D01*
X124182380Y-132037142D01*
X124182380Y-132132380D01*
X123182380Y-132132380D02*
X123753809Y-132132380D01*
X123468095Y-132132380D02*
X123468095Y-131132380D01*
X123563333Y-131275238D01*
X123658571Y-131370476D01*
X123753809Y-131418095D01*
X122753809Y-132037142D02*
X122706190Y-132084761D01*
X122753809Y-132132380D01*
X122801428Y-132084761D01*
X122753809Y-132037142D01*
X122753809Y-132132380D01*
X122087142Y-131132380D02*
X121991904Y-131132380D01*
X121896666Y-131180000D01*
X121849047Y-131227619D01*
X121801428Y-131322857D01*
X121753809Y-131513333D01*
X121753809Y-131751428D01*
X121801428Y-131941904D01*
X121849047Y-132037142D01*
X121896666Y-132084761D01*
X121991904Y-132132380D01*
X122087142Y-132132380D01*
X122182380Y-132084761D01*
X122230000Y-132037142D01*
X122277619Y-131941904D01*
X122325238Y-131751428D01*
X122325238Y-131513333D01*
X122277619Y-131322857D01*
X122230000Y-131227619D01*
X122182380Y-131180000D01*
X122087142Y-131132380D01*
X131402380Y-121537380D02*
X131402380Y-120537380D01*
X131164285Y-120537380D01*
X131021428Y-120585000D01*
X130926190Y-120680238D01*
X130878571Y-120775476D01*
X130830952Y-120965952D01*
X130830952Y-121108809D01*
X130878571Y-121299285D01*
X130926190Y-121394523D01*
X131021428Y-121489761D01*
X131164285Y-121537380D01*
X131402380Y-121537380D01*
X130450000Y-121251666D02*
X129973809Y-121251666D01*
X130545238Y-121537380D02*
X130211904Y-120537380D01*
X129878571Y-121537380D01*
X129545238Y-121537380D02*
X129545238Y-120537380D01*
X128402380Y-121632619D02*
X128497619Y-121585000D01*
X128592857Y-121489761D01*
X128735714Y-121346904D01*
X128830952Y-121299285D01*
X128926190Y-121299285D01*
X128878571Y-121537380D02*
X128973809Y-121489761D01*
X129069047Y-121394523D01*
X129116666Y-121204047D01*
X129116666Y-120870714D01*
X129069047Y-120680238D01*
X128973809Y-120585000D01*
X128878571Y-120537380D01*
X128688095Y-120537380D01*
X128592857Y-120585000D01*
X128497619Y-120680238D01*
X128450000Y-120870714D01*
X128450000Y-121204047D01*
X128497619Y-121394523D01*
X128592857Y-121489761D01*
X128688095Y-121537380D01*
X128878571Y-121537380D01*
X128021428Y-120537380D02*
X128021428Y-121346904D01*
X127973809Y-121442142D01*
X127926190Y-121489761D01*
X127830952Y-121537380D01*
X127640476Y-121537380D01*
X127545238Y-121489761D01*
X127497619Y-121442142D01*
X127450000Y-121346904D01*
X127450000Y-120537380D01*
X126973809Y-121537380D02*
X126973809Y-120537380D01*
X125926190Y-121537380D02*
X126259523Y-121061190D01*
X126497619Y-121537380D02*
X126497619Y-120537380D01*
X126116666Y-120537380D01*
X126021428Y-120585000D01*
X125973809Y-120632619D01*
X125926190Y-120727857D01*
X125926190Y-120870714D01*
X125973809Y-120965952D01*
X126021428Y-121013571D01*
X126116666Y-121061190D01*
X126497619Y-121061190D01*
X125497619Y-121537380D02*
X125497619Y-120537380D01*
X125402380Y-120156428D02*
X125545238Y-120299285D01*
X124259523Y-121537380D02*
X124259523Y-120537380D01*
X124259523Y-120918333D02*
X124164285Y-120870714D01*
X123973809Y-120870714D01*
X123878571Y-120918333D01*
X123830952Y-120965952D01*
X123783333Y-121061190D01*
X123783333Y-121346904D01*
X123830952Y-121442142D01*
X123878571Y-121489761D01*
X123973809Y-121537380D01*
X124164285Y-121537380D01*
X124259523Y-121489761D01*
X123211904Y-121537380D02*
X123307142Y-121489761D01*
X123354761Y-121442142D01*
X123402380Y-121346904D01*
X123402380Y-121061190D01*
X123354761Y-120965952D01*
X123307142Y-120918333D01*
X123211904Y-120870714D01*
X123069047Y-120870714D01*
X122973809Y-120918333D01*
X122926190Y-120965952D01*
X122878571Y-121061190D01*
X122878571Y-121346904D01*
X122926190Y-121442142D01*
X122973809Y-121489761D01*
X123069047Y-121537380D01*
X123211904Y-121537380D01*
X122021428Y-121537380D02*
X122021428Y-121013571D01*
X122069047Y-120918333D01*
X122164285Y-120870714D01*
X122354761Y-120870714D01*
X122450000Y-120918333D01*
X122021428Y-121489761D02*
X122116666Y-121537380D01*
X122354761Y-121537380D01*
X122450000Y-121489761D01*
X122497619Y-121394523D01*
X122497619Y-121299285D01*
X122450000Y-121204047D01*
X122354761Y-121156428D01*
X122116666Y-121156428D01*
X122021428Y-121108809D01*
X121545238Y-121537380D02*
X121545238Y-120870714D01*
X121545238Y-121061190D02*
X121497619Y-120965952D01*
X121450000Y-120918333D01*
X121354761Y-120870714D01*
X121259523Y-120870714D01*
X120497619Y-121537380D02*
X120497619Y-120537380D01*
X120497619Y-121489761D02*
X120592857Y-121537380D01*
X120783333Y-121537380D01*
X120878571Y-121489761D01*
X120926190Y-121442142D01*
X120973809Y-121346904D01*
X120973809Y-121061190D01*
X120926190Y-120965952D01*
X120878571Y-120918333D01*
X120783333Y-120870714D01*
X120592857Y-120870714D01*
X120497619Y-120918333D01*
X130759523Y-123187380D02*
X130759523Y-122187380D01*
X130759523Y-122568333D02*
X130664285Y-122520714D01*
X130473809Y-122520714D01*
X130378571Y-122568333D01*
X130330952Y-122615952D01*
X130283333Y-122711190D01*
X130283333Y-122996904D01*
X130330952Y-123092142D01*
X130378571Y-123139761D01*
X130473809Y-123187380D01*
X130664285Y-123187380D01*
X130759523Y-123139761D01*
X129950000Y-122520714D02*
X129711904Y-123187380D01*
X129473809Y-122520714D02*
X129711904Y-123187380D01*
X129807142Y-123425476D01*
X129854761Y-123473095D01*
X129950000Y-123520714D01*
X127759523Y-123187380D02*
X128092857Y-122711190D01*
X128330952Y-123187380D02*
X128330952Y-122187380D01*
X127950000Y-122187380D01*
X127854761Y-122235000D01*
X127807142Y-122282619D01*
X127759523Y-122377857D01*
X127759523Y-122520714D01*
X127807142Y-122615952D01*
X127854761Y-122663571D01*
X127950000Y-122711190D01*
X128330952Y-122711190D01*
X127188095Y-123187380D02*
X127283333Y-123139761D01*
X127330952Y-123092142D01*
X127378571Y-122996904D01*
X127378571Y-122711190D01*
X127330952Y-122615952D01*
X127283333Y-122568333D01*
X127188095Y-122520714D01*
X127045238Y-122520714D01*
X126950000Y-122568333D01*
X126902380Y-122615952D01*
X126854761Y-122711190D01*
X126854761Y-122996904D01*
X126902380Y-123092142D01*
X126950000Y-123139761D01*
X127045238Y-123187380D01*
X127188095Y-123187380D01*
X125997619Y-123139761D02*
X126092857Y-123187380D01*
X126283333Y-123187380D01*
X126378571Y-123139761D01*
X126426190Y-123092142D01*
X126473809Y-122996904D01*
X126473809Y-122711190D01*
X126426190Y-122615952D01*
X126378571Y-122568333D01*
X126283333Y-122520714D01*
X126092857Y-122520714D01*
X125997619Y-122568333D01*
X125569047Y-123187380D02*
X125569047Y-122187380D01*
X125473809Y-122806428D02*
X125188095Y-123187380D01*
X125188095Y-122520714D02*
X125569047Y-122901666D01*
X124854761Y-122520714D02*
X124616666Y-123187380D01*
X124378571Y-122520714D02*
X124616666Y-123187380D01*
X124711904Y-123425476D01*
X124759523Y-123473095D01*
X124854761Y-123520714D01*
X123235714Y-123187380D02*
X123235714Y-122187380D01*
X123235714Y-122663571D02*
X122664285Y-122663571D01*
X122664285Y-123187380D02*
X122664285Y-122187380D01*
X122188095Y-123187380D02*
X122188095Y-122520714D01*
X122188095Y-122187380D02*
X122235714Y-122235000D01*
X122188095Y-122282619D01*
X122140476Y-122235000D01*
X122188095Y-122187380D01*
X122188095Y-122282619D01*
X121569047Y-123187380D02*
X121664285Y-123139761D01*
X121711904Y-123044523D01*
X121711904Y-122187380D01*
X121045238Y-123187380D02*
X121140476Y-123139761D01*
X121188095Y-123044523D01*
X121188095Y-122187380D01*
M02*
